<?xml version="1.0" standalone="no"?>
<!DOCTYPE svg PUBLIC "-//W3C//DTD SVG 1.1//EN" "http://www.w3.org/Graphics/SVG/1.1/DTD/svg11.dtd" >
<!--
2013-9-30: Created.
-->
<svg>
<metadata>
Created by iconfont
</metadata>
<defs>

<font id="icon" horiz-adv-x="1024" >
  <font-face
    font-family="icon"
    font-weight="500"
    font-stretch="normal"
    units-per-em="1024"
    ascent="896"
    descent="-128"
  />
    <missing-glyph />
    
    <glyph glyph-name="kongqizhiliang" unicode="&#59031;" d="M69.82715165 207.60155477C120.48269312 488.99158471 250.70068622 593.42276381 404.80990094 635.32502585 597.68147513 687.92392818 766.03501227 650.20664946 928.70876274 725.16818261 1026.99994681 770.4561800500001 1022.94428786 689.16590819 1021.21530254 676.10414649 996.32676864 487.94417379 894.61955698 308.70641778000004 677.21013931 223.62379605 440.08749283 130.87258851 206.05814557 302.60370546 36.28903083 32.452080069999965 35.03773013 30.46561109000004 32.83339037 29.241107339999985 30.44496725 29.241107339999985L9.0132389 29.241107339999985C3.90434361 29.241107339999985 0.60132921 34.52127005 2.89421539 38.98703871999999 66.59404231 162.86231210999995 158.43065856 269.51763741 275.66844587 354.54783033 381.31480803 431.08339257 507.70433365 490.50735957 652.69909277 537.86804224 664.44197888 541.70466531 659.48687474 558.92927374 647.43174599 556.1773442900001 536.25356288 530.8134559299999 435.78483598 497.67961941 342.52565163 445.62714169 245.06633785 391.23866965 155.41775019 316.06858638000006 69.82715165 207.60155477L69.82715165 207.60155477 69.82715165 207.60155477Z"  horiz-adv-x="1024" />

    
    <glyph glyph-name="caret-right" unicode="&#58888;" d="M377.76946676 69.45903861l299.28141832 293.31693649c11.59438491 11.36264205 11.59438491 30.03170192 0 41.39579237L377.76946676 697.48942816c-18.3395505 17.9738313-49.265635 4.98102308-49.26563502-20.69753408l0-586.63387299c0-25.68000555 30.92680872-38.67136538 49.26563502-20.69825827z"  horiz-adv-x="1024" />

    
    <glyph glyph-name="caret-left" unicode="&#58889;" d="M646.23053324 698.54023718l-299.28141832-293.31693648c-11.59438491-11.36264205-11.59438491-30.03170192 0-41.39579236l299.28141832-293.3176607c18.3395505-17.9738313 49.26635921-4.98102308 49.26563502 20.69753408v586.6331488c0 25.68000555-30.92680872 38.67136538-49.26563502 20.69825827z"  horiz-adv-x="1024" />

    
    <glyph glyph-name="caret-down" unicode="&#58890;" d="M197.45976282 518.23053324l293.31693648-299.28141832c11.36264205-11.59438491 30.03170192-11.59438491 41.39579236 0l293.3176607 299.28141832c17.9738313 18.3395505 4.98102308 49.26635921-20.69753408 49.26563502h-586.6331488c-25.68000555 0-38.67136538-30.92680872-20.69825827-49.26563502z"  horiz-adv-x="1024" />

    
    <glyph glyph-name="caret-top" unicode="&#58891;" d="M826.54023718 249.76946676l-293.31693648 299.28141832c-11.36264205 11.59438491-30.03170192 11.59438491-41.39579236 0l-293.3176607-299.28141832c-17.9738313-18.3395505-4.98102308-49.26635921 20.69753408-49.26563502h586.6331488c25.68000555 0 38.67136538 30.92680872 20.69825827 49.26563502z"  horiz-adv-x="1024" />

    
    <glyph glyph-name="close" unicode="&#58951;" d="M1005.3653643 800.94618107l-76.41788871 76.4178887-416.94618105-418.28732271L95.05511348 877.36406977l-76.41788871-76.4178887L436.92454747 384 18.63722477-32.946181069999966l76.41788871-76.4178887 416.94618106 416.94618106 416.94618105-416.94618106 76.41788871 76.4178887L588.41918325 384z"  horiz-adv-x="1024" />

    
    <glyph glyph-name="shengkong" unicode="&#58880;" d="M83.08399999999995 227.0400000000002l346.22200000000004 490.3449999999999c37.09900000000001 51.66699999999999 129.847 51.666999999999945 166.946-5.684341886080802e-14l347.26099999999985-490.34500000000025c37.09899999999998-51.667000000000016 10.496999999999964-137.063-63.701000000000036-137.06299999999996l-734.067 2.8421709430404007e-13c-74.198 2.1316282072803006e-14-99.75999999999996 85.39600000000003-62.65999999999997 137.06300000000002z"  horiz-adv-x="1024" />

    
    <glyph glyph-name="suoxiao" unicode="&#58915;" d="M925.83799467 466.02194489H106.86130252c-48.46751289 0-88.23572859-39.7682157-88.2357286-88.23572859s39.7682157-88.23572859 88.2357286-88.2357286h818.97669215c48.46751289 0 88.23572859 39.7682157 88.23572858 88.2357286s-39.7682157 88.23572859-88.23572858 88.23572859z"  horiz-adv-x="1024" />

    
    <glyph glyph-name="left" unicode="&#58980;" d="M707.36 864L231.99999969 384l475.36000031-480L792.00000031-4.8000000099999625 400.88 384 792.00000031 772.80000001z"  horiz-adv-x="1024" />

    
    <glyph glyph-name="right" unicode="&#58988;" d="M316.64 864L792.00000031 384l-475.36000031-480L231.99999969-4.8000000099999625 623.12 384 231.99999969 772.80000001z"  horiz-adv-x="1024" />

    
    <glyph glyph-name="top" unicode="&#59175;" d="M32 188.64L512 664.00000032l480-475.36000032L900.80000001 103.99999968999998 512 495.12 123.19999999 103.99999968999998z"  horiz-adv-x="1024" />

    
    <glyph glyph-name="down" unicode="&#59176;" d="M992 579.36L512 103.99999967999997l-480 475.36000032L123.19999999 664.00000031 512 272.88 900.80000001 664.00000031z"  horiz-adv-x="1024" />

    
    <glyph glyph-name="search" unicode="&#59113;" d="M418.88768 895.99886222c56.71253333 0 111.06190222-11.02734222 162.73294222-33.24017777 51.75068445-22.21283555 96.33336889-51.98620445 133.66840889-89.32238223a420.61824 420.61824 0 0 0 89.24387556-133.58990222c22.13432889-51.75068445 33.24017778-106.02154667 33.24017778-162.73408a414.31722667 414.31722667 0 0 0-91.60704-261.50684445l264.34446222-263.9507911c8.97934222-8.97934222 13.46901333-20.00668445 13.46901333-33.08202667a45.13336889 45.13336889 0 0 0-46.47253333-46.55217778 44.97635555 44.97635555 0 0 0-33.08316445 13.39050667L680.23751111 149.91246221999995a413.05656889 413.05656889 0 0 0-261.42947556-91.60704c-56.71253333 0-110.98339555 11.02734222-162.73294222 33.24017778a421.87889778 421.87889778 0 0 0-133.58990222 89.24387555A420.61824 420.61824 0 0 0 33.24131555 314.37937778a409.66940445 409.66940445 0 0 0-33.24017777 162.73294222c0 56.71253333 11.02734222 110.90488889 33.24017777 162.65557333a422.19406222 422.19406222 0 0 0 89.32238223 133.66840889 420.85489778 420.85489778 0 0 0 133.58990222 89.24387556 409.04021333 409.04021333 0 0 0 162.73408 33.31868444z m0-93.10435555c-44.11050667 0-86.25038222-8.66417778-126.50154667-25.83552-40.25002667-17.24871111-74.90787555-40.40704-103.97240888-69.47271112-29.14417778-29.14417778-52.30136889-63.80202667-69.47271112-103.97240888a318.30016 318.30016 0 0 1-25.83665778-126.58005334c0-44.10936889 8.58567111-86.32888889 25.83665778-126.50040888 17.17134222-40.25002667 40.32853333-74.90787555 69.47271112-103.97354667 29.06453333-29.14417778 63.72238222-52.30136889 103.97240888-69.55235556 40.17152-17.17020445 82.39104-25.83438222 126.50154667-25.83438222s86.32888889 8.66417778 126.57891555 25.83552c40.17152 17.24984889 74.90787555 40.40704 103.97354667 69.47271111 29.14417778 29.14417778 52.30136889 63.80202667 69.47271111 103.97354667 17.24984889 40.25002667 25.83552 82.46954667 25.83552 126.57891555s-8.66417778 86.32888889-25.83552 126.58005334a327.51502222 327.51502222 0 0 1-69.47271111 103.97240888c-29.06567111 29.14417778-63.80202667 52.224-103.97354667 69.47271112a318.30016 318.30016 0 0 1-126.57891555 25.83665778z"  horiz-adv-x="1024" />

    
    <glyph glyph-name="guokong" unicode="&#60566;" d="M512 109.37599999999998l-217.504-165.248A51.2 51.2 0 0 0 214.592 0l83.84 272.16-223.68 171.072a51.2 51.2 0 0 0 31.04 91.84l274.24 0.48 83.072 266.88a51.2 51.2 0 0 0 97.792 0l83.072-266.88 274.24-0.448a51.2 51.2 0 0 0 31.04-91.872l-223.68-171.072L809.408 0a51.2 51.2 0 0 0-79.904-55.84L512 109.37599999999998z"  horiz-adv-x="1024" />

    
    <glyph glyph-name="quyu" unicode="&#58902;" d="M523.48958333 736.5c-238.6875 0-432.1875-151.125-432.1875-337.5s193.5-337.5 432.1875-337.5 432.1875 151.125 432.1875 337.5-193.5 337.5-432.1875 337.5z m0-617.8125c-207.09375 0-375 125.53125-375 280.3125s167.90625 280.3125 375 280.3125 375-125.53125 375-280.3125-167.90625-280.3125-375-280.3125z"  horiz-adv-x="1024" />

    
    <glyph glyph-name="zhandianxinxi" unicode="&#59255;" d="M943.168 896C987.776 896 1024 859.776 1024 815.168v-862.336c0-44.608-36.224-80.832-80.832-80.832H80.832A80.832 80.832 0 0 0 0-47.168V815.168C0 859.776 36.224 896 80.832 896h862.336zM64 512v-256h896V512H64z m26.368 320A25.984 25.984 0 0 1 64 806.4V576h896V806.4c0 14.08-11.776 25.6-26.368 25.6H90.368z m843.264-896c14.592 0 26.368 11.52 26.368 25.6V192H64v-230.4c0-14.08 11.776-25.6 26.368-25.6h843.264zM768 704a64 64 0 1 0 128 0 64 64 0 0 0-128 0z m0-320a64 64 0 1 0 128 0 64 64 0 0 0-128 0z m0-320a64 64 0 1 0 128 0 64 64 0 0 0-128 0z"  horiz-adv-x="1024" />

    
    <glyph glyph-name="yuanchengkongzhi" unicode="&#59256;" d="M448 768h448c70.72 0 128-62.528 128-139.648V320a128 128 0 0 0 128-128v-192a128 128 0 0 0-128-128h-192a128 128 0 0 0-128 128H256c-70.72 0-128 62.528-128 139.648V448a128 128 0 0 0-128 128V768a128 128 0 0 0 128 128h192a128 128 0 0 0 128-128z m0-64v-128a128 128 0 0 0-128-128H192v-312.896C192 95.808 220.672 64 256 64h448v128a128 128 0 0 0 128 128h128V632.896C960 672.192 931.328 704 896 704H448zM128 832a64 64 0 0 1-64-64v-192a64 64 0 0 1 64-64h192a64 64 0 0 1 64 64V768a64 64 0 0 1-64 64H128z m704-576a64 64 0 0 1-64-64v-192a64 64 0 0 1 64-64h192a64 64 0 0 1 64 64v192a64 64 0 0 1-64 64h-192z"  horiz-adv-x="1152" />

    
    <glyph glyph-name="chengshiyingxiang" unicode="&#59257;" d="M447.99692 575.99836v-639.9956h511.99648V831.9966H447.99692v-255.99824z m0-703.99516H55.999615C25.087828-127.9968 0-99.324997 0-63.99724V447.99924a127.99912 127.99912 0 0 0 127.99912 127.99912h255.99824V839.100551A57.599604 57.599604 0 0 0 442.23696 895.99616h523.5164a57.599604 57.599604 0 0 0 58.2396-56.895609V-71.037192a57.599604 57.599604 0 0 0-58.2396-56.895608H447.99692zM383.99736 511.9988H127.99912a63.99956 63.99956 0 0 1-63.99956-63.99956v-511.99648h319.9978V511.9988z m223.99846 127.99912h191.99868a31.99978 31.99978 0 0 0 0-63.99956h-191.99868a31.99978 31.99978 0 0 0 0 63.99956z m0-191.99868h191.99868a31.99978 31.99978 0 0 0 0-63.99956h-191.99868a31.99978 31.99978 0 0 0 0 63.99956z m0-191.99868h191.99868a31.99978 31.99978 0 0 0 0-63.99956h-191.99868a31.99978 31.99978 0 0 0 0 63.99956z"  horiz-adv-x="1024" />

    
    <glyph glyph-name="shipinjiankong" unicode="&#59258;" d="M512-128A512 512 0 1 0 512 896a512 512 0 0 0 0-1024z m0 64A448 448 0 1 1 512 832a448 448 0 0 1 0-896zM512 576a64 64 0 1 0 0 128 64 64 0 0 0 0-128z m0-576a256 256 0 1 0 0 512 256 256 0 0 0 0-512z m0 64a192 192 0 1 1 0 384 192 192 0 0 1 0-384z"  horiz-adv-x="1024" />

    
    <glyph glyph-name="baojingxinxi" unicode="&#59259;" d="M0-71.111111h1024v-56.888889H0v56.888889zM483.555556 782.222222V896h56.888888v-113.777778h-56.888888z m-187.335112-51.996444L215.779556 810.666667 256 850.887111l80.440889-80.440889-40.220445-40.220444z m391.338667 40.220444L768 850.887111l40.220444-40.220444-80.440888-80.440889-40.220445 40.220444zM512 725.333333c251.335111 0 455.111111-191.032889 455.111111-426.666666V-14.222222H56.888889v312.888889C56.888889 534.300444 260.664889 725.333333 512 725.333333z m398.222222-682.666666v256C910.222222 502.897778 731.932444 668.444444 512 668.444444s-398.222222-165.546667-398.222222-369.777777V42.666667h796.444444zM284.444444 42.666667v284.444444h56.888889v-284.444444H284.444444z"  horiz-adv-x="1024" />

    
    <glyph glyph-name="qushijiankong" unicode="&#59260;" d="M64-64h928a32 32 0 0 0 0-64H32a32 32 0 0 0-32 32V864a32 32 0 0 0 64 0V-64z m603.136 301.76L474.88 430.912l-289.92-359.808a32 32 0 1 0-49.792 40.128L469.76 526.72l193.664-194.432 297.088 360.512a32 32 0 0 0 48.704-41.472l-342.144-413.44z"  horiz-adv-x="1024" />

    
    <glyph glyph-name="shishishuju" unicode="&#59261;" d="M828.472889 368.128V791.495111a53.646222 53.646222 0 0 1-53.361778 53.930667H135.111111a53.646222 53.646222 0 0 1-53.361778-53.930667v-701.212444c0-29.809778 23.893333-53.930667 53.361778-53.930667h365.340445a256 256 0 0 0 328.021333 331.776zM526.677333-14.222222H135.111111A106.894222 106.894222 0 0 0 28.444444 92.842667V788.935111C28.444444 848.099556 76.231111 896 135.111111 896h640C834.048 896 881.777778 848.042667 881.777778 788.935111v-448.056889A256 256 0 1 0 526.677333-14.222222zM227.555556 668.444444h398.222222a28.444444 28.444444 0 0 0 0-56.888888h-398.222222a28.444444 28.444444 0 0 0 0 56.888888z m0-227.555555h227.555555a28.444444 28.444444 0 0 0 0-56.888889h-227.555555a28.444444 28.444444 0 0 0 0 56.888889z m498.631111-394.922667A28.444444 28.444444 0 0 0 711.111111 71.111111v170.666667a28.444444 28.444444 0 0 0 56.888889 0v-159.402667a28.672 28.672 0 0 0 3.413333-2.958222l40.277334-40.220445a28.444444 28.444444 0 0 0-40.220445-40.220444l-40.220444 40.220444a28.444444 28.444444 0 0 0-5.063111 6.826667zM739.555556-71.111111a199.111111 199.111111 0 1 1 0 398.222222 199.111111 199.111111 0 0 1 0-398.222222z"  horiz-adv-x="1024" />

    
    <glyph glyph-name="tongjifenxi" unicode="&#59262;" d="M987.840045-55.67881c20.287975 0 36.159955-15.87198 36.159955-36.159955a35.775955 35.775955 0 0 0-36.159955-36.159955H36.161235A35.775955 35.775955 0 0 0 0.00128-91.838765V859.840045C0.00128 880.12802 15.87326 896 36.161235 896c20.287975 0 36.159955-15.87198 36.159955-36.159955V-55.67881h915.518855z m-565.375293 139.327825a35.775955 35.775955 0 0 0-36.159955-36.159954 35.775955 35.775955 0 0 0-36.159955 36.159954V604.032365c0 20.287975 15.87198 36.159955 36.159955 36.159955 20.287975 0 36.159955-15.87198 36.159955-36.159955v-520.31935z m-174.591782 0a35.775955 35.775955 0 0 0-36.223955-36.159954 35.775955 35.775955 0 0 0-36.159954 36.159954V604.032365c0 20.287975 15.93598 36.159955 36.159954 36.159955 20.287975 0 36.223955-15.87198 36.223955-36.159955v-520.31935z m523.903345 0a35.775955 35.775955 0 0 0-36.159955-36.159954 35.775955 35.775955 0 0 0-36.159954 36.159954V604.032365c0 20.287975 15.87198 36.159955 36.159954 36.159955 20.287975 0 36.159955-15.87198 36.159955-36.159955v-520.31935z m174.591782 0a35.775955 35.775955 0 0 0-36.159955-36.159954 35.775955 35.775955 0 0 0-36.159955 36.159954V343.87269c0 20.287975 15.87198 36.159955 36.159955 36.159955 20.287975 0 36.159955-15.87198 36.159955-36.159955v-260.223675z m-349.247563 0a35.775955 35.775955 0 0 0-36.159955-36.159954 35.775955 35.775955 0 0 0-36.159955 36.159954V343.87269c0 20.287975 15.87198 36.159955 36.159955 36.159955 20.287975 0 36.159955-15.87198 36.159955-36.159955v-260.223675z"  horiz-adv-x="1024" />

    
    <glyph glyph-name="baojingguanli" unicode="&#59263;" d="M988.480089 656.12604c-1.727996 0-223.615441 5.311987-449.918875 229.247427A35.583911 35.583911 0 0 1 512.961278 895.99744h-3.583991a35.583911 35.583911 0 0 1-25.727936-10.623973C259.201912 661.438026 37.250467 656.12604 35.522471 656.12604A35.775911 35.775911 0 0 1 0.00256 619.83813v-233.599416c0-4.479989 0.895998-8.895978 2.687993-13.311966 6.207984-15.93596 159.679601-393.855015 496.894758-499.198752 3.519991-0.831998 7.039982-1.727996 10.623973-1.727996h3.583992c3.519991 0 7.039982 0.895998 10.623973 1.791996 337.215157 105.279737 490.686773 483.198792 496.894758 499.198752A35.455911 35.455911 0 0 1 1024 386.174715v233.599416a36.927908 36.927908 0 0 1-35.519911 36.287909z m-36.351909-262.847343c-20.415949-46.911883-163.263592-355.775111-440.1269-447.806881-276.863308 92.03177-419.710951 400.894998-440.1269 448.702879V587.134212C146.434194 596.862188 324.801748 637.566086 512.00128 811.90165c187.199532-174.335564 365.567086-215.039462 440.1269-224.767438v-193.855515z"  horiz-adv-x="1024" />

    
    <glyph glyph-name="shujuguanli" unicode="&#59264;" d="M36.225235 637.567043h57.343928v-419.839475a35.839955 35.839955 0 0 1 36.223955-36.159955h132.415834l-163.327796-254.015682a35.583956 35.583956 0 0 1 10.559987-49.407939 37.823953 37.823953 0 0 1 19.455976-5.247993c11.519986 0 23.80797 6.143992 30.015962 16.767979L346.880846 182.399612h328.31959l188.095765-293.759633c7.039991-10.559987 18.559977-16.703979 30.015962-16.703979 7.039991 0 13.247983 1.791998 19.391976 5.311993a34.815956 34.815956 0 0 1 10.623987 49.343939l-162.431797 254.911681h133.247833a35.839955 35.839955 0 0 1 36.223955 36.159955v419.839475h57.343928A35.839955 35.839955 0 0 1 1024 673.726998V859.838765A35.839955 35.839955 0 0 1 987.776045 895.99872H36.225235A35.839955 35.839955 0 0 1 0.00128 859.838765v-186.111767a35.839955 35.839955 0 0 1 36.223955-36.159955z m821.758973-384.575519h-152.63981a36.799954 36.799954 0 0 1-23.87197 0H165.953073v384.639519h692.991133v-384.639519h-0.895999zM70.657192 823.67881h880.1269v-113.791857H71.489191V823.67881h-0.895999z m202.239747-500.095374a42.623947 42.623947 0 0 0-26.559967 9.727987 36.159955 36.159955 0 0 0 0 51.135936l72.38391 72.31991a33.727958 33.727958 0 0 0 34.431957 9.727988l116.479854-30.015963 105.983867 125.247844c13.247983 14.975981 36.223955 17.663978 51.199936 4.415994 15.039981-13.247983 17.663978-36.159955 4.479995-51.199936L511.040641 372.159375a37.247953 37.247953 0 0 0-37.119953-11.519986L355.840835 391.551351l-57.407928-57.343929a36.863954 36.863954 0 0 0-25.599968-10.559987z"  horiz-adv-x="1024" />

    
    <glyph glyph-name="xinxiguanli" unicode="&#59265;" d="M981.277372-127.296484c23.535819 0 42.019112 15.861095 42.019112 36.135157V859.864843C1023.296484 880.138905 1004.813191 896 981.277372 896H276.865655c-3.069889 0-7.227031 0-10.232965-0.895384-1.087253 0-2.110549-0.895384-2.110549-0.895385-3.069889-0.831428-5.116482-1.726813-8.186372-2.558241-1.023296-0.95934-2.046593-0.95934-3.069889-1.790769-3.069889-1.790769-6.139779-3.581538-8.186372-6.203735L10.232965 645.740054c-3.069889-2.686153-5.116482-6.203735-7.163076-9.721317-1.023296-0.895384-1.023296-2.686153-1.023296-3.581538-1.023296-2.558241-1.023296-5.244394-2.046593-7.930547v-714.83655c0-21.10549 19.506589-36.966585 42.019112-36.966586h939.25826zM234.718631 657.124227H132.261071l102.521516 103.992505v-103.992505z m18.930985-60.758229c23.599775 0 42.019112 15.797139 42.019112 36.071201V823.729686h658.107551v-888.66904H65.874711V596.302042h187.838861z m-44.513397-89.09075c-23.663731 0-42.083068-15.861095-42.083068-36.135157 0-20.274062 18.483293-36.135157 42.083068-36.135157h604.896134c23.663731 0 42.083068 15.861095 42.083068 36.135157 0 20.274062-18.483293 36.135157-42.083068 36.135157H209.200175z m0-220.968084c-23.663731 0-42.083068-15.925052-42.083068-36.199113 0-20.210106 18.483293-36.135157 42.083068-36.135157h604.896134c23.663731 0 42.083068 15.925052 42.083068 36.135157 0 19.442633-18.483293 36.199113-42.083068 36.199113H209.200175z"  horiz-adv-x="1024" />

    
    <glyph glyph-name="jianzhu" unicode="&#59266;" d="M889.698462-67.426462H984.615385V-128h-271.36V821.563077L306.294154 686.513231V728.418462L753.979077 896l135.719385-116.342154v-847.163077 0.078769zM166.045538 193.181538V286.326154l212.598154 55.847384v-107.086769l-212.598154-41.865846z m0-321.181538v97.792l212.598154 13.942154V-128H166.045538z m0 162.894769V128l212.598154 37.257846v-107.047384l-212.598154-23.315693z m0 321.181539v97.71323l212.598154 69.789539v-111.655385L166.045538 356.036923z m447.763693 279.236923v-763.273846h-176.443077V626.097231L98.264615 514.323692v-642.244923H39.384615V546.894769l452.292923 162.855385 122.092308-74.476308V635.273846z"  horiz-adv-x="1024" />

    
    <glyph glyph-name="shouye" unicode="&#59267;" d="M839.073541-128a51.882623 51.882623 0 0 0-40.0213 18.943984l-398.250335 447.999627A65.535945 65.535945 0 0 0 383.991253 383.999573c0 17.407985 5.631995 32.42664 16.810653 45.055963L799.052241 877.055162A52.479956 52.479956 0 0 0 839.158874 895.999147a51.370624 51.370624 0 0 0 40.0213-18.943985A65.877278 65.877278 0 0 0 895.990827 831.9992v-895.999253a64.853279 64.853279 0 0 0-16.810653-45.055963 52.05329 52.05329 0 0 0-40.106633-18.943984zM170.658098 895.999147a42.666631 42.666631 0 0 0 42.666631-42.666631v-938.665885a42.666631 42.666631 0 1 0-85.333262 0V853.332516A42.666631 42.666631 0 0 0 170.658098 895.999147z"  horiz-adv-x="1024" />

    
    <glyph glyph-name="xiayiye" unicode="&#59268;" d="M312.920273 896a52.05329 52.05329 0 0 1-40.106634-18.943984A64.853279 64.853279 0 0 1 256.002987 832.000053v-895.999253c0-17.322652 5.631995-32.341306 16.810652-45.055962a51.370624 51.370624 0 0 1 40.106634-18.943985 52.479956 52.479956 0 0 1 40.0213 18.943985l398.250334 447.999626A65.535945 65.535945 0 0 1 768.00256 384.000427a65.535945 65.535945 0 0 1-16.810653 45.055962L352.941573 877.056016A51.882623 51.882623 0 0 1 312.834939 896z"  horiz-adv-x="1024" />

    
    <glyph glyph-name="shangyiye" unicode="&#59269;" d="M711.078447-128a52.05329 52.05329 0 0 1 40.106634 18.943984A64.853279 64.853279 0 0 1 767.995733-64.000053V831.9992a65.877278 65.877278 0 0 1-16.810652 45.055962 51.370624 51.370624 0 0 1-40.106634 18.943985 52.479956 52.479956 0 0 1-40.0213-18.943985L272.806813 429.055536A65.535945 65.535945 0 0 1 255.99616 383.999573c0-17.407985 5.631995-32.42664 16.810653-45.055962l398.250334-447.999627a51.882623 51.882623 0 0 1 40.106634-18.943984z"  horiz-adv-x="1024" />

    
    <glyph glyph-name="baobiaozhongxin" unicode="&#59270;" d="M36.48-128h951.68c20.288 0 36.16 17.152 36.16 39.104V784.32c0 21.952-15.872 39.168-36.16 39.168h-179.072V856.896c0 21.952-15.872 39.104-36.16 39.104-20.288 0-36.16-17.152-36.16-39.104v-33.408H294.08V856.896C294.08 878.848 278.144 896 257.856 896c-20.288 0-36.16-17.152-36.16-39.104v-33.408H36.48c-20.288 0-36.16-17.216-36.16-39.168v-874.176c0-20.992 16.768-38.144 36.16-38.144zM72.64 745.216h149.12v-20.992c0-21.952 15.808-39.104 36.096-39.104 20.288 0 36.16 17.152 36.16 39.04v21.056h442.752v-20.992c0-21.952 15.872-39.104 36.16-39.104 20.288 0 36.16 17.152 36.16 39.04v21.056h143.808v-101.12H72.64v101.12z m0-179.392h879.36v-616.512H72.64V565.76z m700.288-179.456h-520.32c-20.352 0-36.224-17.152-36.224-39.104 0-21.952 15.872-39.104 36.16-39.104h520.384c20.288 0 36.16 17.152 36.16 39.04 0 22.016-15.872 39.168-36.16 39.168z m-260.16-188.928H252.48c-20.288 0-36.16-17.216-36.16-39.168 0-21.952 15.872-39.04 36.16-39.04h260.224c20.288 0 36.16 17.088 36.16 39.04 0 21.952-15.872 39.168-36.16 39.168z"  horiz-adv-x="1024" />

    
    <glyph glyph-name="weiye" unicode="&#59272;" d="M184.925819 896c15.44532 0 28.757309-6.314661 40.0213-18.943984l398.250335-447.999627A65.535945 65.535945 0 0 0 640.008107 384.000427c0-17.407985-5.631995-32.42664-16.810653-45.055963l-398.250335-447.999626a52.479956 52.479956 0 0 0-40.106633-18.943985 51.370624 51.370624 0 0 0-40.0213 18.943985A65.877278 65.877278 0 0 0 128.008533-63.9992V832.000053A64.853279 64.853279 0 0 0 144.819186 877.056016 52.05329 52.05329 0 0 0 184.925819 896zM853.341262-127.999147a42.666631 42.666631 0 0 0-42.666631 42.666631V853.333369a42.666631 42.666631 0 1 0 85.333262 0v-938.665885a42.666631 42.666631 0 0 0-42.666631-42.666631z"  horiz-adv-x="1024" />

    
    <glyph glyph-name="yuanchengjiankong" unicode="&#59273;" d="M36.22592 347.776H115.84192a397.44 397.44 0 0 1 359.936-359.936v-79.616c0-19.392 15.872-36.224 36.224-36.224a36.416 36.416 0 0 1 36.224 36.224V-12.16a397.44 397.44 0 0 1 359.936 359.936h79.616A36.416 36.416 0 0 1 1024.00192 384a36.416 36.416 0 0 1-36.224 36.224H908.16192A397.44 397.44 0 0 1 548.22592 780.16V859.776A36.416 36.416 0 0 1 512.00192 896a36.416 36.416 0 0 1-36.224-36.224V780.16A397.44 397.44 0 0 1 115.84192 420.224H36.22592A35.84 35.84 0 0 1 0.00192 384c0-20.352 16.832-36.224 36.224-36.224z m298.048 72.448h-145.92c16.832 151.232 137.088 271.488 287.36 287.424v-145.92c0-19.456 16-36.224 36.288-36.224a36.416 36.416 0 0 1 36.224 36.224v145.92c151.232-16.832 271.488-137.088 287.424-287.36h-145.92a36.416 36.416 0 0 1-36.224-36.288c0-19.456 15.872-36.224 36.224-36.224h145.92c-16.832-151.232-137.088-271.488-287.36-287.424v145.92A36.416 36.416 0 0 1 512.00192 242.496a36.416 36.416 0 0 1-36.224-36.224v-145.92c-151.232 16.832-271.488 137.088-287.424 287.36h145.92A36.416 36.416 0 0 1 370.49792 384a36.992 36.992 0 0 1-36.224 36.224z"  horiz-adv-x="1024" />

    
    <glyph glyph-name="rili" unicode="&#59274;" d="M409.6 143.04h204.8V263.552H409.6v-120.512z m0-60.16v-90.432h204.8v90.368H409.6z m500.608 60.16V263.552h-227.52v-120.512h227.52z m0-60.16h-227.52v-90.432h227.52v90.368z m-796.416 60.16h227.52V263.552H113.792v-120.512z m0-60.16v-90.432h227.52v90.368H113.792zM409.6 323.712h204.8V474.368H409.6v-150.592z m500.608 0V474.368h-227.52v-150.592h227.52z m-796.416 0h227.52V474.368H113.792v-150.592z m512 451.776v-116.736a64 64 0 0 1 64-64h156.416a64 64 0 0 1 64 64V774.72A128 128 0 0 0 1024 647.552V0a128 128 0 0 0-128-128H128a128 128 0 0 0-128 128V647.552a128 128 0 0 0 113.792 127.168v-115.84a64 64 0 0 1 64-64h156.416a64 64 0 0 1 64 64V775.488h227.584zM200.512 896h76.8a64 64 0 0 0 64-64v-112.96a64 64 0 0 0-64-64h-76.8a64 64 0 0 0-64 64V832a64 64 0 0 0 64 64z m546.176 0h76.8a64 64 0 0 0 64-64v-112.96a64 64 0 0 0-64-64h-76.8a64 64 0 0 0-64 64V832a64 64 0 0 0 64 64z"  horiz-adv-x="1024" />

    
    <glyph glyph-name="kongqi" unicode="&#59275;" d="M117.248 625.408c118.0672 99.328 211.4048 178.0224 464.384 37.7344 121.6-67.3792 219.648-92.672 301.312-92.672 142.9504 0 235.52 77.9776 315.648 145.408a67.6352 67.6352 0 0 1-86.9888 103.4752c-118.0672-99.4816-211.3024-178.0224-464.4864-37.7344-334.4384 185.1904-491.1104 53.248-616.96-52.736a67.7376 67.7376 0 0 1-8.192-95.3344 67.584 67.584 0 0 1 95.232-8.192z m994.304-144.384c-118.0672-99.4304-211.3024-178.0736-464.4864-37.7856-334.336 185.1904-491.008 53.248-616.8576-52.736a67.6352 67.6352 0 0 1 86.9888-103.4752c118.0672 99.4816 211.456 178.0224 464.384 37.8368 121.6-67.3792 219.648-92.7744 301.3632-92.7744 142.8992 0 235.52 77.9776 315.5968 145.408a67.584 67.584 0 1 1-86.9888 103.5264z m0-338.432c-118.0672-99.328-211.3024-178.0224-464.4864-37.7344-334.336 185.1904-491.1104 53.2992-616.8576-52.736a67.6352 67.6352 0 0 1 86.9888-103.4752c118.1184 99.4816 211.456 177.9712 464.4864 37.888 121.6-67.4304 219.648-92.8256 301.312-92.8256 142.9504 0 235.52 77.9776 315.648 145.408a67.584 67.584 0 1 1-87.04 103.5264z"  horiz-adv-x="1228" />

    
    <glyph glyph-name="zonghekanban" unicode="&#59276;" d="M1128.96 896H41.325714C18.139429 896 0 878.957714 0 857.161143V166.765714c0-21.796571 18.139429-38.838857 41.325714-38.838857h502.491429v-178.249143H313.197714c-23.113143 0-41.252571-17.042286-41.252571-38.912 0-21.796571 18.139429-38.838857 41.252571-38.838857h543.890286c23.113143 0 41.252571 17.042286 41.252571 38.838857 0 21.869714-18.139429 38.912-41.252571 38.912H626.468571V128h502.491429c23.186286 0 41.325714 17.042286 41.325714 38.838857V857.234286C1170.285714 878.957714 1152.146286 896 1128.96 896z m-41.252571-690.249143H82.578286V328.996571h1005.129143v-123.245714z m0 200.045714H82.578286V818.249143h1005.129143v-412.452572z"  horiz-adv-x="1170" />

    
    <glyph glyph-name="weizhi" unicode="&#59277;" d="M512 896C306.455273 896 139.636364 724.061091 139.636364 512 139.636364 299.892364 512-128 512-128s372.363636 427.892364 372.363636 640C884.363636 724.061091 717.637818 896 512 896z m0-640c-137.122909 0-248.273455 114.641455-248.273455 256s111.150545 256 248.32 256c137.076364 0 248.226909-114.641455 248.22691-256s-111.150545-256-248.22691-256zM512 640c-68.514909 0-124.136727-57.297455-124.136727-128S443.485091 384 512 384c68.514909 0 124.043636 57.297455 124.043636 128S580.561455 640 512 640z"  horiz-adv-x="1024" />

    
    <glyph glyph-name="shishijiance" unicode="&#59278;" d="M873.92064 747.712c-0.896 0.896-2.624 1.728-3.52 2.624A512.64 512.64 0 0 1 512.00064 896C372.48064 896 246.27264 839.488 153.60064 748.608c-0.896-0.896-1.792-0.896-3.52-1.792-0.896-0.896-0.896-1.792-1.792-2.624A508.416 508.416 0 0 1 0.00064 384c0-282.496 229.504-512 512-512s512 229.504 512 512c0 140.352-56.512 267.52-148.288 360.192-0.896 0.832-0.896 2.624-1.792 3.52zM512.00064-56.512c-230.4 0-420.224 178.304-438.72 404.288H386.56064a130.048 130.048 0 0 1 124.48-93.568c59.136 0 109.44 39.744 124.48 93.568h313.408c-16.768-225.92-206.592-404.288-436.992-404.288zM454.59264 384c0 31.808 25.6 57.408 57.408 57.408s57.408-25.6 57.408-57.408-25.6-57.408-57.408-57.408A57.28 57.28 0 0 0 454.59264 384z m181.888 36.224c-7.04 25.6-22.08 47.616-41.472 63.552l97.92 223.36c8 18.496 0 39.68-18.56 47.616a35.904 35.904 0 0 1-47.616-18.56l-97.92-223.36c-5.376 0.96-11.52 0.96-16.832 0.96-59.136 0-108.608-39.744-124.48-93.568h-314.24a433.216 433.216 0 0 0 104.128 248.96l67.968-68.032c7.04-7.04 15.936-10.56 25.6-10.56a36.224 36.224 0 0 1 25.6 61.824L228.60864 720.256a440.512 440.512 0 0 0 247.168 102.4v-96.192A35.84 35.84 0 0 1 512.00064 690.304a35.84 35.84 0 0 1 36.224 36.224V822.72c93.568-7.936 179.2-44.992 247.168-102.4l-67.136-67.968a36.224 36.224 0 0 1 51.2-51.2l67.968 67.968a432.192 432.192 0 0 0 103.296-248.96h-314.24z"  horiz-adv-x="1024" />

    
    <glyph glyph-name="aqi" unicode="&#59279;" d="M166.066087 194.33739100000003a41.271652 41.271652 0 0 1 54.316522 21.682087l26.401391 61.751652h131.428174l26.401391-61.751652a41.22713 41.22713 0 0 1 54.316522-21.682087 41.360696 41.360696 0 0 1 21.682087 54.316522l-16.651131 38.867478c6.322087-13.089391 13.979826-25.377391 22.928696-36.507826 31.031652-38.64487 72.926609-59.881739 118.116174-59.881739 27.91513 0 54.672696 8.147478 78.180174 23.418435l8.94887-8.94887c8.013913-8.013913 18.610087-12.065391 29.295304-12.065391a41.22713 41.22713 0 0 1 29.250782 70.477913l-11.041391 10.99687a218.957913 218.957913 0 0 1 28.271305 109.167304c0 49.953391-15.849739 97.235478-44.655305 133.12-30.98713 38.733913-72.882087 59.970783-118.116174 59.970783s-87.262609-21.370435-118.116174-59.926261c-28.805565-35.929043-44.655304-83.255652-44.655304-133.12 0-27.692522 4.808348-54.450087 14.113391-79.026087L350.653217 552.2921739999999l-0.222608 0.445217c-0.133565 0.356174-0.356174 0.667826-0.445218 1.024a3.428174 3.428174 0 0 1-0.445217 0.890435c-0.133565 0.356174-0.356174 0.623304-0.445217 0.934957-0.133565 0.356174-0.400696 0.578783-0.48974 0.890434l-0.445217 0.845913c-0.26713 0.356174-0.356174 0.667826-0.578783 1.024-0.133565 0.222609-0.356174 0.445217-0.445217 0.712348l-0.712348 1.024a2.493217 2.493217 0 0 1-0.445217 0.578783 6.322087 6.322087 0 0 1-0.845913 1.024c-0.089043 0.222609-0.311652 0.356174-0.445218 0.578782-0.222609 0.356174-0.578783 0.667826-0.801391 0.890435-0.222609 0.26713-0.356174 0.445217-0.578783 0.578783-0.222609 0.356174-0.578783 0.578783-0.801391 0.890435l-0.667826 0.712347a4.986435 4.986435 0 0 1-0.801391 0.712348l-0.801392 0.667826a3.027478 3.027478 0 0 1-0.712347 0.578783c-0.356174 0.222609-0.578783 0.445217-0.890435 0.712348l-0.712348 0.578782-0.890435 0.667827c-0.26713 0.133565-0.445217 0.356174-0.712348 0.445217l-0.890434 0.712348c-0.26713 0.089043-0.489739 0.356174-0.845913 0.445217l-0.890435 0.578783c-0.26713 0.133565-0.578783 0.356174-0.934957 0.445217l-0.801391 0.445218c-0.356174 0.26713-0.712348 0.356174-1.024 0.489739l-0.801391 0.356174c-0.356174 0.089043-0.712348 0.311652-1.068522 0.445217-0.089043 0.133565-0.222609 0.133565-0.311652 0.222609-0.133565 0.133565-0.222609 0.133565-0.445218 0.133565-0.356174 0.089043-0.712348 0.356174-1.068521 0.445217l-0.890435 0.356174c-0.356174 0.089043-0.712348 0.222609-0.934957 0.356174l-1.024 0.311652c-0.222609 0.133565-0.578783 0.133565-0.801391 0.222609l-1.157565 0.356174c-0.222609 0-0.445217 0.133565-0.712348 0.133565-0.445217 0.089043-0.890435 0.222609-1.335652 0.222609l-0.578783 0.089043c-0.445217 0.133565-0.934957 0.133565-1.380174 0.267131-0.222609 0-0.356174 0-0.578782 0.089043-0.445217 0.133565-0.890435 0.133565-1.380174 0.133565h-0.712348l-1.246609 0.089044h-3.917913c-0.445217 0-0.801391 0-1.246609-0.089044-0.222609 0-0.445217 0-0.801391-0.133565l-1.246609-0.089043c-0.26713 0-0.445217 0-0.712347-0.133566-0.445217-0.133565-0.890435-0.133565-1.246609-0.222608-0.222609 0-0.445217-0.133565-0.712348-0.133565-0.445217-0.089043-0.801391-0.222609-1.246609-0.222609-0.222609 0-0.445217-0.089043-0.801391-0.222609l-1.157565-0.356174c-0.356174-0.089043-0.578783-0.089043-0.890435-0.222608l-1.068522-0.356174-1.024-0.311653-0.801391-0.356173c-0.356174-0.133565-0.667826-0.356174-1.157565-0.445218l-0.311652-0.133565c-0.133565 0-0.26713-0.133565-0.356174-0.133565-0.356174-0.089043-0.801391-0.311652-1.157565-0.445218a5.609739 5.609739 0 0 0-0.801392-0.356174 4.674783 4.674783 0 0 1-1.024-0.53426l-0.801391-0.445218c-0.356174-0.133565-0.578783-0.400696-0.890435-0.623304-0.400696-0.222609-0.623304-0.311652-0.934956-0.578783-0.26713-0.089043-0.578783-0.311652-0.845913-0.445217-0.311652-0.222609-0.534261-0.445217-0.890435-0.578783-0.222609-0.089043-0.445217-0.356174-0.712348-0.445217l-0.890435-0.712348c-0.222609-0.222609-0.445217-0.311652-0.712348-0.534261l-0.890434-0.712348c-0.26713-0.222609-0.445217-0.445217-0.712348-0.578782l-0.801392-0.667826-0.801391-0.712348-0.667826-0.667826-0.801391-0.801392c-0.26713-0.222609-0.356174-0.445217-0.578783-0.578782a6.544696 6.544696 0 0 0-0.801391-0.890435c-0.133565-0.26713-0.356174-0.400696-0.445218-0.623304-0.26713-0.311652-0.489739-0.667826-0.845913-1.024a2.493217 2.493217 0 0 0-0.445217-0.578783l-0.712348-1.024c-0.089043-0.222609-0.311652-0.445217-0.445217-0.667826-0.222609-0.356174-0.356174-0.712348-0.578783-0.934957l-0.445217-0.801391c-0.133565-0.356174-0.356174-0.578783-0.445218-0.890435-0.133565-0.356174-0.356174-0.623304-0.445217-0.934956-0.133565-0.26713-0.26713-0.578783-0.489739-0.801391-0.133565-0.356174-0.356174-0.712348-0.445217-1.068522-0.133565-0.089043-0.133565-0.222609-0.222609-0.445218l-129.736348-303.816347a41.22713 41.22713 0 0 1 21.726609-54.182957z m385.335652 271.226435c14.914783 18.69913 33.970087 28.93913 53.604174 28.939131 19.634087 0 38.733913-10.329043 53.604174-28.939131 17.096348-21.370435 26.534957-50.309565 26.534956-81.474783 0-16.562087-2.671304-32.50087-7.70226-47.059478l-28.004174 28.004174a41.22713 41.22713 0 0 1-58.412522 0 41.22713 41.22713 0 0 1 0-58.457043l30.541913-30.497392a57.700174 57.700174 0 0 0-16.562087-2.537739c-19.589565 0-38.689391 10.329043-53.604174 28.939131-17.096348 21.325913-26.490435 50.265043-26.490435 81.474782 0 31.209739 9.394087 60.237913 26.490435 81.608348zM282.267826 360.314435l30.274783 70.566956 30.274782-70.566956H282.267826z m504.208696-128.089044V535.9081739999999a41.316174 41.316174 0 1 0 82.676869 0v-303.593739a41.316174 41.316174 0 0 0-82.676869-0.089044zM968.793043 896H55.117913C24.665043 896 0 871.334957 0 840.882087v-913.630609c0-30.45287 24.665043-55.117913 55.117913-55.117913h913.630609c30.45287 0 55.117913 24.665043 55.117913 55.117913V840.882087C1023.866435 871.334957 999.201391 896 968.748522 896z m-27.514434-941.189565H82.632348V813.32313h858.601739v-858.601739z"  horiz-adv-x="1024" />

    
    <glyph glyph-name="xitong" unicode="&#59280;" d="M1032.447578 896H93.844908C42.033098 895.948803 0.051197 851.611819 0 796.932953V136.229989c0.051197-54.678866 42.033098-99.015849 93.844908-99.067047h437.9941v-99.118244H375.430828c-17.253537-0.358382-30.974451-15.461627-30.616069-33.739113 0.358382-17.663117 13.874506-31.947203 30.616069-32.305585h375.482026c17.253537 0.40958 30.974451 15.512824 30.61607 33.739113-0.358382 17.714314-13.874506 31.947203-30.61607 32.305585H594.40228v99.118244h438.045298c51.811809 0.051197 93.79371 44.388181 93.844907 99.067047V796.881756C1126.343683 851.611819 1084.310584 896 1032.498775 896zM93.844908 829.955302h938.653867c17.253537 0 31.230438-14.847258 31.230439-33.073546v-561.482326H62.614469V796.881756c0 18.226289 14.028099 33.022349 31.230439 33.022349h0.051197z m938.60267-726.645268H93.844908c-17.253537 0-31.230438 14.79606-31.281636 33.022349v32.971152h1001.165942v-33.022349c0-18.226289-13.976901-33.022349-31.230439-33.022349v0.051197zM475.419429 713.122744c17.560722 0 29.233738-11.724214 29.233738-29.284936v-87.701215H416.900755c-17.509525 0-29.233738 11.673016-29.233738 29.233738V713.122744h87.752412z m0 29.233738H358.433278v-116.986151a58.672266 58.672266 0 0 1 58.518674-58.518674h116.986151V683.889006A58.672266 58.672266 0 0 1 475.419429 742.40768z m263.257237-29.233738v-87.752413c0-17.560722-11.673016-29.284936-29.233738-29.284935h-87.752413V683.889006c0 17.509525 11.673016 29.182541 29.233739 29.18254h87.752412z m29.233738 29.233738h-116.98615a58.672266 58.672266 0 0 1-58.518674-58.518674V566.80046h116.98615a58.672266 58.672266 0 0 1 58.518674 58.518674V742.40768zM504.653167 479.099245v-87.752412c0-17.509525-11.673016-29.233738-29.233738-29.233739H387.667017V449.865507c0 17.560722 11.673016 29.233738 29.233738 29.233738h87.752412z m29.284936 29.284936H416.900755A58.672266 58.672266 0 0 1 358.382081 449.814309V332.828159h116.986151a58.672266 58.672266 0 0 1 58.569871 58.569871V508.384181z m87.752412-29.284936h87.752413c17.509525 0 29.233738-11.673016 29.233738-29.233738v-87.752413h-87.752412c-17.560722 0-29.233738 11.673016-29.233739 29.233739V479.099245z m-29.284935-87.752412A58.672266 58.672266 0 0 1 650.975451 332.828159H767.961602V449.865507a58.672266 58.672266 0 0 1-58.518674 58.518674H592.354382v-117.037348z"  horiz-adv-x="1126" />

    
    <glyph glyph-name="wuranwu" unicode="&#59281;" d="M686.762667 849.066667c0-25.941333 21.632-46.933333 47.573333-46.933334 26.538667 0 47.530667 20.992 47.530667 46.933334 0 25.941333-21.632 46.933333-47.530667 46.933333-26.581333 0-47.573333-20.992-47.573333-46.933333z m164.266666-308.138667c0-22.229333 17.92-40.149333 40.746667-40.149333 22.229333 0 40.789333 17.92 40.789333 40.106666 0 22.272-17.92 40.149333-40.789333 40.149334a40.192 40.192 0 0 1-40.746667-40.106667zM279.168 739.754667c0-51.242667 42.026667-92.586667 93.866667-92.586667 51.882667 0 93.866667 41.344 93.866666 92.586667S424.96 832.426667 373.034667 832.426667c-51.84 0-93.866667-41.386667-93.866667-92.586667z m-182.186667-293.973334c0-41.984 34.602667-76.544 77.226667-76.544s77.226667 33.962667 77.226667 76.586667c0 41.984-34.602667 76.544-77.226667 76.544s-77.226667-33.962667-77.226667-76.544z m-4.906666-384.085333c0-85.205333 69.76-153.770667 156.245333-153.770667 86.442667 0 156.245333 69.162667 156.245333 153.770667 0 85.205333-69.802667 153.770667-156.245333 153.770667-86.485333 0-156.245333-68.565333-156.245333-153.770667z m656.426666 19.157333c0-42.624 35.2-77.824 78.464-77.824 43.221333 0 78.421333 34.56 78.421334 77.824 0 42.581333-35.2 77.781333-78.421334 77.781334-43.264-0.597333-78.464-35.2-78.464-77.781334zM313.770667 401.365333c0-135.253333 111.146667-244.565333 247.637333-244.565333 137.088 0 247.637333 109.312 247.637333 244.565333 0 135.253333-111.146667 244.522667-247.637333 244.522667-137.088 0-247.637333-109.312-247.637333-244.522667z"  horiz-adv-x="1024" />

    
    <glyph glyph-name="lianwang" unicode="&#59282;" d="M1001.514667 21.205333h-411.946667a87.168 87.168 0 0 1-31.573333 32.768V125.44c195.584 22.272 347.349333 184.832 347.349333 381.994667C905.344 719.786667 729.216 891.989333 512 891.989333c-217.216 0-393.344-172.16-393.344-384.554666 0-197.162667 151.765333-359.68 347.306667-381.994667v-71.466667a87.210667 87.210667 0 0 1-31.530667-32.768H22.485333v-77.994666h410.368A88.106667 88.106667 0 0 1 512-105.258667c34.816 0 64.896 19.797333 79.146667 48.469334h410.368v77.994666zM485.76 481.792v-102.570667H343.168a535.168 535.168 0 0 0-14.122667 102.570667h156.714667zM329.045333 533.077333c1.493333 35.370667 6.272 69.717333 14.08 102.528h142.634667v-102.528H329.045333z m424.021334-261.333333a341.248 341.248 0 0 0-93.994667-65.152c25.301333 33.024 46.464 74.24 61.696 121.344h78.592a333.653333 333.653333 0 0 0-46.293333-56.192z m73.728 107.477333h-92.202667c6.997333 32.426667 11.477333 66.816 12.885333 102.570667h104.405334a323.882667 323.882667 0 0 0-25.088-102.570667z m25.088 153.813334H747.52a604.117333 604.117333 0 0 1-12.885333 102.570666h92.16c14.037333-32.768 22.442667-67.114667 25.173333-102.570666zM753.066667 743.082667c17.621333-17.194667 33.066667-36.010667 46.293333-56.192h-78.592c-15.232 47.061333-36.309333 88.32-61.696 121.344a339.754667 339.754667 0 0 0 93.994667-65.152z m-214.826667 93.866666c11.946667-3.370667 23.808-9.088 35.413333-17.066666 21.76-15.061333 42.581333-38.186667 60.245334-66.901334 12.202667-19.882667 22.741333-41.984 31.573333-66.090666h-127.232V836.949333z m0-201.344h142.592c7.850667-32.853333 12.629333-67.157333 14.122667-102.570666h-156.714667V635.605333z m0-153.813333h156.714667a539.306667 539.306667 0 0 0-14.08-102.570667h-142.634667V481.792z m127.189333-153.856a369.792 369.792 0 0 0-31.488-66.133333c-17.621333-28.714667-38.528-51.84-60.288-66.816-11.605333-8.021333-23.424-13.781333-35.413333-17.109334v150.058667h127.189333z m-215.04 491.946667c11.605333 7.978667 23.466667 13.696 35.413334 17.066666V686.933333H358.528a366.933333 366.933333 0 0 0 31.573333 66.133334c17.621333 28.757333 38.485333 51.84 60.245334 66.816z m-179.456-76.8a341.632 341.632 0 0 0 93.994667 65.152c-25.301333-32.981333-46.464-74.24-61.696-121.344H224.64c13.226667 20.224 28.672 38.997333 46.293333 56.192zM197.205333 635.605333h92.202667c-6.997333-32.426667-11.477333-66.816-12.885333-102.570666H172.117333c2.688 35.413333 11.136 69.802667 25.088 102.570666z m-25.088-153.813333H276.48c1.450667-35.754667 5.888-70.186667 12.885333-102.570667h-92.16a322.56 322.56 0 0 0-25.173333 102.570667z m98.816-210.048c-17.493333 17.066667-32.981333 35.882667-46.293333 56.192h78.592c15.232-47.061333 36.309333-88.32 61.696-121.344A339.328 339.328 0 0 0 270.933333 271.786667z m119.168-9.898667a366.506667 366.506667 0 0 0-31.573333 66.133334h127.232v-150.101334a118.954667 118.954667 0 0 0-35.413333 17.109334c-21.76 15.018667-42.581333 38.144-60.245334 66.858666z"  horiz-adv-x="1024" />

    
    <glyph glyph-name="arw" unicode="&#59271;" d="M565.70475265 437.70475265h107.40950529v-107.4095053H565.70475265V437.70475265zM458.29524735 330.29524734999995h107.4095053v-107.40950529H458.29524735V330.29524734999995z m0 214.81901059h107.4095053v-107.40950529H458.29524735V545.11425794zM350.88574206 652.52376322h107.40950529v-107.40950528H350.88574206V652.52376322z m0-429.63802116h107.40950529v-107.40950528H350.88574206V222.88574205999998z"  horiz-adv-x="1024" />

    
    <glyph glyph-name="bujiance" unicode="&#59284;" d="M512 641.592889L184.092444-14.222222h655.815112L512 641.592889z m30.492444 193.422222l456.817778-913.635555A34.133333 34.133333 0 0 0 968.817778-128H55.182222a34.133333 34.133333 0 0 0-30.492444 49.379556L481.507556 835.015111a34.133333 34.133333 0 0 0 60.984888 0zM113.777778-14.222222V99.555556h796.444444v-113.777778z"  horiz-adv-x="1024" />

    
    <glyph glyph-name="dingwei" unicode="&#59292;" d="M93.866667 298.666667H0V469.333333h93.866667A427.178667 427.178667 0 0 0 426.666667 802.133333V896h170.666666v-93.866667A427.178667 427.178667 0 0 0 930.133333 469.333333H1024v-170.666666h-93.866667A427.178667 427.178667 0 0 0 597.333333-34.133333V-128H426.666667v93.866667A427.178667 427.178667 0 0 0 93.866667 298.666667zM512 42.666667a341.333333 341.333333 0 1 1 0 682.666666 341.333333 341.333333 0 0 1 0-682.666666z m0 170.666666a170.666667 170.666667 0 1 0 0 341.333334 170.666667 170.666667 0 0 0 0-341.333334z"  horiz-adv-x="1024" />

    
    <glyph glyph-name="liebiao" unicode="&#59293;" d="M346.697143 884.589714h794.697143v-166.838857H346.770286V884.589714z m-317.805714 0h158.939428v-166.838857H28.891429V884.589714z m0-417.133714h158.939428v-166.912H28.891429V467.456z m0-417.206857h158.939428v-166.838857H28.891429v166.838857z m317.878857 0h794.624v-166.838857H346.770286v166.838857z m0 417.206857h794.624v-166.912H346.770286V467.456z"  horiz-adv-x="1170" />

    
    <glyph glyph-name="biaozhu" unicode="&#59295;" d="M768 651.648C768 787.648 653.44 896 513.92 896 369.92 896 256 787.648 256 651.648c0-120.96 88.704-222.528 204.032-243.008v-439.232c-59.648-6.848-102.528-24.96-102.528-46.464 0-28.736 68.096-50.944 155.008-50.944 82.688 0 153.28 21.888 153.28 50.944 0 21.504-42.88 39.68-101.12 46.464V408.64A247.168 247.168 0 0 1 768 651.648zM447.36 640C413.568 640 384 668.288 384 704c0 34.24 29.248 64 63.36 64C481.664 768 512 738.56 512 704c-0.32-35.392-30.72-64-64.64-64z"  horiz-adv-x="1024" />

    
    <glyph glyph-name="weixing" unicode="&#59296;" d="M1008.099288 729.359479L857.386477 880.16538a50.827174 50.827174 0 0 1-73.82042 0L563.966599 660.752102a50.920264 50.920264 0 0 1 0-73.82042l59.67073-59.76382-29.78882-29.78882-18.804193 18.804193a140.565995 140.565995 0 0 1-100.723448 40.773447c-47.475932 38.632376-108.915373 43.93851-143.917237 8.843556-35.001864-35.094954-29.78882-96.720575 8.843556-144.010327-0.65163-37.422205 13.963509-73.54115 40.307997-100.071818l18.897283-18.897282-29.41646-30.533541-59.67073 59.76382a50.827174 50.827174 0 0 1-73.82042 0L16.038489 112.544722a50.920264 50.920264 0 0 1 0-73.820419l150.619721-150.805902a50.827174 50.827174 0 0 1 73.82042 0l219.785639 219.413278a50.920264 50.920264 0 0 1 0 73.82042l-50.827175 50.920264 29.78882 29.78882 66.652485-66.745575a401.869801 401.869801 0 0 0 196.606213 196.792393l-66.652485 66.745575 29.78882 29.78882 50.827175-50.920264a50.827174 50.827174 0 0 1 73.820419 0l219.599459 219.785638a50.547904 50.547904 0 0 1-1.675622 71.958618h-0.18618zM922.456431 392.466541a54.364597 54.364597 0 0 1-12.474069 9.122826 1.768711 1.768711 0 0 0-1.768711 1.675622c-3.630512 1.768711-5.399224 3.723603-9.029736 5.399223h-1.861801c-87.783929 48.686103-223.788511 14.52205-323.953419-86.201398-100.257998-100.723448-134.422051-237.56584-85.829038-325.53595 1.675621-3.723603 3.630512-5.399224 5.306134-9.029736 0-0.930901 0.837811-1.768711 1.768711-1.768711 3.630512-5.399224 7.074845-9.029736 9.029736-12.567158 38.353106-25.227407 121.761802 7.167935 211.221352 79.126553l-44.68323 35.932764c-53.806056-43.286879-96.068945-66.559395-109.287733-55.854038-16.197671 16.290761 38.353106 96.534395 119.993091 179.850002 81.639985 83.408696 162.90761 136.842392 178.9191 120.644721 10.798447-10.798447-9.029736-48.593013-46.451941-96.441305l35.932764-45.614131c67.769566 85.549768 98.116926 165.421042 73.16879 201.260716zM753.404876 199.304661a22.434705 22.434705 0 0 0-1.30326 33.977873l4.095962 4.282143a22.248525 22.248525 0 0 0 33.233153-1.396351l37.422205-46.731212a30.812811 30.812811 0 0 0-1.303261-38.166926L838.023744 164.023527a27.182298 27.182298 0 0 0-37.422206-1.396351l-47.196662 36.677485zM792.875063 151.270188A49.430823 49.430823 0 0 1 744.933681 105.190607a45.893401 45.893401 0 0 1 47.941382-46.917391A45.614131 45.614131 0 0 1 838.023744 104.352797a45.614131 45.614131 0 0 1-45.148681 46.079581M877.21466 151.270188c0-35.560404-14.24278-69.538277-39.284007-93.369333a125.113044 125.113044 0 0 0-92.996972-39.097826V-34.909937c99.978727-2.141071 183.015063 80.895265 186.180125 186.180125h-53.899146M970.677083 150.525468A226.022673 226.022673 0 0 0 744.933681-74.752484V-128c153.598604 0 279.270188 124.926864 279.270188 279.270188h-53.526786"  horiz-adv-x="1024" />

    
    <glyph glyph-name="celiang" unicode="&#59297;" d="M712.702528 885.623543l300.91726-300.985526a35.498406 35.498406 0 0 0 0-50.107366l-652.078418-652.146684a35.498406 35.498406 0 0 0-50.175632 0L10.380212 183.369493a35.498406 35.498406 0 0 0 0 50.175632L662.45863 885.623543a35.498406 35.498406 0 0 0 50.175632 0zM591.59835 759.467668L546.133083 713.934135 637.131882 622.935336 682.665415 668.468869 591.666616 759.467668z m-204.798499-204.798498L341.334585 509.135637 432.333384 418.136838 477.866917 463.67037 386.868118 554.66917z m-204.798498-204.798498L136.536087 304.337139 227.534886 213.33834 273.068419 258.871872 182.069619 349.870672zM532.47985 622.935336l-54.612933-54.612933L696.318648 349.870672l54.612933 54.612932L532.47985 622.935336z m-204.798498-204.798498l-54.612933-54.612933L491.52015 145.072173l54.612933 54.612933L327.681352 418.136838z"  horiz-adv-x="1024" />

    
    <glyph glyph-name="jietu" unicode="&#59298;" d="M719.075432 820.015671c15.028926 23.023035 27.37183 39.970547 37.028714 50.71463 9.656884 10.808036 17.203323 18.034711 22.447459 21.743977 5.308089 3.77322 12.534763 4.476701 21.807931 2.238351a34.022929 34.022929 0 0 0 21.743977-16.691701c5.372041-8.953402 7.546439-21.424213 6.651099-37.412431-0.89534-15.988219-3.965078-38.819395-9.209214-68.557482a178.940143 178.940143 0 0 0-18.546334-50.203007c-9.78479-18.866098-20.400967-37.284526-31.656673-55.255284-11.511517-18.226569-22.703271-35.174081-33.703165-50.714629-10.999894-15.668454-19.633533-27.499736-25.773008-35.749657-10.040601-11.511517-20.145156-23.086988-30.377616-34.534552l-39.650782-44.639107c-16.371936-17.714946-32.615966-35.557798-48.796043-53.528556 9.273167-12.918481 18.994004-25.58115 29.034605-37.924055a3775.202148 3775.202148 0 0 0 40.92984-54.615755c14.069632-19.377721 34.534552-38.371725 61.394759-56.918058 26.860207-18.546334 53.528556-33.447353 79.941094-44.639107 13.238245-5.947617 32.615966-12.278952 58.197116-18.930051 25.517197-6.715052 50.586724-16.947512 75.272533-30.69738 24.621857-13.749868 46.04607-32.743872 64.080781-56.918058 18.034711-24.110234 25.709056-56.662247 23.086988-97.592087-1.79068-32.679919-10.552224-60.755231-26.412538-84.225936a191.347001 191.347001 0 0 0-59.476173-56.918059 236.433778 236.433778 0 0 0-79.941094-30.057851 287.148408 287.148408 0 0 0-87.167768-3.389502 246.410426 246.410426 0 0 0-81.220151 23.982328 164.103077 164.103077 0 0 0-62.034288 52.441357 186.038913 186.038913 0 0 0-32.424108 61.906383 228.823386 228.823386 0 0 0-8.569685 61.970336c0 20.784684 1.918586 42.017039 5.947617 63.569157 3.965078 21.552119 8.122015 43.487955 12.534764 65.807508 2.622068 12.662669 3.709267 23.214894 3.261597 31.784579a80.644575 80.644575 0 0 1-3.965079 22.319553 54.871567 54.871567 0 0 1-8.569685 16.180077l-10.552224 13.430104-15.860313 19.441674a1487.543866 1487.543866 0 0 1-21.104449 25.13348 3996.670953 3996.670953 0 0 1-27.755547 30.121804l-21.104449-24.557904a544.558728 544.558728 0 0 1-21.871883-24.493951c-7.162722-8.633638-14.45335-17.203323-21.743978-25.709056-14.964973-17.075418-23.150941-31.017144-24.429998-41.82518-1.34301-10.744083 0.191859-23.598611 4.604607-38.49963 2.622068-7.418533 5.947617-20.976543 9.912696-40.674029s5.244136-42.400756 3.965078-68.045858a312.090029 312.090029 0 0 0-15.860313-80.900387c-9.273167-28.267171-26.220679-54.999472-50.842535-80.324811-21.168402-21.552119-45.406541-37.540337-72.714419-47.964656a249.096447 249.096447 0 0 0-164.422841-5.5639 251.206892 251.206892 0 0 0-72.010937 34.534553 183.416845 183.416845 0 0 0-51.546017 54.679707 143.638157 143.638157 0 0 0-21.104449 71.435362c-1.79068 39.394971 6.139476 71.946984 23.79047 97.592086 17.587041 25.645103 39.139159 46.685599 64.720309 63.057535 25.58115 16.307983 52.185546 29.162511 79.941094 38.435678 27.691595 9.33712 51.290206 16.947512 70.667926 22.895129 18.482381 5.947617 34.086882 11.703376 46.877457 17.267276 12.790575 5.5639 23.790469 11.191753 32.999684 16.755653 9.273167 5.5639 17.011465 11.319659 23.15094 17.267276l19.825391 18.994004c7.034816 6.651099 15.156831 15.79636 24.429999 27.307878a1536.403862 1536.403862 0 0 1 61.394759 78.662035 971.763931 971.763931 0 0 1-25.069527 27.883454c-7.930156 8.953402-17.842852 19.505627-29.738086 31.784579s-24.877668 25.836961-39.011254 40.737981a595.529169 595.529169 0 0 0-43.487955 55.191331c-15.028926 21.232354-28.906699 42.208897-41.697274 63.057534-12.790575 20.784684-23.982328 40.162405-33.639212 58.005258a553.384225 553.384225 0 0 0-19.825391 39.011253 243.212783 243.212783 0 0 0-17.203324 70.348162c-0.89534 12.598716 0 24.302092 2.622068 35.110129a33.895024 33.895024 0 0 0 15.860313 22.831176 43.104238 43.104238 0 0 0 20.46492 5.052277 27.499736 27.499736 0 0 0 15.220784-5.5639 60.627325 60.627325 0 0 0 12.534764-13.430104c3.965078-5.5639 9.081308-12.087093 15.220784-19.505627 2.622068-3.709267 8.122015-10.999894 16.499842-21.743977 8.313874-10.808036 18.546334-23.790469 30.377615-39.011254 11.895235-15.284737 24.941621-32.232249 39.011254-50.778582l42.208897-55.766907c33.511306-43.935625 70.987691-92.98748 112.301248-147.28347 28.650888 41.569369 57.749446 82.818973 87.167768 123.748812l34.342694 49.115808c11.511517 16.307983 22.2556 31.59272 32.360155 45.726305 8.953402 12.406858 17.714946 24.813715 26.412537 37.348479 7.546439 10.808036 13.430104 19.185862 17.906805 25.13348zM256.824053 128.557189c-36.005468 0-66.51099-9.33712-91.324705-27.947406-24.877668-18.674239-37.284526-41.121698-37.284526-67.40633 0-26.348584 12.406858-48.987902 37.284526-67.981906 24.813715-18.994004 55.319237-28.522982 91.324705-28.522982 35.110128 0 65.040074 9.528978 89.917742 28.522982 24.877668 18.994004 37.284526 41.633321 37.284526 67.981906 0 26.284632-12.406858 48.732091-37.284526 67.40633C321.800174 119.22007 291.870229 128.557189 256.760101 128.557189z m575.575873 0c-35.046175 0-65.231932-9.33712-90.621224-27.947406-25.325338-18.674239-37.988008-41.121698-37.988007-67.470283 0-13.110339 3.389502-25.58115 10.23246-37.220573 6.842958-11.703376 16.052172-21.935836 27.755547-30.69738 11.703376-8.825497 25.389291-15.732407 40.92984-20.848637 15.604501-5.11623 32.168296-7.674345 49.691384-7.674345 35.110128 0 65.104026 9.528978 89.917742 28.522982 24.877668 18.994004 37.284526 41.633321 37.284526 67.981906 0 26.284632-12.406858 48.796043-37.284526 67.40633-24.813715 18.610287-54.807614 27.947406-89.917742 27.947406z"  horiz-adv-x="1024" />

    
    <glyph glyph-name="dianwei2" unicode="&#59300;" d="M152 864h720a60 60 0 0 0 60-60v-848.28a30 30 0 0 0-44.88-26.1L512 144 136.88-70.38A30 30 0 0 0 92-44.27999999999997V804a60 60 0 0 0 60 60z m180-120a60 60 0 0 1 0-120h360a60 60 0 0 1 0 120H332z"  horiz-adv-x="1024" />

    
    <glyph glyph-name="xianlu" unicode="&#59301;" d="M322.84485725 412.60369012c-66.84788316 0-121.08895406 51.00991355-121.08895407 114.04397115S255.99697408 640.69163315 322.89782714 640.69163315h308.17827508c12.71275132-34.11254883 46.87827005-56.94253072 85.28137208-56.99550135 38.35013284 0.05296989 72.51565085 22.88295181 85.22840216 56.99550135h156.89653679c16.68548584 0 30.24575339 12.76572122 30.24575339 28.55072023 0 15.73202981-13.56026755 28.49775032-30.24575339 28.49775031h-156.89653679C788.82015524 731.85265252 754.60166734 754.78857422 716.25153449 754.78857422c-38.35013284-0.05296989-72.46268167-22.93592169-85.22840217-57.04847052H322.89782714C222.52006333 697.7401036900001 141.21142578 621.1457778 141.21142578 526.59469138c0-94.49811653 81.30863755-171.14541158 181.63343147-171.14541159h484.24987793c66.84788316 0 121.08895406-51.06288345 121.0889548-114.09694107s-54.24107164-114.04397117-121.0889548-114.04397188H498.9164601c-12.71275132 34.11254883-46.87827005 56.94253072-85.28137207 56.99550136-38.35013284-0.05296989-72.51565085-22.88295181-85.22840216-56.99550136H171.51014907c-16.68548584 0-30.24575339-12.76572122-30.2457534-28.55072022 0-15.73202981 13.56026755-28.49775032 30.2457534-28.49775031h156.89653679c12.71275132-34.11254883 46.87827005-56.99550063 85.28137207-57.04847053 38.35013284 0.05296989 72.46268167 22.93592169 85.22840217 57.04847053h308.17827507c100.32479391 0 181.63343147 76.59432517 181.63343147 171.14541232 0 94.49811653-81.30863755 171.14541158-181.63343147 171.14541158H322.89782714z m424.81776626 257.64508918c0.58266745-15.73202981-12.50087172-28.97447869-29.23932747-29.55714614h-2.11879164c-16.73845573 0.58266745-29.82199564 13.77214714-29.23932747 29.55714614a29.45120706 29.45120706 0 0 0 29.23932747 27.54429429c16.68548584 0.52969827 30.72248176-11.75929458 31.35811911-27.54429429zM383.28339485 98.81061652999995c0 15.73202981 13.56026755 28.49775032 30.29872328 28.49775031 16.68548584 0 30.24575339-12.71275132 30.24575412-28.49775031 0-15.73202981-13.56026755-28.49775032-30.24575412-28.49775032-16.73845573 0-30.29872328 12.71275132-30.29872328 28.49775032z"  horiz-adv-x="1170" />

    
    <glyph glyph-name="dianwei" unicode="&#59302;" d="M576 256v-320a64 64 0 0 0-128 0v320H64a447.488 447.488 0 0 0 192 367.68V832a64 64 0 0 0 64 64h384a64 64 0 0 0 64-64v-208.32A447.488 447.488 0 0 0 960 256H576z"  horiz-adv-x="1024" />

    
    <glyph glyph-name="guanbi" unicode="&#59303;" d="M512-128a512 512 0 0 0-512 512 512 512 0 0 0 512 512 512 512 0 0 0 512-512 512 512 0 0 0-512-512zM512 847.274667A464.042667 464.042667 0 0 1 48.725333 384 464.042667 464.042667 0 0 1 512-79.274667 464.042667 464.042667 0 0 1 975.274667 384 464.042667 464.042667 0 0 1 512 847.274667zM549.376 384l198.314667 198.314667c9.728 9.728 9.728 26.026667 0 37.376l-1.706667 1.621333a25.514667 25.514667 0 0 1-35.669333 0L512 421.376 313.685333 619.690667a25.514667 25.514667 0 0 1-35.754666 0l-1.621334-1.706667c-9.728-9.642667-9.728-25.941333 0-37.290667L474.624 384 276.309333 185.685333c-9.728-9.728-9.728-26.026667 0-37.376l1.706667-1.621333a25.514667 25.514667 0 0 1 35.669333 0L512 346.624l198.314667-198.314667a25.514667 25.514667 0 0 1 35.754666 0l1.621334 1.706667c9.728 9.642667 9.728 25.941333 0 37.290667L549.376 384z"  horiz-adv-x="1024" />

    
    <glyph glyph-name="quyu2" unicode="&#59304;" d="M246.99822708 495.43014167c33.87054594 0 61.48097106-25.76533713 61.48097105-57.46131469s-27.61042511-57.46131469-61.48097105-57.46131545C213.06178505 380.50751152 185.51725526 406.27284943 185.51725526 437.90293089c0 31.63008147 27.5445298 57.46131469 61.48097182 57.46131469z m0 24.5792092C198.49876795 520.00935088 159.15885416 483.23938119 159.15885416 437.96882698c0-45.3364503 39.33991379-82.10641998 87.83937292-82.10642075 48.43356228 0 87.77347685 36.76996969 87.77347606 82.10642075 0 45.46824246-39.33991379 82.0405239-87.77347606 82.0405239z m2.76763158-167.57353626v-187.80361023 187.80361023z m23.52487344 24.64510528h-52.71680297v-237.0938208h52.71680297V377.0809199z m-26.35840109-249.08689303c33.93644202 0 61.54686713-25.69944105 61.54686712-57.39541938s-27.61042511-57.46131469-61.48097105-57.46131469c-33.93644202 0-61.48097106 25.69944105-61.48097183 57.46131469 0 31.63008147 27.5445298 57.39541861 61.48097183 57.39541938z m0 24.64510527C198.56466404 152.63913214000002 159.15885416 115.86916245999998 159.15885416 70.59860748000006 159.15885416 25.26215719000004 198.49876795-11.5078125 246.99822708-11.5078125c48.43356228 0 87.77347685 36.76996969 87.77347606 82.10641998 0 45.27055421-39.33991379 82.0405239-87.77347606 82.04052465zM812.18824815 754.59912288c33.87054594 0 61.48097106-25.69944105 61.48097104-57.46131468 0-31.63008147-27.61042511-57.39541861-61.48097104-57.39541861-33.93644202 0-61.48097106 25.69944105-61.48097105 57.39541861s27.5445298 57.46131469 61.48097105 57.46131469z m0 24.64510529c-48.49945837 0-87.83937292-36.76996969-87.83937292-82.10641997 0-45.27055421 39.33991379-82.0405239 87.83937292-82.04052389 48.43356228 0 87.77347685 36.76996969 87.77347607 82.04052389C899.96172422 742.47425849 860.62181043 779.24422817 812.18824815 779.24422817zM650.08407974 315.99532457c33.87054594 0 61.41507497-25.76533713 61.41507497-57.46131469 0-31.63008147-27.5445298-57.46131469-61.41507497-57.46131547-33.93644202 0-61.48097106 25.76533713-61.48097106 57.46131546 0 31.63008147 27.5445298 57.46131469 61.48097106 57.4613147z m0 24.64510528c-48.49945837 0-87.83937292-36.76996969-87.83937293-82.10641998s39.33991379-82.10641998 87.83937293-82.10642074c48.43356228 0 87.77347685 36.76996969 87.77347607 82.10642074S698.51764202 340.64042985000003 650.08407974 340.64042985000003z m135.54807907 301.34242343l-131.85790312-308.3932957 48.96073093-18.25319306 131.92379843 308.26150354-49.02662625 18.45088129z m-174.36082499-25.89712929L318.9566628 498.19777402l292.31467102 117.88794997z m126.25674235 77.75728397L284.36126073 511.04749455l20.95492934-45.13876205L758.41710942 648.77014201l-20.88903325 45.13876204z m313.66497608-598.99467093H321.46071082v-49.22431448h729.73234143v49.22431448zM814.95588049 216.82183945999998l241.17937248-81.90873249-241.17937248 81.90873249z m-87.64168467 56.01160243l-17.92371342-46.32488998 362.42801877-123.09373427 17.79192127 46.2589939-362.29622662 123.15963035z m398.34134016-144.83941504c33.93644202 0 61.48097106-25.69944105 61.48097182-57.39541937s-27.5445298-57.46131469-61.48097182-57.46131469c-33.87054594 0-61.48097106 25.69944105-61.48097106 57.46131469 0 31.63008147 27.61042511 57.39541861 61.48097106 57.39541937z m0 24.64510528c-48.43356228 0-87.77347685-36.76996969-87.77347606-82.04052465 0-45.3364503 39.33991379-82.10641998 87.77347606-82.10641998 48.49945837 0 87.83937292 36.76996969 87.83937291 82.10641998 0 45.27055421-39.33991379 82.0405239-87.83937291 82.04052465z"  horiz-adv-x="1366" />

    
    <glyph glyph-name="fangda" unicode="&#59306;" d="M426.7008 469.2992V822.784C426.7008 863.0272 465.1008 896 512 896c46.8992 0 85.2992-32.9728 85.2992-73.216v-353.4848h353.4848c40.2432 0 73.216-38.4 73.216-85.2992 0-46.8992-32.9728-85.2992-73.216-85.2992H597.2992v-353.4848c0-40.2432-38.4-73.216-85.2992-73.216-46.8992 0-85.2992 32.9728-85.2992 73.216V298.7008H73.216C32.9728 298.7008 0 337.1008 0 384c0 46.8992 32.9728 85.2992 73.216 85.2992h353.4848z"  horiz-adv-x="1024" />

    
    <glyph glyph-name="tuli" unicode="&#59305;" d="M1039.34375 489.46875L907.5078125 278.53125h-580.078125L195.59375 489.46875h843.75z m0.84375 105.46875L1144.8125 805.875H90.125l104.625-210.9375h845.4375zM933.875 173.0625L812.1640625-37.875H422.7734375L301.0625 173.0625h632.8125z"  horiz-adv-x="1280" />

    


  </font>
</defs>
</svg>
