<?xml version="1.0" encoding="UTF-8"?>
<svg width="23px" height="23px" viewBox="0 0 23 23" version="1.1" xmlns="http://www.w3.org/2000/svg" xmlns:xlink="http://www.w3.org/1999/xlink">
    <!-- Generator: Sketch 53 (72520) - https://sketchapp.com -->
    <title>aqi_o</title>
    <desc>Created with Sketch.</desc>
    <g id="Page-1" stroke="none" stroke-width="1" fill="none" fill-rule="evenodd">
        <g id="b-单独导航-综合看板01复制" transform="translate(-526.000000, -156.000000)" fill="#999999" fill-rule="nonzero">
            <g id="aqi_o" transform="translate(526.000000, 156.000000)">
                <path d="M3.73055122,15.7600965 C3.8491451,15.811659 3.97289525,15.8348622 4.09664539,15.8348622 C4.45758331,15.8348622 4.80047434,15.6234557 4.95000576,15.2728303 L5.5429752,13.8857974 L8.49493176,13.8857974 L9.0879012,15.2728303 C9.24001075,15.6260338 9.58032365,15.8348622 9.94126157,15.8348622 C10.0624336,15.8348622 10.1861837,15.811659 10.3073557,15.7600965 C10.7791532,15.5590025 10.9957159,15.0124393 10.7946219,14.5406419 L10.4207934,13.6666565 C10.5625904,13.9605631 10.735325,14.2364228 10.936419,14.4865012 C11.6325135,15.3553304 12.5735303,15.832284 13.5893127,15.832284 C14.2157978,15.832284 14.8165016,15.649237 15.3450179,15.3063459 L15.5461118,15.5074399 C15.7265808,15.6879089 15.9637686,15.7781434 16.2035345,15.7781434 C16.4433004,15.7781434 16.67791,15.6879089 16.8609571,15.5074399 C17.2244732,15.1439239 17.2244732,14.5561107 16.8609571,14.1951728 L16.6134568,13.9476725 C17.0259573,13.2309529 17.2476763,12.3827488 17.2476763,11.4958728 C17.2476763,10.3743871 16.8918947,9.31219834 16.2447845,8.50524427 C15.54869,7.63641514 14.6076732,7.15946146 13.5918908,7.15946146 C12.5761084,7.15946146 11.6325135,7.63899326 10.9389971,8.50524427 C10.291887,9.31219834 9.93610531,10.3743871 9.93610531,11.4958728 C9.93610531,12.1172016 10.0443867,12.7179054 10.2532151,13.2696248 L7.87618104,7.72149336 C7.87360291,7.71891523 7.87360291,7.7163371 7.87102478,7.71118085 C7.86844666,7.70344646 7.8632904,7.69571208 7.86071227,7.6879777 C7.85813414,7.68024331 7.85555602,7.67508706 7.85039976,7.66735267 C7.84782163,7.65961829 7.84266538,7.65446203 7.84008725,7.64672765 C7.83750912,7.63899326 7.83235286,7.63383701 7.82977474,7.62610262 C7.82719661,7.62094637 7.82204035,7.61321198 7.81946222,7.60805573 C7.81430597,7.60032134 7.81172784,7.59258696 7.80657158,7.58485258 C7.80399346,7.57969632 7.7988372,7.57454006 7.79625907,7.56938381 L7.7807903,7.54618066 C7.77821218,7.5410244 7.77305592,7.53586814 7.77047779,7.53329002 C7.76532154,7.52555563 7.76016528,7.51782125 7.7524309,7.51008686 C7.74985277,7.50493061 7.74469651,7.50235248 7.74211838,7.49719622 C7.73696213,7.48946184 7.72922774,7.48172746 7.72407149,7.4765712 C7.71891523,7.47141494 7.7163371,7.46625869 7.71118085,7.46368056 C7.70602459,7.45594618 7.69829021,7.45078992 7.69313395,7.44305554 L7.67766518,7.42758677 C7.67250893,7.42243051 7.66735267,7.41727426 7.65961829,7.412118 C7.65446203,7.40696174 7.64672765,7.40180549 7.64157139,7.39664923 C7.63641514,7.39149298 7.63125888,7.38633672 7.62610262,7.38375859 C7.61836824,7.37860234 7.61321198,7.37344608 7.6054776,7.36828982 C7.60032134,7.36313357 7.59516509,7.36055544 7.59000883,7.35539918 C7.58227445,7.35024293 7.57711819,7.34508667 7.56938381,7.33993042 C7.56422755,7.33735229 7.5590713,7.33219603 7.55391504,7.3296179 C7.54618066,7.32446165 7.5410244,7.31930539 7.53329002,7.31414914 C7.52813376,7.31157101 7.5229775,7.30641475 7.51524312,7.30383662 C7.50750874,7.29868037 7.50235248,7.29610224 7.4946181,7.29094598 C7.48946184,7.28836786 7.48172746,7.2832116 7.47399307,7.28063347 C7.46883682,7.27805534 7.46110243,7.27289909 7.45594618,7.27032096 C7.44821179,7.2651647 7.44047741,7.26258658 7.43274302,7.26000845 C7.42758677,7.25743032 7.41985238,7.25485219 7.41469613,7.25227406 C7.40696174,7.24969594 7.39922736,7.24453968 7.39149298,7.24196155 C7.38891485,7.23938342 7.38633672,7.23938342 7.38375859,7.2368053 C7.38118046,7.23422717 7.37860234,7.23422717 7.37344608,7.23422717 C7.3657117,7.23164904 7.35797731,7.22649278 7.35024293,7.22391466 C7.34250854,7.22133653 7.33735229,7.2187584 7.3296179,7.21618027 C7.32188352,7.21360214 7.31414914,7.21102402 7.30899288,7.20844589 L7.28578973,7.2007115 C7.28063347,7.19813338 7.27289909,7.19813338 7.26774283,7.19555525 C7.26000845,7.19297712 7.24969594,7.19039899 7.24196155,7.18782086 C7.2368053,7.18782086 7.23164904,7.18524274 7.22649278,7.18524274 C7.21618027,7.18266461 7.20586776,7.18008648 7.19555525,7.18008648 C7.19039899,7.18008648 7.18782086,7.17750835 7.18266461,7.17750835 C7.1723521,7.17493022 7.16203958,7.17493022 7.15172707,7.1723521 C7.14657082,7.1723521 7.14399269,7.1723521 7.13883643,7.16977397 C7.12852392,7.16719584 7.11821141,7.16719584 7.1078989,7.16719584 L7.09243013,7.16719584 C7.08211762,7.16719584 7.0718051,7.16461771 7.06407072,7.16461771 L6.97641437,7.16461771 C6.96610186,7.16461771 6.95836747,7.16461771 6.94805496,7.16719584 C6.9428987,7.16719584 6.93774245,7.16719584 6.93000806,7.16977397 C6.91969555,7.16977397 6.90938304,7.1723521 6.90164866,7.1723521 C6.8964924,7.1723521 6.89133614,7.1723521 6.88617989,7.17493022 C6.87586738,7.17750835 6.86555486,7.17750835 6.85782048,7.18008648 C6.85266422,7.18008648 6.84750797,7.18266461 6.84235171,7.18266461 C6.8320392,7.18524274 6.82430482,7.18782086 6.8139923,7.18782086 C6.80883605,7.18782086 6.80367979,7.19039899 6.79594541,7.19297712 C6.78821102,7.19555525 6.77789851,7.19813338 6.77016413,7.2007115 C6.76242974,7.20328963 6.75727349,7.20328963 6.7495391,7.20586776 L6.72633595,7.21360214 L6.7031328,7.22133653 C6.69797654,7.22391466 6.69024216,7.22649278 6.6850859,7.22907091 C6.67735152,7.23164904 6.66961714,7.2368053 6.65930462,7.23938342 C6.6567265,7.23938342 6.65414837,7.24196155 6.65157024,7.24196155 C6.64899211,7.24196155 6.64641398,7.24453968 6.64383586,7.24453968 C6.63610147,7.24711781 6.62578896,7.25227406 6.61805458,7.25485219 C6.61289832,7.25743032 6.60774206,7.26000845 6.60000768,7.26258658 C6.5922733,7.2651647 6.58453891,7.27032096 6.57680453,7.27547722 C6.57164827,7.27805534 6.56391389,7.2832116 6.55875763,7.28578973 C6.55102325,7.28836786 6.54586699,7.29352411 6.53813261,7.29868037 C6.53039822,7.30383662 6.52524197,7.30641475 6.51750758,7.31157101 C6.51235133,7.31414914 6.50461694,7.31930539 6.49946069,7.32188352 C6.4917263,7.32703978 6.48657005,7.33219603 6.47883566,7.33477416 C6.47367941,7.33735229 6.46852315,7.34250854 6.4633669,7.34508667 C6.45563251,7.35024293 6.45047626,7.35539918 6.44274187,7.36055544 C6.43758562,7.3657117 6.43242936,7.36828982 6.4272731,7.37344608 C6.41953872,7.37860234 6.41438246,7.38375859 6.40664808,7.38891485 C6.40149182,7.3940711 6.39633557,7.39922736 6.39117931,7.40180549 C6.38602306,7.40696174 6.37828867,7.412118 6.37313242,7.41727426 C6.36797616,7.42243051 6.3628199,7.42758677 6.35508552,7.43274302 L6.33961675,7.44821179 L6.32156986,7.46625869 C6.3164136,7.47141494 6.31383547,7.4765712 6.30867922,7.47914933 C6.30352296,7.48688371 6.29578858,7.4946181 6.29063232,7.49977435 C6.28805419,7.50493061 6.28289794,7.50750874 6.28031981,7.51266499 C6.27516355,7.52039938 6.2700073,7.52813376 6.26227291,7.53586814 C6.25969478,7.5410244 6.25453853,7.54618066 6.2519604,7.54875878 L6.23649163,7.57196194 C6.2339135,7.57711819 6.22875725,7.58227445 6.22617912,7.5874307 C6.22102286,7.59516509 6.21844474,7.60289947 6.21328848,7.60805573 C6.21071035,7.61321198 6.2055541,7.62094637 6.20297597,7.62610262 C6.20039784,7.63383701 6.19524158,7.63899326 6.19266346,7.64672765 C6.19008533,7.65446203 6.18492907,7.65961829 6.18235094,7.66735267 C6.17977282,7.67250893 6.17719469,7.68024331 6.17203843,7.68539957 C6.1694603,7.69313395 6.16430405,7.70086834 6.16172592,7.70860272 C6.15914779,7.71118085 6.15914779,7.71375898 6.15656966,7.71891523 L3.24328502,14.54322 C3.04219104,15.0150175 3.25875379,15.5590025 3.73055122,15.7600965 L3.73055122,15.7600965 Z M12.3853269,9.66798 C12.7204836,9.24774514 13.1484528,9.01829174 13.5893127,9.01829174 C14.0301726,9.01829174 14.4581418,9.25032326 14.7932985,9.66798 C15.1774395,10.1475118 15.388846,10.7972001 15.388846,11.4984509 C15.388846,11.8697013 15.3295491,12.2280611 15.2161115,12.5554834 L14.5870482,11.9264201 C14.2235322,11.5629041 13.635719,11.5629041 13.2747811,11.9264201 C12.911265,12.2899362 12.911265,12.8777494 13.2747811,13.2386873 L13.9605631,13.9244693 C13.8393911,13.9605631 13.715641,13.9811881 13.5893127,13.9811881 C13.1484528,13.9811881 12.7204836,13.7491566 12.3853269,13.3314999 C12.0011858,12.8519681 11.7897793,12.2022798 11.7897793,11.501029 C11.7897793,10.7997782 12.0011858,10.1475118 12.3853269,9.66798 L12.3853269,9.66798 Z M6.33961675,12.0321234 L7.02024254,10.4465747 L7.70086834,12.0321234 L6.33961675,12.0321234 L6.33961675,12.0321234 Z M17.6653331,14.9093142 L17.6653331,8.08758754 C17.6653331,7.57454006 18.0804117,7.15946146 18.5934591,7.15946146 C19.1065066,7.15946146 19.5215852,7.57454006 19.5215852,8.08758754 L19.5215852,14.9067361 C19.5215852,15.4197836 19.1065066,15.8348622 18.5934591,15.8348622 C18.0804117,15.8348622 17.6653331,15.4197836 17.6653331,14.9093142 Z M21.7594003,0 L1.23750144,0 C0.55429752,0 0,0.55429752 0,1.23750144 L0,21.7594003 C0,22.4426042 0.55429752,22.9969018 1.23750144,22.9969018 L21.7594003,22.9969018 C22.4426042,22.9969018 22.9969018,22.4426042 22.9969018,21.7594003 L22.9969018,1.23750144 C22.9969018,0.55429752 22.4426042,0 21.7594003,0 Z M21.1406496,21.1406496 L1.85625216,21.1406496 L1.85625216,1.85625216 L21.1406496,1.85625216 L21.1406496,21.1406496 Z" id="Shape"></path>
            </g>
        </g>
    </g>
</svg>