<?xml version="1.0" encoding="UTF-8"?>
<svg width="9px" height="12px" viewBox="0 0 9 12" version="1.1" xmlns="http://www.w3.org/2000/svg" xmlns:xlink="http://www.w3.org/1999/xlink">
    <!-- Generator: Sketch 53 (72520) - https://sketchapp.com -->
    <title>形状结合复制 2</title>
    <desc>Created with Sketch.</desc>
    <g id="Page-1" stroke="none" stroke-width="1" fill="none" fill-rule="evenodd">
        <g id="实时监测-空气质量指数" transform="translate(-1693.000000, -971.000000)" fill="#999999" fill-rule="nonzero">
            <g id="编组-17" transform="translate(1422.000000, 961.000000)">
                <g id="编组-15" transform="translate(260.000000, 0.000000)">
                    <path d="M19.3333273,22 C19.1520216,22 18.9955493,21.9259949 18.8640066,21.7779847 L14.1973236,16.5279939 C14.065781,16.3799838 14,16.2040003 14,16.000005 C14,15.7959905 14.0657618,15.620007 14.1973236,15.4719968 L18.8640066,10.222006 C18.9955493,10.0750162 19.1520215,10.0010111 19.3333273,10.00001 C19.5146907,9.99900891 19.6711245,10.073014 19.8026864,10.222006 C19.9342291,10.370998 19.9999908,10.5470008 19.9999908,10.749995 L19.9999908,21.2499958 C20.0008935,21.4539911 19.9351318,21.6299938 19.8026864,21.778004 C19.6702218,21.9259949 19.513788,22 19.3333273,22 Z M11.5,10 C11.7761424,10 12,10.2238576 12,10.5 L12,21.5 C12,21.7761424 11.7761424,22 11.5,22 C11.2238576,22 11,21.7761424 11,21.5 L11,10.5 C11,10.2238576 11.2238576,10 11.5,10 Z" id="形状结合复制-2" transform="translate(15.500000, 16.000000) rotate(-180.000000) translate(-15.500000, -16.000000) "></path>
                </g>
            </g>
        </g>
    </g>
</svg>