<?xml version="1.0" encoding="UTF-8"?>
<svg width="22px" height="20px" viewBox="0 0 22 20" version="1.1" xmlns="http://www.w3.org/2000/svg" xmlns:xlink="http://www.w3.org/1999/xlink">
    <!-- Generator: Sketch 53 (72520) - https://sketchapp.com -->
    <title>系统</title>
    <desc>Created with Sketch.</desc>
    <g id="Page-1" stroke="none" stroke-width="1" fill="none" fill-rule="evenodd">
        <g id="b-单独导航-综合看板01复制" transform="translate(-1648.000000, -10.000000)" fill="#999999" fill-rule="nonzero">
            <g id="Group-4" transform="translate(1647.000000, 9.000000)">
                <g id="系统">
                    <g id="Group" transform="translate(0.339034, 0.350443)">
                        <g id="系统" transform="translate(0.660966, 0.649557)">
                            <path d="M20.1664398,0 L1.83326284,0 L1.83326282,2.2561648e-11 C0.821229522,0.0011431551 0.00108366199,0.866984068 6.58811285e-08,1.93540704 L6.58811285e-08,14.8385206 L0,14.8384546 C0.00104830725,15.9068755 0.821165046,16.7727476 1.83320024,16.7739276 L10.3876801,16.7739276 L10.3876801,18.7096306 L7.33334088,18.7096306 L7.33334088,18.7096306 C6.99582153,18.7172667 6.72807099,19.012317 6.7353038,19.368642 C6.74231865,19.7142172 7.00600392,19.9925942 7.33334088,20 L14.6666723,20 L14.6666723,20 C15.0041917,19.9923639 15.2719422,19.6973137 15.2647094,19.3409887 C15.2576945,18.9954134 14.9940093,18.7170365 14.6666723,18.7096306 L11.6111396,18.7096306 L11.6111396,16.7739276 L20.1667372,16.7739276 L20.1667372,16.7739276 C21.1787705,16.7727844 21.9989164,15.9069435 22,14.8385206 L22,1.93570697 L22,1.93571377 C21.9990754,0.8671768 21.178888,0.00115070819 20.1667448,4.73717478e-06 L20.1664398,0 Z M1.83326284,1.29036936 L20.166724,1.29036936 L20.166724,1.29036936 C20.5041486,1.29069628 20.7775634,1.57947804 20.7777187,1.93570303 L20.7777187,12.9031056 L1.22221882,12.9031056 L1.22221882,1.93570303 L1.22221882,1.93570522 C1.22252687,1.57971222 1.49572454,1.29115752 1.83292942,1.29066554 L1.83326284,1.29036936 Z M20.1664398,15.4829503 L1.83326284,15.4829503 L1.83326285,15.4829503 C1.49583822,15.482787 1.2222984,15.1941376 1.22198772,14.8379126 L1.22198772,14.1937649 L20.7774876,14.1937649 L20.7774876,14.8388026 L20.7774876,14.8388001 C20.7771795,15.1949091 20.5038114,15.4835118 20.1664966,15.4838398 L20.1664398,15.4829503 Z" id="Shape"></path>
                            <path d="M9.28602126,3.57236705 C9.62875464,3.57236705 9.85745147,3.80075231 9.85745147,4.14379539 L9.85745147,5.85746087 L8.14347167,5.85746087 C7.80073829,5.85746087 7.57204146,5.6290756 7.57204146,5.28603253 L7.57204146,3.57236705 L9.28602126,3.57236705 L9.28602126,3.57236705 Z M9.28602126,3.00093871 L7.00093042,3.00093871 L7.00093042,5.2860221 L7.00093042,5.28602325 C7.00229088,5.91698229 7.5134472,6.42813731 8.14440829,6.42949531 L10.4294991,6.42949531 L10.4294991,4.14347321 L10.4294991,4.14347206 C10.4281387,3.51251302 9.91698236,3.001358 9.28602126,3 L9.28602126,3.00093871 Z M14.4279607,3.57236705 L14.4279607,5.28634126 C14.4279607,5.62907352 14.1995747,5.8577696 13.8565305,5.8577696 L12.1425507,5.8577696 L12.1425507,4.14348666 C12.1425507,3.8007544 12.3709367,3.57205832 12.7139809,3.57205832 L14.4279607,3.57205832 L14.4279607,3.57236705 Z M14.9993909,3.00062998 L12.7139871,3.00062998 L12.7139872,3.00062998 C12.0830261,3.00198976 11.5718694,3.51314508 11.5705093,4.14410412 L11.5705093,6.42918751 L13.8556002,6.42918751 L13.8556001,6.42918751 C14.4865612,6.4278277 14.9977179,5.9166724 14.999078,5.28571337 L14.999078,3.00092202 L14.9993909,3.00062998 Z M9.85745147,8.1425526 L9.85745147,9.85652681 C9.85745147,10.1992591 9.62906546,10.4279552 9.28602126,10.4279552 L7.57204146,10.4279552 L7.57204146,8.71398094 C7.57204146,8.37124868 7.80042747,8.1425526 8.14347167,8.1425526 L9.85745147,8.1425526 L9.85745147,8.1425526 Z M10.4288817,7.57112426 L8.14347793,7.57112426 L8.14347788,7.57112426 C7.51251678,7.57248412 7.00136009,8.08363937 7,8.71459841 L7,10.9996818 L9.28509085,10.9996818 L9.2850908,10.9996818 C9.9160519,10.998322 10.4272086,10.4871667 10.4285687,9.85620765 L10.4285687,7.5714163 L10.4288817,7.57112426 Z M12.1425527,8.1425526 L13.8565326,8.1425526 C14.1992659,8.1425526 14.4279628,8.37093787 14.4279628,8.71398094 L14.4279628,10.4279552 L12.713983,10.4279552 C12.3712496,10.4279552 12.1425527,10.1995699 12.1425527,9.85652681 L12.1425527,8.1425526 L12.1425527,8.1425526 Z M11.5714313,9.85652681 L11.5714313,9.85652794 C11.5727917,10.487487 12.0839481,10.998642 12.7149092,11 L15,11 L15,8.7139779 L15,8.71397675 C14.9986395,8.08301771 14.4874832,7.57186269 13.8565221,7.57050469 L11.5714313,7.57050469 L11.5714313,9.85652679 L11.5714313,9.85652681 Z" id="Shape"></path>
                        </g>
                    </g>
                </g>
            </g>
        </g>
    </g>
</svg>