<?xml version="1.0" encoding="UTF-8"?>
<svg width="6px" height="12px" viewBox="0 0 6 12" version="1.1" xmlns="http://www.w3.org/2000/svg" xmlns:xlink="http://www.w3.org/1999/xlink">
    <!-- Generator: Sketch 53 (72520) - https://sketchapp.com -->
    <title>Shape复制 2</title>
    <desc>Created with Sketch.</desc>
    <g id="Page-1" stroke="none" stroke-width="1" fill="none" fill-rule="evenodd">
        <g id="实时监测-空气质量指数" transform="translate(-1653.000000, -971.000000)" fill="#999999" fill-rule="nonzero">
            <g id="编组-17" transform="translate(1422.000000, 961.000000)">
                <g id="编组-14" transform="translate(218.000000, 0.000000)">
                    <path d="M22,18.3333273 C22,18.513788 21.9259949,18.6702218 21.778004,18.8026864 C21.6299938,18.9351318 21.4539911,19.0008935 21.2499958,18.9999908 L10.749995,18.9999908 C10.5470008,18.9999908 10.370998,18.9342291 10.222006,18.8026864 C10.073014,18.6711245 9.99900891,18.5146907 10.00001,18.3333273 C10.0010111,18.1520215 10.0750162,17.9955493 10.222006,17.8640066 L15.4719968,13.1973236 C15.620007,13.0657618 15.7959905,13 16.000005,13 C16.2040003,13 16.3799838,13.065781 16.5279939,13.1973236 L21.7779847,17.8640066 C21.9259949,17.9955493 22,18.1520216 22,18.3333273 Z" id="Shape复制-2" transform="translate(16.000000, 16.000000) scale(1, -1) rotate(-270.000000) translate(-16.000000, -16.000000) "></path>
                </g>
            </g>
        </g>
    </g>
</svg>