<?xml version="1.0" encoding="UTF-8"?>
<svg width="16px" height="22px" viewBox="0 0 16 22" version="1.1" xmlns="http://www.w3.org/2000/svg" xmlns:xlink="http://www.w3.org/1999/xlink">
    <!-- Generator: Sketch 53 (72520) - https://sketchapp.com -->
    <title>坐标</title>
    <desc>Created with Sketch.</desc>
    <g id="Page-1" stroke="none" stroke-width="1" fill="none" fill-rule="evenodd">
        <g id="b-单独导航-综合看板01复制" transform="translate(-47.000000, -104.000000)" fill="#FFFFFF" fill-rule="nonzero">
            <g id="Group-3" transform="translate(40.000000, 100.000000)">
                <g id="编组-3">
                    <g id="坐标" transform="translate(7.000000, 4.000000)">
                        <path d="M8.00063536,0 C3.58303941,0 0,3.69398047 0,8.25 C0,12.807373 8.0006562,22 8.0006562,22 C8.0006562,22 16,12.807373 16,8.25 C15.9999792,3.69398047 12.4182521,0 8.00063536,0 Z M8.00063536,13.75 C5.05425206,13.75 2.6664271,11.2873535 2.6664271,8.25 C2.6664271,5.21264648 5.05425206,2.75 8.00063536,2.75 C10.9457063,2.75 13.3335312,5.21264648 13.3335312,8.25 C13.3335312,11.2873535 10.9457063,13.75 8.00063536,13.75 Z M8.00063536,5.5 C6.52808949,5.5 5.33287504,6.7313125 5.33287504,8.25 C5.33287504,9.7686875 6.52808949,11 8.00063536,11 C9.4731604,11 10.6657917,9.7686875 10.6657917,8.25 C10.6657917,6.7313125 9.47318124,5.5 8.00063536,5.5 Z" id="Shape"></path>
                    </g>
                </g>
            </g>
        </g>
    </g>
</svg>