<?xml version="1.0" encoding="UTF-8"?>
<svg width="16px" height="16px" viewBox="0 0 16 16" version="1.1" xmlns="http://www.w3.org/2000/svg" xmlns:xlink="http://www.w3.org/1999/xlink">
    <!-- Generator: Sketch 53 (72520) - https://sketchapp.com -->
    <title>file</title>
    <desc>Created with Sketch.</desc>
    <g id="Page-1" stroke="none" stroke-width="1" fill="none" fill-rule="evenodd">
        <g id="实时监测-空气质量指数" transform="translate(-1426.000000, -59.000000)" fill="#FFFFFF">
            <g id="Group-2" transform="translate(433.000000, 40.000000)">
                <g id="Group-6" transform="translate(993.000000, 17.000000)">
                    <path d="M15.3426854,18 C15.7114228,18 16,17.751938 16,17.4349699 L16,2.56503015 C16,2.24806202 15.7114228,2 15.3426854,2 L4.32865731,2 C4.28056112,2 4.21643287,2 4.16833667,2.01378122 C4.15230461,2.01378122 4.13627255,2.02756245 4.13627255,2.02756245 C4.08817635,2.04134367 4.05611222,2.05512489 4.00801603,2.06890612 C3.99198397,2.08268734 3.9759519,2.08268734 3.95991984,2.09646856 C3.91182365,2.12403101 3.86372745,2.15159345 3.83166333,2.19293712 L0.160320641,5.91386736 C0.112224449,5.95521102 0.0801603206,6.01033592 0.0480961924,6.06546081 C0.0320641283,6.07924203 0.0320641283,6.10680448 0.0320641283,6.1205857 C0.0160320641,6.16192937 0.0160320641,6.20327304 0,6.24461671 L0,6.27217916 L0,17.4211886 C-1.70872001e-15,17.751938 0.304609218,18 0.657314629,18 L15.3426854,18 Z M3.67134269,5.73471146 L2.06813627,5.73471146 L3.67134269,4.10852713 L3.67134269,5.73471146 Z M3.96697514,6.68561585 C4.33571262,6.68561585 4.62428977,6.43755383 4.62428977,6.1205857 L4.62428977,3.13006029 L14.9133523,3.13006029 L14.9133523,17.0261009 L1.0300071,17.0261009 L1.0300071,6.68561585 L3.96697514,6.68561585 Z M3.27054108,8.07751938 C2.90180361,8.07751938 2.61322645,8.3255814 2.61322645,8.64254953 C2.61322645,8.95951766 2.90180361,9.20757967 3.27054108,9.20757967 L12.7294589,9.20757967 C13.0981964,9.20757967 13.3867735,8.95951766 13.3867735,8.64254953 C13.3867735,8.3255814 13.0981964,8.07751938 12.7294589,8.07751938 L3.27054108,8.07751938 Z M3.27054108,11.5334743 C2.90180361,11.5334743 2.61322645,11.7815363 2.61322645,12.0985044 C2.61322645,12.4154726 2.90180361,12.6635346 3.27054108,12.6635346 L12.7294589,12.6635346 C13.0981964,12.6635346 13.3867735,12.4154726 13.3867735,12.0985044 C13.3867735,11.7953175 13.0981964,11.5334743 12.7294589,11.5334743 L3.27054108,11.5334743 Z" id="file"></path>
                </g>
            </g>
        </g>
    </g>
</svg>