<?xml version="1.0" encoding="UTF-8"?>
<svg width="12px" height="12px" viewBox="0 0 12 12" version="1.1" xmlns="http://www.w3.org/2000/svg" xmlns:xlink="http://www.w3.org/1999/xlink">
    <!-- Generator: Sketch 56.1 (81669) - https://sketch.com -->
    <title>关闭</title>
    <desc>Created with Sketch.</desc>
    <g id="页面1" stroke="none" stroke-width="1" fill="none" fill-rule="evenodd">
        <g id="b-gis-单独导航状态" transform="translate(-1093.000000, -334.000000)" fill="#999999" fill-rule="nonzero">
            <g id="编组-10复制-2" transform="translate(896.000000, 248.000000)">
                <g id="Group-36" transform="translate(1.000000, 78.000000)">
                    <g id="关闭" transform="translate(196.000000, 8.000000)">
                        <g id="Group">
                            <path d="M6,12 C2.68571429,12 0,9.31428571 0,6 C0,2.68571429 2.68571429,0 6,0 C9.31428571,0 12,2.68571429 12,6 C12,9.31428571 9.31428571,12 6,12 Z M6,0.571428571 C3.00952381,0.571428571 0.571428571,3.00952381 0.571428571,6 C0.571428571,8.99047619 3.00952381,11.4285714 6,11.4285714 C8.99047619,11.4285714 11.4285714,8.99047619 11.4285714,6 C11.4285714,3.00952381 8.99047619,0.571428571 6,0.571428571 Z" id="Shape"></path>
                            <path d="M6.43809524,6 L8.76190476,3.67619048 C8.87619048,3.56190476 8.87619048,3.37142857 8.76190476,3.23809524 L8.74285714,3.21904762 C8.62857143,3.1047619 8.43809524,3.1047619 8.32380952,3.21904762 L6,5.56190476 L3.67619048,3.23809524 C3.56190476,3.12380952 3.37142857,3.12380952 3.25714286,3.23809524 L3.23809524,3.25714286 C3.12380952,3.37142857 3.12380952,3.56190476 3.23809524,3.6952381 L5.56190476,6 L3.23809524,8.32380952 C3.12380952,8.43809524 3.12380952,8.62857143 3.23809524,8.76190476 L3.25714286,8.78095238 C3.37142857,8.8952381 3.56190476,8.8952381 3.67619048,8.78095238 L6,6.43809524 L8.32380952,8.76190476 C8.43809524,8.87619048 8.62857143,8.87619048 8.74285714,8.76190476 L8.76190476,8.74285714 C8.87619048,8.62857143 8.87619048,8.43809524 8.76190476,8.3047619 L6.43809524,6 Z" id="Path"></path>
                        </g>
                    </g>
                </g>
            </g>
        </g>
    </g>
</svg>