<?xml version="1.0" encoding="UTF-8"?>
<svg width="16px" height="14px" viewBox="0 0 16 14" version="1.1" xmlns="http://www.w3.org/2000/svg" xmlns:xlink="http://www.w3.org/1999/xlink">
    <!-- Generator: Sketch 56.1 (81669) - https://sketch.com -->
    <title>列表</title>
    <desc>Created with Sketch.</desc>
    <g id="页面1" stroke="none" stroke-width="1" fill="none" fill-rule="evenodd">
        <g id="b-gis-单独导航" transform="translate(-214.000000, -97.000000)" fill="#FFFFFF" fill-rule="nonzero">
            <g id="站点分类复制" transform="translate(20.000000, 90.000000)">
                <g id="Group-15">
                    <g id="Group-26复制">
                        <g id="列表" transform="translate(194.000000, 7.000000)">
                            <path d="M4.74074196,0.155566222 L15.6049543,0.155566222 L15.6049543,2.43705481 L4.74074196,2.43705481 L4.74074196,0.155566222 Z M0.395049403,0.155566222 L2.56789568,0.155566222 L2.56789568,2.43705481 L0.395049403,2.43705481 L0.395049403,0.155566222 Z M0.395049403,5.85926765 L2.56789568,5.85926765 L2.56789568,8.14075624 L0.395049403,8.14075624 L0.395049403,5.85926765 Z M0.395049403,11.5629691 L2.56789568,11.5629691 L2.56789568,13.8444577 L0.395049403,13.8444577 L0.395049403,11.5629691 Z M4.74074196,11.5629691 L15.6049543,11.5629691 L15.6049543,13.8444577 L4.74074196,13.8444577 L4.74074196,11.5629691 Z M4.74074196,5.85926765 L15.6049543,5.85926765 L15.6049543,8.14075624 L4.74074196,8.14075624 L4.74074196,5.85926765 Z" id="Shape"></path>
                        </g>
                    </g>
                </g>
            </g>
        </g>
    </g>
</svg>