<?xml version="1.0" encoding="UTF-8"?>
<svg width="18px" height="12px" viewBox="0 0 18 12" version="1.1" xmlns="http://www.w3.org/2000/svg" xmlns:xlink="http://www.w3.org/1999/xlink">
    <!-- Generator: Sketch 56.1 (81669) - https://sketch.com -->
    <title>区域2</title>
    <desc>Created with Sketch.</desc>
    <g id="页面1" stroke="none" stroke-width="1" fill="none" fill-rule="evenodd">
        <g id="b-gis-单独导航状态" transform="translate(-911.000000, -782.000000)" fill="#46C96F" fill-rule="nonzero">
            <g id="Group-35复制" transform="translate(896.000000, 485.000000)">
                <g id="编组-10复制">
                    <g id="Group-25" transform="translate(2.000000, 242.000000)">
                        <path d="M22,66.5 C26.6594755,66.5 30.5,64.0996722 30.5,61 C30.5,57.9003278 26.6594755,55.5 22,55.5 C17.3405245,55.5 13.5,57.9003278 13.5,61 C13.5,64.0996722 17.3405245,66.5 22,66.5 Z M22,65.5 C17.8229195,65.5 14.5,63.4231753 14.5,61 C14.5,58.5768247 17.8229195,56.5 22,56.5 C26.1770805,56.5 29.5,58.5768247 29.5,61 C29.5,63.4231753 26.1770805,65.5 22,65.5 Z" id="区域2"></path>
                    </g>
                </g>
            </g>
        </g>
    </g>
</svg>