<?xml version="1.0" encoding="UTF-8"?>
<svg width="16px" height="12px" viewBox="0 0 16 12" version="1.1" xmlns="http://www.w3.org/2000/svg" xmlns:xlink="http://www.w3.org/1999/xlink">
    <!-- Generator: Sketch 56.1 (81669) - https://sketch.com -->
    <title>标记2</title>
    <desc>Created with Sketch.</desc>
    <g id="页面1" stroke="none" stroke-width="1" fill="none" fill-rule="evenodd">
        <g id="b-gis-单独导航状态" transform="translate(-905.000000, -453.000000)" fill="#8B2293" fill-rule="nonzero">
            <g id="编组-10复制-2" transform="translate(896.000000, 248.000000)">
                <g id="Group-36" transform="translate(1.000000, 198.000000)">
                    <g id="标记2" transform="translate(8.000000, 7.000000)">
                        <path d="M1.33266661,4.30724864 C1.84707664,4.30724864 2.26553308,4.6983638 2.26553308,5.17915985 C2.26553308,5.65995736 1.84707508,6.05107106 1.33266661,6.05107106 C0.818256577,6.05107106 0.399800139,5.6599559 0.399800139,5.17915985 C0.399800139,4.69836234 0.818258138,4.30724864 1.33266661,4.30724864 L1.33266661,4.30724864 Z M1.33266661,3.9335722 C0.597034354,3.9335722 0,4.4915952 0,5.17915985 C0,5.8667245 0.597034354,6.4247475 1.33266661,6.4247475 C2.06829887,6.4247475 2.66533322,5.8667245 2.66533322,5.17915985 C2.66533322,4.48910354 2.06829887,3.9335722 1.33266661,3.9335722 Z M1.37485801,6.47706804 L1.37485801,9.32697856 L1.37485801,6.47706804 L1.37485801,6.47706804 Z M1.73246675,6.1033916 L0.93286647,6.1033916 L0.93286647,9.700655 L1.73246675,9.700655 L1.73246675,6.1033916 Z M1.33266661,9.88250114 C1.84707664,9.88250114 2.26553308,10.2736163 2.26553308,10.7544124 C2.26553308,11.2352099 1.84707508,11.6263236 1.33266661,11.6263236 C0.818256577,11.6263236 0.399800139,11.2352084 0.399800139,10.7544124 C0.399800139,10.2736148 0.818258138,9.88250114 1.33266661,9.88250114 L1.33266661,9.88250114 Z M1.33266661,9.5088247 C0.597034354,9.5088247 0,10.0668477 0,10.7544124 C0,11.441977 0.597034354,12 1.33266661,12 C2.06829887,12 2.66533322,11.441977 2.66533322,10.7544124 C2.66533322,10.0668477 2.06829887,9.5088247 1.33266661,9.5088247 Z M9.90970705,0.373676441 C10.4241171,0.373676441 10.8425735,0.764791602 10.8425735,1.24558765 C10.8425735,1.72638516 10.4241155,2.11749886 9.90970705,2.11749886 C9.39529702,2.11749886 8.97684058,1.7263837 8.97684058,1.24558765 C8.97684058,0.764790143 9.39529858,0.373676441 9.90970705,0.373676441 L9.90970705,0.373676441 Z M9.90970705,0 C9.1740748,0 8.57704044,0.558022999 8.57704044,1.24558765 C8.57704044,1.9331523 9.1740748,2.4911753 9.90970705,2.4911753 C10.6453393,2.4911753 11.2423737,1.9331523 11.2423737,1.24558765 C11.2423737,0.558022999 10.6453393,0 9.90970705,0 Z M7.44960874,7.03009458 C7.96401877,7.03009458 8.38247521,7.42120974 8.38247521,7.90200579 C8.38247521,8.38280329 7.96401721,8.773917 7.44960874,8.773917 C6.9351987,8.773917 6.51674227,8.38280183 6.51674227,7.90200579 C6.51674227,7.42120828 6.93520026,7.03009458 7.44960874,7.03009458 L7.44960874,7.03009458 Z M7.44960874,6.65641814 C6.71397648,6.65641814 6.11694213,7.21444113 6.11694213,7.90200579 C6.11694213,8.58957044 6.71397648,9.14759344 7.44960874,9.14759344 C8.18524099,9.14759344 8.78227534,8.58957044 8.78227534,7.90200579 C8.78227534,7.21444113 8.18524099,6.65641814 7.44960874,6.65641814 Z M9.50725199,2.0826185 L7.50558076,6.76354358 L8.24920901,7.04006415 L10.2508802,2.36163511 L9.50725199,2.0826185 L9.50725199,2.0826185 Z M6.86057507,2.47622386 L2.42546407,4.26489329 L6.86057507,2.47622386 L6.86057507,2.47622386 Z M8.7769452,1.29540631 L1.90038281,4.07058154 L2.21755706,4.75565453 L9.09411945,1.9804793 L8.7769452,1.29540631 L8.7769452,1.29540631 Z M13.5372374,10.3857134 L2.46277354,10.3857134 L2.46277354,11.1330663 L13.5372374,11.1330663 L13.5372374,10.3857134 Z M9.95235761,8.53477429 L13.6118563,9.77787174 L9.95235761,8.53477429 L9.95235761,8.53477429 Z M8.62235529,7.68528367 L8.35049119,8.38779538 L13.8490706,10.2561776 L14.1209347,9.55366587 L8.62235529,7.68528367 L8.62235529,7.68528367 Z M14.6673334,9.88250114 C15.1817434,9.88250114 15.6001999,10.2736163 15.6001999,10.7544124 C15.6001999,11.2352099 15.1817419,11.6263236 14.6673334,11.6263236 C14.1529234,11.6263236 13.7344669,11.2352084 13.7344669,10.7544124 C13.7344669,10.2736148 14.1529249,9.88250114 14.6673334,9.88250114 L14.6673334,9.88250114 Z M14.6673334,9.5088247 C13.9317011,9.5088247 13.3346668,10.0668477 13.3346668,10.7544124 C13.3346668,11.441977 13.9317011,12 14.6673334,12 C15.4029656,12 16,11.441977 16,10.7544124 C16,10.0668477 15.4029656,9.5088247 14.6673334,9.5088247 Z" id="Shape"></path>
                    </g>
                </g>
            </g>
        </g>
    </g>
</svg>