<?xml version="1.0" encoding="UTF-8"?>
<svg width="11px" height="11px" viewBox="0 0 11 11" version="1.1" xmlns="http://www.w3.org/2000/svg" xmlns:xlink="http://www.w3.org/1999/xlink">
    <!-- Generator: Sketch 56.1 (81669) - https://sketch.com -->
    <title>卫星</title>
    <desc>Created with Sketch.</desc>
    <g id="页面1" stroke="none" stroke-width="1" fill="none" fill-rule="evenodd">
        <g id="b-gis-单独导航" transform="translate(-1236.000000, -824.000000)" fill="#0066B5" fill-rule="nonzero">
            <g id="Group-3复制-2" transform="translate(1228.000000, 744.000000)">
                <g id="Group-50" transform="translate(1.000000, 73.000000)">
                    <g id="卫星" transform="translate(7.000000, 7.000000)">
                        <g transform="translate(0.000000, -0.000000)" id="Path">
                            <path d="M10.8268155,1.79055242 L9.20824597,0.17070283 L9.20824597,0.170702831 C9.00075268,-0.0484826857 8.65500406,-0.057826784 8.43599176,0.149829634 C8.42885304,0.156598238 8.42189823,0.163558546 8.41513505,0.170702831 L6.05609602,2.52554727 L6.05609603,2.52554726 C5.83708373,2.73320464 5.82774701,3.07922671 6.03523933,3.29841223 C6.04200259,3.30555659 6.04895739,3.3125169 6.05609603,3.31928543 L6.69745439,3.9611394 L6.37778511,4.2810615 L6.17546706,4.07858345 L6.17546703,4.07858342 C5.88774882,3.79360391 5.49782202,3.63604956 5.09305051,3.64121921 C4.58319743,3.22614259 3.92362223,3.16944873 3.5473039,3.54606314 C3.17098556,3.92267909 3.22763462,4.58478571 3.64239638,5.09300901 L3.64239636,5.09300972 C3.63488547,5.49536744 3.79117727,5.88348636 4.07536375,6.1681948 L4.27768179,6.37067285 L3.96206564,6.69868246 L3.32070729,6.05682848 L3.32070731,6.0568285 C3.11321209,5.83764686 2.76746153,5.82830663 2.54845309,6.03596711 C2.54131854,6.04273198 2.5343677,6.04968832 2.52760819,6.0568285 L0.170561874,8.41573895 L0.170561924,8.41573891 C-0.0484465121,8.62339823 -0.0577793569,8.96942223 0.149716829,9.18860388 C0.156476351,9.19574408 0.163427192,9.20270042 0.17056173,9.20946526 L1.78913123,10.8293032 L1.78913118,10.8293032 C1.9966264,11.0484848 2.34237695,11.0578251 2.56138539,10.8501648 C2.56851995,10.8433999 2.57547079,10.8364436 2.58223029,10.8293034 L4.94332007,8.47242593 L4.94332007,8.47242593 C5.16233238,8.26476854 5.17166909,7.91874647 4.96417678,7.69956096 C4.95741352,7.69241659 4.95045871,7.68545629 4.94332007,7.67868776 L4.39704298,7.13200186 L4.71671226,6.81207976 L5.43293651,7.52887046 L5.43293663,7.52887019 C5.86311422,6.59505671 6.61208856,5.84548616 7.5451699,5.41496641 L6.82894564,4.69817571 L7.14861492,4.37825361 L7.69489202,4.92495113 L7.69489197,4.92495108 C7.90238719,5.14413272 8.24813775,5.15347295 8.46714618,4.94581266 C8.47428074,4.93904779 8.48123158,4.93209145 8.48799108,4.92495127 L10.8470301,2.56404653 L10.8470301,2.56404653 C11.0555043,2.34889605 11.0502304,2.00534845 10.8352509,1.79670941 C10.8331255,1.79464668 10.8309832,1.79260139 10.8288244,1.79057377 L10.8268155,1.79055242 Z"></path>
                            <path d="M9.90687947,5.40882898 L9.90687949,5.408829 C9.86701581,5.37012499 9.82186897,5.33732309 9.77279867,5.31141134 L9.77279867,5.31141134 C9.76254687,5.31141134 9.75423616,5.30306104 9.75423616,5.29276042 C9.75423616,5.29276042 9.75423616,5.29276042 9.75423616,5.29276042 C9.71503941,5.2741095 9.69647703,5.25337698 9.65728028,5.2347262 L9.63664611,5.2347262 C8.69392434,4.71240633 7.23341209,5.07927432 6.15661996,6.16121643 C5.07981797,7.24315893 4.71261623,8.71267275 5.23452152,9.65781733 C5.25308404,9.69720077 5.27371827,9.71586345 5.29228065,9.75523499 L5.29228065,9.75523566 C5.29227452,9.76553628 5.30058026,9.77389156 5.31083206,9.77389772 C5.31083598,9.77389772 5.3108399,9.77389773 5.31084383,9.77389773 C5.35004058,9.83193195 5.38716553,9.87131538 5.4077997,9.90861715 C5.82036487,10.1801379 6.71565002,9.83193195 7.67693771,9.05882342 L7.19629091,8.67330345 C6.61868784,9.13757721 6.16485432,9.38837835 6.02252081,9.27230793 C5.84924325,9.09819338 6.43508598,8.23595879 7.31180915,7.3405598 C8.18853233,6.4451628 9.06111111,5.87102815 9.23438848,6.0451427 C9.34990673,6.16121114 9.13743261,6.56745068 8.73517772,7.08147995 L9.12092961,7.57063741 C9.84911748,6.65243778 10.1750489,5.79434156 9.90687661,5.40881762 L9.90687947,5.40882898 Z"></path>
                            <path d="M8.09095152,7.48364358 L8.0909515,7.48364357 C7.98899532,7.40359688 7.96987755,7.25428944 8.0482508,7.1501558 C8.05676039,7.13884924 8.06624842,7.12834731 8.0766004,7.11877708 L8.12125514,7.07316887 L8.12125514,7.07316887 C8.21557011,6.97612108 8.36905607,6.97553823 8.4640753,7.07186699 C8.46910777,7.07696883 8.47391863,7.08229374 8.47849405,7.08782636 L8.88039584,7.58952606 L8.88039585,7.58952607 C8.97130311,7.71258492 8.96531442,7.88387748 8.86604478,8 L9,7.86318455 L9,7.86318454 C8.89021349,7.97422024 8.71536322,7.98059318 8.59810736,7.87783272 L8.09095152,7.48364358 Z"></path>
                            <path d="M8.51496717,8 L8.51496715,8 C8.24409277,8.00518917 8.02131106,8.21931463 8.00006183,8.49490217 L8.00006182,8.49490271 C7.99581872,8.76949598 8.21053911,8.99560721 8.47965214,8.9999382 C8.49142868,9.00012766 8.50320808,8.99988144 8.51496714,8.99920002 L8.51496713,8.99920002 C8.78284328,8.99920004 9,8.77762188 9,8.50429112 C9,8.23096059 8.7828435,8.00938222 8.51496713,8.00938222 C8.51496713,8.00938222 8.51496712,8.00938222 8.51496712,8.00938222"></path>
                            <path d="M9.42100236,8 L9.42100235,8 C9.42169956,8.38214164 9.26833021,8.74661492 8.9990883,9.0026507 L8.99908831,9.00265069 C8.73355923,9.27902138 8.37315543,9.43036092 8,9.42218832 L8,9.99953585 L8,9.99953585 C9.07412912,10.0233019 9.96618665,9.1314599 10,8 L9.42100235,8"></path>
                            <path d="M10.4253903,8.00761772 C10.4253903,9.34010606 9.33777113,10.4289437 8,10.4289437 L8,11 C9.64955106,11 11,9.65799725 11,8 L10.4253764,8"></path>
                        </g>
                    </g>
                </g>
            </g>
        </g>
    </g>
</svg>