<?xml version="1.0" encoding="UTF-8"?>
<svg width="13px" height="12px" viewBox="0 0 13 12" version="1.1" xmlns="http://www.w3.org/2000/svg" xmlns:xlink="http://www.w3.org/1999/xlink">
    <!-- Generator: Sketch 56.1 (81669) - https://sketch.com -->
    <title>国控</title>
    <desc>Created with Sketch.</desc>
    <g id="页面1" stroke="none" stroke-width="1" fill="none" fill-rule="evenodd">
        <g id="b-gis-单独导航" transform="translate(-1119.000000, -825.000000)" fill="#666666" fill-rule="nonzero">
            <g id="Group-54复制-2" transform="translate(1108.000000, 746.000000)">
                <g id="编组-10" transform="translate(10.000000, 77.000000)">
                    <path d="M7.03465887,12.4946443 L4.88508276,13.6247433 C4.39623817,13.8817442 3.79161102,13.6937976 3.53461021,13.2049531 C3.43227114,13.0102926 3.39695647,12.7873245 3.43413331,12.5705669 L3.84466582,10.1769787 C3.90030375,9.85258462 3.79275527,9.52158442 3.55706918,9.29184727 L1.81802558,7.59669871 C1.422542,7.21119749 1.41444969,6.57808423 1.79995091,6.18260065 C1.95345951,6.02511702 2.15460192,5.92262984 2.37223895,5.89100533 L4.77553811,5.54178552 C5.10124827,5.49445706 5.38281386,5.28988769 5.52847587,4.99474422 L6.60326392,2.81698575 C6.84768622,2.32173209 7.44731205,2.11839309 7.94256571,2.36281539 C8.13977832,2.46014562 8.29940584,2.61977315 8.39673608,2.81698575 L9.47152413,4.99474422 C9.61718614,5.28988769 9.89875173,5.49445706 10.2244619,5.54178552 L12.627761,5.89100533 C13.1743059,5.97042295 13.5529874,6.4778658 13.4735697,7.02441066 C13.4419452,7.24204769 13.3394581,7.4431901 13.1819744,7.59669871 L11.4429308,9.29184727 C11.2072447,9.52158442 11.0996962,9.85258462 11.1553342,10.1769787 L11.5658667,12.5705669 C11.6592277,13.1149033 11.2936399,13.6318592 10.7493034,13.7252202 C10.5325458,13.7623971 10.3095777,13.7270824 10.1149172,13.6247433 L7.96534113,12.4946443 C7.6740171,12.3414862 7.3259829,12.3414862 7.03465887,12.4946443 Z M8.43068225,11.6095129 L10.5802584,12.7396119 L10.1697259,10.3460237 C10.05845,9.69723561 10.273547,9.03523521 10.7449191,8.5757609 L12.4839627,6.88061234 L10.0806636,6.53139253 C9.42924325,6.43673562 8.86611208,6.02759687 8.57478806,5.43730993 L7.5,3.25955146 L6.42521194,5.43730993 C6.13388792,6.02759687 5.57075675,6.43673562 4.91933642,6.53139253 L2.51603727,6.88061234 L4.25508087,8.5757609 C4.72645305,9.03523521 4.94155002,9.69723561 4.83027414,10.3460237 L4.41974163,12.7396119 L6.56931775,11.6095129 C7.15196579,11.3031967 7.84803421,11.3031967 8.43068225,11.6095129 Z" id="国控"></path>
                </g>
            </g>
        </g>
    </g>
</svg>