<?xml version="1.0" encoding="UTF-8"?>
<svg width="16px" height="16px" viewBox="0 0 16 16" version="1.1" xmlns="http://www.w3.org/2000/svg" xmlns:xlink="http://www.w3.org/1999/xlink">
    <!-- Generator: Sketch 53 (72520) - https://sketchapp.com -->
    <title>形状结合</title>
    <desc>Created with Sketch.</desc>
    <g id="Page-1" stroke="none" stroke-width="1" fill="none" fill-rule="evenodd">
        <g id="实时监测-站点信息-基本信息" transform="translate(-21.000000, -605.000000)" fill="#666666" fill-rule="nonzero">
            <g id="编组-23复制" transform="translate(0.000000, 137.000000)">
                <path d="M28,473 L28,483 L36,483 L36,469 L28,469 L28,473 Z M28,484 L21.875,484 C21.3917508,484 21,483.552285 21,483 L21,475 C21,473.895431 21.8954305,473 23,473 L27,473 L27,468.888889 C27,468.397969 27.4070139,468 27.9090909,468 L36.0909091,468 C36.5929861,468 37,468.397969 37,468.888889 L37,483.111111 C37,483.602031 36.5929861,484 36.0909091,484 L28,484 Z M27,474 L23,474 C22.4477153,474 22,474.447715 22,475 L22,483 L27,483 L27,474 Z M30.5,472 L33.5,472 C33.7761424,472 34,472.223858 34,472.5 C34,472.776142 33.7761424,473 33.5,473 L30.5,473 C30.2238576,473 30,472.776142 30,472.5 C30,472.223858 30.2238576,472 30.5,472 Z M30.5,475 L33.5,475 C33.7761424,475 34,475.223858 34,475.5 C34,475.776142 33.7761424,476 33.5,476 L30.5,476 C30.2238576,476 30,475.776142 30,475.5 C30,475.223858 30.2238576,475 30.5,475 Z M30.5,478 L33.5,478 C33.7761424,478 34,478.223858 34,478.5 C34,478.776142 33.7761424,479 33.5,479 L30.5,479 C30.2238576,479 30,478.776142 30,478.5 C30,478.223858 30.2238576,478 30.5,478 Z" id="形状结合"></path>
            </g>
        </g>
    </g>
</svg>