<?xml version="1.0" encoding="UTF-8"?>
<svg width="12px" height="12px" viewBox="0 0 12 12" version="1.1" xmlns="http://www.w3.org/2000/svg" xmlns:xlink="http://www.w3.org/1999/xlink">
    <!-- Generator: Sketch 56.1 (81669) - https://sketch.com -->
    <title>定位</title>
    <desc>Created with Sketch.</desc>
    <g id="页面1" stroke="none" stroke-width="1" fill="none" fill-rule="evenodd">
        <g id="b-gis-单独导航" transform="translate(-1236.000000, -751.000000)" fill="#0066B5" fill-rule="nonzero">
            <g id="Group-3复制-2" transform="translate(1228.000000, 744.000000)">
                <g id="Group-25复制-4" transform="translate(1.000000, 0.000000)">
                    <path d="M8.10001812,14 L7,14 L7,12 L8.10001812,12 C8.49770059,10.0408696 10.0408696,8.49770059 12,8.10001812 L12,7 L14,7 L14,8.10001812 C15.9591304,8.49770059 17.5022994,10.0408696 17.8999819,12 L19,12 L19,14 L17.8999819,14 C17.5022994,15.9591304 15.9591304,17.5022994 14,17.8999819 L14,19 L12,19 L12,17.8999819 C10.0408696,17.5022994 8.49770059,15.9591304 8.10001812,14 Z M13,17 C15.209139,17 17,15.209139 17,13 C17,10.790861 15.209139,9 13,9 C10.790861,9 9,10.790861 9,13 C9,15.209139 10.790861,17 13,17 Z M13,15 C11.8954305,15 11,14.1045695 11,13 C11,11.8954305 11.8954305,11 13,11 C14.1045695,11 15,11.8954305 15,13 C15,14.1045695 14.1045695,15 13,15 Z" id="定位"></path>
                </g>
            </g>
        </g>
    </g>
</svg>