<?xml version="1.0" encoding="UTF-8"?>
<svg width="17px" height="18px" viewBox="0 0 17 18" version="1.1" xmlns="http://www.w3.org/2000/svg" xmlns:xlink="http://www.w3.org/1999/xlink">
    <!-- Generator: Sketch 53 (72520) - https://sketchapp.com -->
    <title>形状结合</title>
    <desc>Created with Sketch.</desc>
    <g id="Page-1" stroke="none" stroke-width="1" fill="none" fill-rule="evenodd">
        <g id="实时监测-站点信息-基本信息" transform="translate(-21.000000, -361.000000)" fill="#666666" fill-rule="nonzero">
            <g id="编组-23复制" transform="translate(0.000000, 137.000000)">
                <path d="M35.0625,233.278674 L35.0625,225.837037 C35.0625,225.313389 34.642767,224.888889 34.125,224.888889 L22.875,224.888889 C22.357233,224.888889 21.9375,225.313389 21.9375,225.837037 L21.9375,238.162963 C21.9375,238.686611 22.357233,239.111111 22.875,239.111111 L29.2969956,239.111111 C29.1051342,238.610901 29,238.067728 29,237.5 C29,235.014719 31.0147186,233 33.5,233 C34.0493879,233 34.5757814,233.098451 35.0625,233.278674 Z M29.7577745,240 L22.875,240 C21.8394661,240 21,239.157242 21,238.117647 L21,225.882353 C21,224.842758 21.8394661,224 22.875,224 L34.125,224 C35.1605339,224 36,224.842758 36,225.882353 L36,233.757775 C37.2059857,234.565036 38,235.939792 38,237.5 C38,239.985281 35.9852814,242 33.5,242 C31.9397919,242 30.5650359,241.205986 29.7577745,240 Z M24.5,228 L31.5,228 C31.7761424,228 32,228.223858 32,228.5 C32,228.776142 31.7761424,229 31.5,229 L24.5,229 C24.2238576,229 24,228.776142 24,228.5 C24,228.223858 24.2238576,228 24.5,228 Z M24.5,232 L28.5,232 C28.7761424,232 29,232.223858 29,232.5 C29,232.776142 28.7761424,233 28.5,233 L24.5,233 C24.2238576,233 24,232.776142 24,232.5 C24,232.223858 24.2238576,232 24.5,232 Z M33.2653789,238.941647 C33.1074885,238.857594 33,238.69135 33,238.5 L33,235.5 C33,235.223858 33.2238576,235 33.5,235 C33.7761424,235 34,235.223858 34,235.5 L34,238.301782 C34.0212326,238.317165 34.0415287,238.334422 34.0606602,238.353553 L34.767767,239.06066 C34.9630291,239.255922 34.9630291,239.572505 34.767767,239.767767 C34.5725048,239.963029 34.2559223,239.963029 34.0606602,239.767767 L33.3535534,239.06066 C33.3175079,239.024615 33.2881164,238.984435 33.2653789,238.941647 Z M33.5,241 C35.4329966,241 37,239.432997 37,237.5 C37,235.567003 35.4329966,234 33.5,234 C31.5670034,234 30,235.567003 30,237.5 C30,239.432997 31.5670034,241 33.5,241 Z" id="形状结合"></path>
            </g>
        </g>
    </g>
</svg>