<?xml version="1.0" encoding="UTF-8"?>
<svg width="24px" height="26px" viewBox="0 0 24 26" version="1.1" xmlns="http://www.w3.org/2000/svg" xmlns:xlink="http://www.w3.org/1999/xlink">
    <!-- Generator: Sketch 53 (72520) - https://sketchapp.com -->
    <title>建筑</title>
    <desc>Created with Sketch.</desc>
    <g id="Page-1" stroke="none" stroke-width="1" fill="none" fill-rule="evenodd">
        <g id="实时监测-站点信息-站点设备" transform="translate(-118.000000, -161.000000)" fill="#0091DA" fill-rule="nonzero">
            <g id="编组-23复制" transform="translate(0.000000, 137.000000)">
                <g id="建筑" transform="translate(118.000000, 24.000000)">
                    <path d="M21.5897436,24.461981 L24,24.461981 L24,26 L17.1105769,26 L17.1105769,1.89082041 L6.77564103,5.31803402 L6.77564103,4.25475238 L18.1442308,0 L21.5897436,2.95410205 L21.5897436,24.4636068 L21.5897436,24.461981 Z M3.21634615,17.8449225 L3.21634615,15.4809905 L8.61378205,14.0632816 L8.61378205,16.7816408 L3.21634615,17.8449225 Z M3.21634615,26 L3.21634615,23.5173837 L8.61378205,23.1629565 L8.61378205,26 L3.21634615,26 L3.21634615,26 Z M3.21634615,21.863932 L3.21634615,19.5 L8.61378205,18.5537769 L8.61378205,21.2721361 L3.21634615,21.863932 Z M3.21634615,13.7088544 L3.21634615,11.2278639 L8.61378205,9.45572786 L8.61378205,12.2911456 L3.21634615,13.7088544 Z M14.5849359,6.61868434 L14.5849359,25.9983742 L10.1057692,25.9983742 L10.1057692,6.85442721 L1.49358974,9.69147074 L1.49358974,25.9983742 L0,25.9983742 L0,8.86393197 L11.4839744,4.72948974 L14.5849359,6.62031016 L14.5849359,6.61868434 Z" id="形状"></path>
                </g>
            </g>
        </g>
    </g>
</svg>