<?xml version="1.0" encoding="UTF-8"?>
<svg width="16px" height="16px" viewBox="0 0 16 16" version="1.1" xmlns="http://www.w3.org/2000/svg" xmlns:xlink="http://www.w3.org/1999/xlink">
    <!-- Generator: Sketch 56.1 (81669) - https://sketch.com -->
    <title>截图</title>
    <desc>Created with Sketch.</desc>
    <g id="页面1" stroke="none" stroke-width="1" fill="none" fill-rule="evenodd">
        <g id="b-gis-单独导航" transform="translate(-1233.000000, -504.000000)" fill="#999999" fill-rule="nonzero">
            <g id="Group-28复制-2" transform="translate(1220.000000, 386.000000)">
                <g id="Group-34">
                    <g id="Group-33" transform="translate(9.000000, 118.000000)">
                        <g id="Group-30">
                            <g id="截图" transform="translate(4.000000, 0.000000)">
                                <path d="M11.2406868,1.18823823 C11.4747897,0.827815792 11.6676179,0.563286851 11.819029,0.394577185 C11.9704407,0.226008738 12.0876332,0.112617678 12.1701823,0.0544760796 C12.2528731,-0.00366551922 12.3663973,-0.0152373908 12.5111054,0.0196192467 C12.6556733,0.0544760796 12.769196,0.141688478 12.8518878,0.281257418 C12.9345785,0.420825577 12.9690095,0.615571123 12.9552514,0.865636446 C12.9414931,1.11563145 12.8932333,1.47323149 12.8105425,1.93836428 C12.769197,2.17100099 12.6728891,2.43256884 12.5214075,2.72334716 L12.5214078,2.72334662 C12.3677797,3.01766612 12.2023828,3.30569039 12.0256147,3.58672211 C11.8466159,3.87164466 11.6710748,4.13617556 11.4989199,4.38038316 C11.3267649,4.62459272 11.1924279,4.810731 11.0961192,4.93858509 L11.0961202,4.93858396 C10.9390391,5.11987297 10.7807123,5.30007872 10.621151,5.4791893 L10.0014638,6.17688849 L10.0014549,6.17689819 C9.74476065,6.45395706 9.49013672,6.73292813 9.23760454,7.01378602 L9.2376038,7.013785 C9.38336892,7.21572876 9.53486557,7.41347114 9.69190938,7.60677384 L9.69190994,7.60677457 C9.8131855,7.76598121 9.93364936,7.9258043 10.0532994,8.0862362 C10.1702801,8.24323278 10.2633421,8.36819571 10.3320635,8.46119258 C10.5524068,8.76354374 10.8726584,9.0601075 11.2926736,9.35074517 C11.7126888,9.64152348 12.1292471,9.8741602 12.5422781,10.0485147 C12.7490045,10.1416541 13.051899,10.2405091 13.4512428,10.3450784 C13.8505865,10.4497898 14.2430847,10.6096796 14.628669,10.8248174 C15.0143958,11.0399552 15.3482624,11.3365209 15.630626,11.71437 C15.9128471,12.0923617 16.0334267,12.6010299 15.9920818,13.2406578 C15.9644947,13.7523613 15.8268413,14.1914576 15.5789805,14.5577358 C15.3311201,14.924014 15.0213117,15.2205075 14.6493444,15.4472884 C14.2775177,15.673999 13.8609594,15.8309952 13.3995973,15.9182067 C12.9383778,16.0054191 12.4838593,16.022918 12.036327,15.9705624 C11.5887948,15.9182067 11.1652503,15.793174 10.7659085,15.595606 C10.3665647,15.3978265 10.0429988,15.1245452 9.79506808,14.7757659 C9.54713737,14.4501304 9.37850981,14.1273876 9.28890414,13.8076098 C9.19944006,13.4877597 9.15470793,13.1651595 9.15470793,12.8394536 C9.15470793,12.5137478 9.18568174,12.1823268 9.24769986,11.845259 C9.30957697,11.50791 9.37505226,11.1648459 9.44391478,10.8160666 C9.48511905,10.6182871 9.50233454,10.4526811 9.49542022,10.3188287 C9.4885058,10.1851171 9.46783306,10.0688337 9.4334021,9.9700494 C9.39911214,9.87126513 9.3543095,9.78687494 9.29920589,9.71716167 L9.13396536,9.50780933 C9.07886175,9.43795464 8.996312,9.33620675 8.88603466,9.20256545 L8.88603485,9.20256568 C8.77732057,9.07051255 8.66715436,8.93966182 8.55555302,8.81003811 L8.55555317,8.81003827 C8.41176731,8.65227818 8.26717404,8.4952568 8.12177844,8.33897745 L7.79129661,8.72275458 L7.79129693,8.72275425 C7.67382891,8.84719996 7.56013738,8.97515758 7.45037975,9.1064552 L7.45038191,9.10645263 C7.33767708,9.24090198 7.22412265,9.37463801 7.1097284,9.50765057 C6.87562555,9.7751445 6.74827257,9.99317501 6.7276011,10.161744 C6.70692846,10.3304535 6.73105832,10.530915 6.79977918,10.7635517 C6.84112467,10.8798349 6.89277112,11.0920799 6.95464803,11.4002165 C7.01666616,11.7083532 7.0373388,12.0631308 7.01666616,12.4642643 C6.99599352,12.8653997 6.91344376,13.2869971 6.76887608,13.7288455 C6.62416718,14.1708345 6.35916142,14.5894689 5.97350684,14.9848892 C5.64302501,15.3220956 5.26435467,15.5720906 4.83742551,15.7348742 C4.41049439,15.8977978 3.98017858,15.9848692 3.54633354,15.9965827 C3.11262911,16.0081546 2.68569995,15.950013 2.26568472,15.8220872 C1.84566948,15.6941614 1.47038579,15.5139506 1.13990396,15.2813139 C0.809351826,15.0488178 0.540890271,14.7638249 0.334302508,14.4266185 C0.127716699,14.0894101 0.0175801776,13.7172762 0.0037503695,13.3103553 C-0.0237662807,12.6939414 0.100128956,12.1852713 0.375647404,11.7839249 C0.651024839,11.3827192 0.988490906,11.0541909 1.38783467,10.7984105 C1.78717843,10.54263 2.20373671,10.3419558 2.63758175,10.1966028 C3.07135648,10.0513193 3.43972429,9.93214225 3.74261877,9.83914538 C4.03189632,9.74614695 4.27629975,9.65597092 4.47604194,9.56875872 C4.67578414,9.48154632 4.84786867,9.39426322 4.99236584,9.30705023 C5.13700423,9.21983783 5.25751301,9.12966181 5.35382168,9.03666357 L5.35382441,9.03666094 C5.45676088,8.93740965 5.56007819,8.83855331 5.66377343,8.74009718 C5.77391035,8.63552688 5.90133325,8.4929949 6.04590074,8.31271434 C6.19046862,8.13257402 6.33856495,7.94939917 6.49004636,7.76333317 L6.49004581,7.76333387 C6.66617166,7.5396312 6.83830658,7.3128151 7.00636971,7.08299298 L7.0063697,7.08299297 C6.87835501,6.93512634 6.7474978,6.78974578 6.61386955,6.64693 C6.48997431,6.50729133 6.33510546,6.34168612 6.14919308,6.14976239 C5.9631387,5.95783847 5.76000927,5.74559361 5.53966592,5.51309753 C5.31932256,5.26888797 5.09220395,4.9810727 4.8581011,4.64965172 C4.62399825,4.31823074 4.40704155,3.98970248 4.20736967,3.66413726 C4.00769778,3.33850173 3.83215629,3.03615057 3.68060456,2.75708574 C3.52919287,2.47802091 3.42590055,2.27445402 3.37072585,2.14659797 C3.31569274,2.0186722 3.26051843,1.85292694 3.20548533,1.64943037 C3.15038171,1.44593379 3.11595055,1.24526158 3.10219242,1.04769304 C3.08843413,0.849913555 3.10219242,0.666808634 3.1434672,0.498239601 C3.18481268,0.329530131 3.26750345,0.210354014 3.39139791,0.140639567 C3.51536365,0.0824979685 3.6221141,0.0563200882 3.7115772,0.062176633 C3.80104127,0.0680331388 3.88034558,0.0970334659 3.9490667,0.14931852 C4.01799915,0.201674281 4.08340392,0.271387751 4.14528162,0.358670856 C4.20729975,0.445883254 4.28653336,0.54763115 4.38284144,0.663914738 C4.42418692,0.722056337 4.51026434,0.835517322 4.64107467,1.00408616 C4.77188423,1.17272512 4.93027996,1.37614981 5.1161943,1.61457392 C5.30210747,1.85292577 5.50523553,2.11752698 5.72558084,2.40823497 L6.38647223,3.28035896 C6.90985068,3.96655756 7.49510879,4.73404151 8.14238326,5.58295534 L8.14237362,5.58296931 C8.5903512,4.93350107 9.04463725,4.28840414 9.50516342,3.64777423 L10.0423014,2.88029028 C10.2213002,2.62450983 10.3899977,2.38608572 10.5483247,2.16509217 L10.5483257,2.16509081 C10.6874886,1.97140918 10.8251581,1.77665914 10.9613235,1.58085827 C11.0787981,1.41236033 11.1716494,1.2814721 11.2405817,1.18840297 L11.2406868,1.18823823 Z M4.0114379,12 C3.44752643,12 2.97136636,12.145763 2.58280426,12.4370809 C2.19424215,12.7285367 2,13.0799774 2,13.4914703 C2,13.902825 2.19424237,14.2571068 2.58280426,14.5542502 C2.97136636,14.8513937 3.44752643,15 4.0114379,15 C4.55996845,15 5.02847804,14.8513939 5.41719574,14.5542502 C5.80575785,14.2571068 6,13.902754 6,13.4914703 C6,13.0799774 5.80575763,12.7285367 5.41719574,12.4370809 C5.02847587,12.1457634 4.55996845,12 4.0114379,12 Z M13.0113599,12 C12.4629072,12 11.9904946,12.1457677 11.5942043,12.4370923 C11.1980695,12.7285548 11,13.0800036 11,13.491506 C11,13.697119 11.053401,13.8914964 11.1599689,14.0742947 C11.2666928,14.2571615 11.4114383,14.4172127 11.5942825,14.5543104 C11.7772825,14.6915471 11.990575,14.8000052 12.2343918,14.8800305 C12.478053,14.9600564 12.7370951,15 13.0114381,15 C13.5600486,15 14.0286337,14.8513905 14.4171958,14.55424 C14.8057579,14.2570897 15,13.9027287 15,13.4914356 C15,13.0799332 14.8057577,12.7284844 14.4171958,12.4370219 C14.0285559,12.1457667 13.5599686,12 13.0113603,12 L13.0113599,12 Z" id="Shape"></path>
                            </g>
                        </g>
                    </g>
                </g>
            </g>
        </g>
    </g>
</svg>