<?xml version="1.0" encoding="UTF-8"?>
<svg width="16px" height="16px" viewBox="0 0 16 16" version="1.1" xmlns="http://www.w3.org/2000/svg" xmlns:xlink="http://www.w3.org/1999/xlink">
    <!-- Generator: Sketch 53 (72520) - https://sketchapp.com -->
    <title>shield</title>
    <desc>Created with Sketch.</desc>
    <g id="Page-1" stroke="none" stroke-width="1" fill="none" fill-rule="evenodd">
        <g id="实时监测-空气质量指数" transform="translate(-858.000000, -59.000000)" fill="#FFFFFF">
            <g id="Group-2" transform="translate(433.000000, 40.000000)">
                <g id="Group-10" transform="translate(425.000000, 17.000000)">
                    <path d="M15.4454073,5.74762316 C15.4176776,5.74762316 11.9514731,5.66464996 8.41594454,2.16594641 C8.305026,2.05531547 8.16637782,2 8.01386482,2 L7.95840555,2 C7.80589255,2 7.66724437,2.05531547 7.55632582,2.16594641 C4.04852686,5.66464996 0.582322357,5.74762316 0.554592721,5.74762316 C0.249566724,5.74762316 0,5.99654278 0,6.31460674 L0,9.96542783 C0,10.0345722 0.013864818,10.1037165 0.0415944541,10.1728608 C0.13864818,10.4217805 2.5372617,16.326707 7.80589255,17.9723423 C7.86135182,17.9861711 7.91681109,18 7.97227036,18 L8.02772964,18 C8.08318891,18 8.13864818,17.9861711 8.19410745,17.9723423 C13.4627383,16.326707 15.8613518,10.4217805 15.9584055,10.1728608 C15.9861352,10.1037165 16,10.0345722 16,9.96542783 L16,6.31460674 C16,6.01037165 15.7504333,5.76145203 15.4454073,5.74762316 L15.4454073,5.74762316 Z M14.8769497,9.85479689 C14.5580589,10.5877269 12.3258232,15.4140017 8,16.852204 C3.67417678,15.4140017 1.44194107,10.5877269 1.12305026,9.84096802 L1.12305026,6.82627485 C2.28769497,6.6741573 5.0745234,6.03802939 8,3.31374244 C10.9254766,6.03802939 13.712305,6.6741573 14.8769497,6.82627485 L14.8769497,9.85479689 L14.8769497,9.85479689 Z" id="shield"></path>
                </g>
            </g>
        </g>
    </g>
</svg>