<?xml version="1.0" encoding="UTF-8"?>
<svg width="18px" height="18px" viewBox="0 0 18 18" version="1.1" xmlns="http://www.w3.org/2000/svg" xmlns:xlink="http://www.w3.org/1999/xlink">
    <!-- Generator: Sketch 53 (72520) - https://sketchapp.com -->
    <title>形状结合</title>
    <desc>Created with Sketch.</desc>
    <g id="Page-1" stroke="none" stroke-width="1" fill="none" fill-rule="evenodd">
        <g id="实时监测-站点信息-基本信息" transform="translate(-20.000000, -457.000000)" fill="#666666">
            <g id="编组-23复制" transform="translate(0.000000, 137.000000)">
                <path d="M20,337 L38,337 L38,338 L20,338 L20,337 Z M28.5,322 L28.5,320 L29.5,320 L29.5,322 L28.5,322 Z M25.2071068,322.914214 L23.7928932,321.5 L24.5,320.792893 L25.9142136,322.207107 L25.2071068,322.914214 Z M32.0857864,322.207107 L33.5,320.792893 L34.2071068,321.5 L32.7928932,322.914214 L32.0857864,322.207107 Z M29,323 C33.418278,323 37,326.357864 37,330.5 L37,336 L21,336 L21,330.5 C21,326.357864 24.581722,323 29,323 Z M36,335 L36,330.5 C36,326.910149 32.8659932,324 29,324 C25.1340068,324 22,326.910149 22,330.5 L22,335 L36,335 Z M25,335 L25,330 L26,330 L26,335 L25,335 Z" id="形状结合"></path>
            </g>
        </g>
    </g>
</svg>