<?xml version="1.0" encoding="UTF-8"?>
<svg width="16px" height="16px" viewBox="0 0 16 16" version="1.1" xmlns="http://www.w3.org/2000/svg" xmlns:xlink="http://www.w3.org/1999/xlink">
    <!-- Generator: Sketch 53 (72520) - https://sketchapp.com -->
    <title>calendar</title>
    <desc>Created with Sketch.</desc>
    <g id="Page-1" stroke="none" stroke-width="1" fill="none" fill-rule="evenodd">
        <g id="实时监测-空气质量指数" transform="translate(-1000.000000, -59.000000)" fill="#FFFFFF">
            <g id="Group-2" transform="translate(433.000000, 40.000000)">
                <g id="Group-9" transform="translate(567.000000, 17.000000)">
                    <path d="M0.565030146,18 L15.4349699,18 C15.751938,18 16,17.7315937 16,17.38863 L16,3.74464119 C16,3.40167754 15.751938,3.1332712 15.4349699,3.1332712 L12.6373816,3.1332712 L12.6373816,2.61136999 C12.6373816,2.26840634 12.3893196,2 12.0723514,2 C11.7553833,2 11.5073213,2.26840634 11.5073213,2.61136999 L11.5073213,3.1332712 L4.58914729,3.1332712 L4.58914729,2.61136999 C4.58914729,2.26840634 4.34108527,2 4.02411714,2 C3.70714901,2 3.45908699,2.26840634 3.45908699,2.61136999 L3.45908699,3.1332712 L0.565030146,3.1332712 C0.248062016,3.1332712 0,3.40167754 0,3.74464119 L0,17.4035415 C0,17.7315937 0.261843239,18 0.565030146,18 L0.565030146,18 Z M1.13006029,4.35601118 L3.45908699,4.35601118 L3.45908699,4.68406337 C3.45908699,5.02702703 3.70714901,5.29543336 4.02411714,5.29543336 C4.34108527,5.29543336 4.58914729,5.02702703 4.58914729,4.68406337 L4.58914729,4.35601118 L11.5073213,4.35601118 L11.5073213,4.68406337 C11.5073213,5.02702703 11.7553833,5.29543336 12.0723514,5.29543336 C12.3893196,5.29543336 12.6373816,5.02702703 12.6373816,4.68406337 L12.6373816,4.35601118 L14.8837209,4.35601118 L14.8837209,5.93662628 L1.13006029,5.93662628 L1.13006029,4.35601118 L1.13006029,4.35601118 Z M1.13006029,7.15936626 L14.8699397,7.15936626 L14.8699397,16.7921715 L1.13006029,16.7921715 L1.13006029,7.15936626 Z M12.0723514,9.96272134 L3.9414298,9.96272134 C3.62446167,9.96272134 3.37639966,10.2311277 3.37639966,10.5740913 C3.37639966,10.917055 3.62446167,11.1854613 3.9414298,11.1854613 L12.0723514,11.1854613 C12.3893196,11.1854613 12.6373816,10.917055 12.6373816,10.5740913 C12.6373816,10.2311277 12.3893196,9.96272134 12.0723514,9.96272134 Z M8.00689061,12.9151911 L3.9414298,12.9151911 C3.62446167,12.9151911 3.37639966,13.1835974 3.37639966,13.526561 C3.37639966,13.8695247 3.62446167,14.137931 3.9414298,14.137931 L8.00689061,14.137931 C8.32385874,14.137931 8.57192076,13.8695247 8.57192076,13.526561 C8.57192076,13.1835974 8.32385874,12.9151911 8.00689061,12.9151911 Z" id="calendar"></path>
                </g>
            </g>
        </g>
    </g>
</svg>