<?xml version="1.0" encoding="UTF-8"?>
<svg width="10px" height="10px" viewBox="0 0 10 10" version="1.1" xmlns="http://www.w3.org/2000/svg" xmlns:xlink="http://www.w3.org/1999/xlink">
    <!-- Generator: Sketch 56.1 (81669) - https://sketch.com -->
    <title>形状结合</title>
    <desc>Created with Sketch.</desc>
    <g id="页面1" stroke="none" stroke-width="1" fill="none" fill-rule="evenodd">
        <g id="b-gis-单独导航状态" transform="translate(-1242.000000, -927.000000)" fill="#0066B5" fill-rule="nonzero">
            <g id="Group-3复制" transform="translate(1234.000000, 883.000000)">
                <g id="Group-50" transform="translate(0.000000, 36.000000)">
                    <path d="M12.1666667,12.1666667 L12.1666667,8.71505887 C12.1666667,8.32175363 12.541577,8 12.9999336,8 C13.4582901,8 13.8333333,8.32162504 13.8333333,8.71505887 L13.8333333,12.1666667 L17.2849411,12.1666667 C17.6782464,12.1666667 18,12.541577 18,12.9999336 C18,13.4582901 17.678375,13.8333333 17.2849411,13.8333333 L13.8333333,13.8333333 L13.8333333,17.2849411 C13.8333333,17.6781321 13.4581573,18 12.9999336,18 C12.5417099,18 12.1666667,17.6782464 12.1666667,17.2849411 L12.1666667,13.8333333 L8.71505887,13.8333333 C8.32186793,13.8333333 8,13.4581573 8,12.9999336 C8,12.5417099 8.32175363,12.1666667 8.71505887,12.1666667 L12.1666667,12.1666667 Z" id="形状结合"></path>
                </g>
            </g>
        </g>
    </g>
</svg>