<?xml version="1.0" encoding="UTF-8"?>
<svg width="16px" height="16px" viewBox="0 0 16 16" version="1.1" xmlns="http://www.w3.org/2000/svg" xmlns:xlink="http://www.w3.org/1999/xlink">
    <!-- Generator: Sketch 53 (72520) - https://sketchapp.com -->
    <title>presentation</title>
    <desc>Created with Sketch.</desc>
    <g id="Page-1" stroke="none" stroke-width="1" fill="none" fill-rule="evenodd">
        <g id="实时监测-空气质量指数" transform="translate(-717.000000, -59.000000)" fill="#FFFFFF">
            <g id="Group-2" transform="translate(433.000000, 40.000000)">
                <g id="Group-11" transform="translate(284.000000, 17.000000)">
                    <path d="M0.565517241,6.03789836 L1.46206897,6.03789836 L1.46206897,12.5977606 C1.46206897,12.9147287 1.71034483,13.1627907 2.02758621,13.1627907 L4.09655172,13.1627907 L1.54482759,17.1317829 C1.37931034,17.3936262 1.44827586,17.7381568 1.71034483,17.9035314 C1.80689655,17.9586563 1.90344828,17.9862188 2.0137931,17.9862188 C2.19310345,17.9862188 2.3862069,17.8897502 2.48275862,17.7243755 L5.42068966,13.1490095 L10.5517241,13.1490095 L13.4896552,17.7381568 C13.6,17.9035314 13.7793103,18 13.9586207,18 C14.0689655,18 14.1655172,17.9724376 14.262069,17.9173127 C14.5241379,17.751938 14.6068966,17.4074074 14.4275862,17.1455642 L11.8896552,13.1627907 L13.9724138,13.1627907 C14.2896552,13.1627907 14.537931,12.9147287 14.537931,12.5977606 L14.537931,6.03789836 L15.4344828,6.03789836 C15.7517241,6.03789836 16,5.78983635 16,5.47286822 L16,2.56503015 C16,2.24806202 15.7517241,2 15.4344828,2 L0.565517241,2 C0.248275862,2 0,2.24806202 0,2.56503015 L0,5.47286822 C0,5.78983635 0.248275862,6.03789836 0.565517241,6.03789836 L0.565517241,6.03789836 Z M13.4068966,12.0465116 L11.0206897,12.0465116 C10.8965517,12.005168 10.7724138,12.005168 10.6482759,12.0465116 L5.15862069,12.0465116 L5.10344828,12.0465116 L2.59310345,12.0465116 L2.59310345,6.03789836 L13.4206897,6.03789836 L13.4206897,12.0465116 L13.4068966,12.0465116 Z M1.10344828,3.13006029 L14.8551724,3.13006029 L14.8551724,4.90783807 L13.9586207,4.90783807 L2.0137931,4.90783807 L1.11724138,4.90783807 L1.11724138,3.13006029 L1.10344828,3.13006029 Z M4.26206897,10.9440138 C4.11034483,10.9440138 3.97241379,10.8888889 3.84827586,10.7924203 C3.62758621,10.5719208 3.62758621,10.213609 3.84827586,9.99310939 L4.97931034,8.8630491 C5.11724138,8.71145564 5.32413793,8.65633075 5.51724138,8.71145564 L7.33793103,9.18001723 L8.99310345,7.22308355 C9.2,6.98880276 9.55862069,6.94745909 9.79310345,7.15417743 C10.0275862,7.36089578 10.0689655,7.71920758 9.86206897,7.95348837 L7.9862069,10.1860465 C7.83448276,10.3514212 7.6137931,10.4203273 7.40689655,10.3652024 L5.55862069,9.8828596 L4.66206897,10.7786391 C4.55172414,10.8888889 4.4,10.9440138 4.26206897,10.9440138 Z" id="presentation"></path>
                </g>
            </g>
        </g>
    </g>
</svg>