<?xml version="1.0" encoding="UTF-8"?>
<svg width="16px" height="16px" viewBox="0 0 16 16" version="1.1" xmlns="http://www.w3.org/2000/svg" xmlns:xlink="http://www.w3.org/1999/xlink">
    <!-- Generator: Sketch 53 (72520) - https://sketchapp.com -->
    <title>形状结合复制</title>
    <desc>Created with Sketch.</desc>
    <g id="Page-1" stroke="none" stroke-width="1" fill="none" fill-rule="evenodd">
        <g id="实时监测-空气质量指数" transform="translate(-367.000000, -145.000000)" fill="#E0E0E0">
            <g id="编组-2" transform="translate(20.000000, 137.000000)">
                <path d="M353.4,19.7647059 L356.6,19.7647059 L356.6,17.8823529 L353.4,17.8823529 L353.4,19.7647059 Z M353.4,20.7058824 L353.4,22.1176471 L356.6,22.1176471 L356.6,20.7058824 L353.4,20.7058824 Z M361.222222,19.7647059 L361.222222,17.8823529 L357.666667,17.8823529 L357.666667,19.7647059 L361.222222,19.7647059 Z M361.222222,20.7058824 L357.666667,20.7058824 L357.666667,22.1176471 L361.222222,22.1176471 L361.222222,20.7058824 Z M348.777778,19.7647059 L352.333333,19.7647059 L352.333333,17.8823529 L348.777778,17.8823529 L348.777778,19.7647059 Z M348.777778,20.7058824 L348.777778,22.1176471 L352.333333,22.1176471 L352.333333,20.7058824 L348.777778,20.7058824 Z M353.4,16.9411765 L356.6,16.9411765 L356.6,14.5882353 L353.4,14.5882353 L353.4,16.9411765 Z M361.222222,16.9411765 L361.222222,14.5882353 L357.666667,14.5882353 L357.666667,16.9411765 L361.222222,16.9411765 Z M348.777778,16.9411765 L352.333333,16.9411765 L352.333333,14.5882353 L348.777778,14.5882353 L348.777778,16.9411765 Z M356.777778,9.88235294 L356.777778,11.7058824 C356.777778,12.2581671 357.225493,12.7058824 357.777778,12.7058824 L360.222222,12.7058824 C360.774507,12.7058824 361.222222,12.2581671 361.222222,11.7058824 L361.222222,9.89455934 C362.222211,10.0051025 363,10.8528966 363,11.8823529 L363,22 C363,23.1045695 362.104569,24 361,24 L349,24 C347.895431,24 347,23.1045695 347,22 L347,11.8823529 C347,10.8528966 347.777789,10.0051025 348.777778,9.89455934 L348.777778,11.7058824 C348.777778,12.2581671 349.225493,12.7058824 349.777778,12.7058824 L352.222222,12.7058824 C352.774507,12.7058824 353.222222,12.2581671 353.222222,11.7058824 L353.222222,9.88235294 L356.777778,9.88235294 Z M350.133333,8 L351.333333,8 C351.885618,8 352.333333,8.44771525 352.333333,9 L352.333333,10.7647059 C352.333333,11.3169906 351.885618,11.7647059 351.333333,11.7647059 L350.133333,11.7647059 C349.581049,11.7647059 349.133333,11.3169906 349.133333,10.7647059 L349.133333,9 C349.133333,8.44771525 349.581049,8 350.133333,8 Z M358.666667,8 L359.866667,8 C360.418951,8 360.866667,8.44771525 360.866667,9 L360.866667,10.7647059 C360.866667,11.3169906 360.418951,11.7647059 359.866667,11.7647059 L358.666667,11.7647059 C358.114382,11.7647059 357.666667,11.3169906 357.666667,10.7647059 L357.666667,9 C357.666667,8.44771525 358.114382,8 358.666667,8 Z" id="形状结合复制"></path>
            </g>
        </g>
    </g>
</svg>