<?xml version="1.0" encoding="UTF-8"?>
<svg width="8px" height="16px" viewBox="0 0 8 16" version="1.1" xmlns="http://www.w3.org/2000/svg" xmlns:xlink="http://www.w3.org/1999/xlink">
    <!-- Generator: Sketch 56.1 (81669) - https://sketch.com -->
    <title>标注</title>
    <desc>Created with Sketch.</desc>
    <g id="页面1" stroke="none" stroke-width="1" fill="none" fill-rule="evenodd">
        <g id="b-gis-单独导航" transform="translate(-1236.000000, -396.000000)" fill="#999999" fill-rule="nonzero">
            <g id="Group-28复制-2" transform="translate(1220.000000, 386.000000)">
                <g id="Group-34">
                    <g id="Group-32" transform="translate(8.000000, 10.000000)">
                        <g id="标注" transform="translate(8.000000, 0.000000)">
                            <path d="M8,3.81842184 C8,1.69291457 6.20927197,0 4.03048089,0 C1.77962325,0 -3.39756001e-13,1.69293022 -3.39756001e-13,3.81842184 C-3.39756001e-13,5.70894377 1.38599887,7.29505962 3.18780407,7.61548707 L3.18780407,14.4779696 C2.25641246,14.5847788 1.58558929,14.8678225 1.58558929,15.2042713 C1.58558929,15.6528697 2.65003684,16 4.00832168,16 C5.30007368,16 6.40332867,15.6582112 6.40332867,15.2042713 C6.40332867,14.8678225 5.7325055,14.5847777 4.82328934,14.4779696 L4.82328934,7.61548707 C6.63063799,7.29505962 8,5.70894377 8,3.81842184 L8,3.81842184 Z M2.99086713,4 C2.46118632,4 2,3.55760349 2,3 C2,2.4654371 2.45662056,2 2.99086713,2 C3.52511371,2 4,2.46082925 4,3 C3.99543379,3.55299564 3.52054795,4 2.99086713,4 Z" id="Shape"></path>
                        </g>
                    </g>
                </g>
            </g>
        </g>
    </g>
</svg>