<?xml version="1.0" encoding="UTF-8"?>
<svg width="20px" height="24px" viewBox="0 0 20 24" version="1.1" xmlns="http://www.w3.org/2000/svg" xmlns:xlink="http://www.w3.org/1999/xlink">
    <!-- Generator: Sketch 53 (72520) - https://sketchapp.com -->
    <title>污染物</title>
    <desc>Created with Sketch.</desc>
    <g id="Page-1" stroke="none" stroke-width="1" fill="none" fill-rule="evenodd">
        <g id="b-单独导航-综合看板01复制" transform="translate(-990.000000, -156.000000)" fill="#999999" fill-rule="nonzero">
            <g id="污染物" transform="translate(990.000000, 156.000000)">
                <path d="M14.0960709,1.10000128 C14.0960709,1.70789672 14.6026504,2.20000256 15.2105459,2.20000256 C15.832915,2.20000256 16.3250208,1.70789672 16.3250208,1.10000128 C16.3250208,0.492105836 15.8184413,0 15.2105459,0 C14.5881767,0 14.0960709,0.492105836 14.0960709,1.10000128 Z M17.9460754,8.32237811 C17.9460754,8.84343134 18.3658127,9.26316867 18.9013396,9.26316867 C19.4223929,9.26316867 19.8566039,8.84343134 19.8566039,8.32237811 C19.8566039,7.80132487 19.4368666,7.38158754 18.9013396,7.38158754 C18.3658127,7.38158754 17.9460754,7.80132487 17.9460754,8.32237811 Z M4.54342818,3.66184637 C4.54342818,4.86316355 5.52763985,5.83290152 6.74343074,5.83290152 C7.95922163,5.83290152 8.9434333,4.86316355 8.9434333,3.66184637 C8.9434333,2.46052918 7.95922163,1.49079121 6.74343074,1.49079121 C5.52763985,1.49079121 4.54342818,2.46052918 4.54342818,3.66184637 Z M0.273686366,10.5513281 C0.273686366,11.5355397 1.08421363,12.346067 2.082899,12.346067 C3.08158437,12.346067 3.89211163,11.5500134 3.89211163,10.5513281 C3.89211163,9.5671164 3.08158437,8.75658914 2.082899,8.75658914 C1.08421363,8.75658914 0.273686366,9.55264269 0.273686366,10.5513281 Z M0.157896758,19.5539701 C0.157896758,21.5513409 1.79342498,23.1579217 3.81974312,23.1579217 C5.84606127,23.1579217 7.48158949,21.5368672 7.48158949,19.5539701 C7.48158949,17.5565994 5.84606127,15.9500186 3.81974312,15.9500186 C1.79342498,15.9500186 0.157896758,17.5565994 0.157896758,19.5539701 Z M15.543441,19.1052854 C15.543441,20.1039708 16.3684419,20.9289717 17.381601,20.9289717 C18.3947601,20.9289717 19.219761,20.1184445 19.219761,19.1052854 C19.219761,18.1066 18.3947601,17.2815991 17.381601,17.2815991 C16.3684419,17.2960728 15.543441,18.1066 15.543441,19.1052854 Z M5.35395544,11.5934345 C5.35395544,14.7631751 7.95922163,17.3250202 11.1579096,17.3250202 C14.3710712,17.3250202 16.9618637,14.7631751 16.9618637,11.5934345 C16.9618637,8.42369401 14.3565975,5.86184893 11.1579096,5.86184893 C7.94474792,5.86184893 5.35395544,8.42369401 5.35395544,11.5934345 Z" id="Shape"></path>
            </g>
        </g>
    </g>
</svg>