<?xml version="1.0" encoding="UTF-8"?>
<svg width="15px" height="15px" viewBox="0 0 15 15" version="1.1" xmlns="http://www.w3.org/2000/svg" xmlns:xlink="http://www.w3.org/1999/xlink">
    <!-- Generator: Sketch 56.1 (81669) - https://sketch.com -->
    <title>测量</title>
    <desc>Created with Sketch.</desc>
    <g id="页面1" stroke="none" stroke-width="1" fill="none" fill-rule="evenodd">
        <g id="b-gis-单独导航" transform="translate(-1231.000000, -449.000000)" fill="#999999" fill-rule="nonzero">
            <g id="Group-28复制-2" transform="translate(1220.000000, 386.000000)">
                <g id="Group-31" transform="translate(7.000000, 63.000000)">
                    <g id="测量" transform="translate(4.000000, 0.000000)">
                        <path d="M10.4393477,0.151859188 L14.8478785,4.56056402 L14.8478785,4.56056403 C15.0507072,4.76346017 15.0507072,5.09235562 14.8478785,5.29525176 L5.29560511,14.8478667 L5.29560511,14.8478667 C5.09271406,15.0507111 4.76381714,15.0507111 4.56092609,14.8478667 L0.152380069,10.4391619 L0.152380056,10.4391619 C-0.0506342942,10.2363647 -0.0508169555,9.90738398 0.151974333,9.70436302 C0.152109508,9.70422769 0.152244759,9.70409243 0.152380082,9.70395725 L9.70415114,0.152392643 L9.70415115,0.15239264 C9.90693717,-0.0506328896 10.2359071,-0.0508216458 10.4389261,0.151971654 C10.4390665,0.152111905 10.4392068,0.152252235 10.439347,0.152392647 L10.4393477,0.151859188 Z M8.66650095,2 L8,2.66651476 L9.33301572,4 L10,3.33348524 L8.66650095,2 Z M5.66650555,5 L5,5.66651476 L6.33349445,7 L7,6.33348524 L5.66650555,5 Z M2.66651476,8 L2,8.66681854 L3.33349905,10 L4,9.33318146 L2.66651476,8.00045561 L2.66651476,8 Z M7.79987736,4 L7,4.79989393 L10.1995426,8 L11,7.20012264 L7.79987736,4 L7.79987736,4 Z M4.79988067,7.00058005 L4,7.79989393 L7.20011933,11 L8,10.1995592 L4.79988067,7 L4.79988067,7.00058005 Z" id="Shape"></path>
                    </g>
                </g>
            </g>
        </g>
    </g>
</svg>