<?xml version="1.0" encoding="UTF-8"?>
<svg width="14px" height="16px" viewBox="0 0 14 16" version="1.1" xmlns="http://www.w3.org/2000/svg" xmlns:xlink="http://www.w3.org/1999/xlink">
    <!-- Generator: Sketch 56.1 (81669) - https://sketch.com -->
    <title>标记1</title>
    <desc>Created with Sketch.</desc>
    <g id="页面1" stroke="none" stroke-width="1" fill="none" fill-rule="evenodd">
        <g id="b-gis-单独导航状态" transform="translate(-906.000000, -332.000000)" fill="#46C96F" fill-rule="nonzero">
            <g id="编组-10复制-2" transform="translate(896.000000, 248.000000)">
                <g id="Group-36" transform="translate(1.000000, 78.000000)">
                    <path d="M17,16 L17,21 C17,21.5522847 16.5522847,22 16,22 C15.4477153,22 15,21.5522847 15,21 L15,16 L9,16 C9,13.6212549 10.1865159,11.5196354 12,10.2546893 L12,7 C12,6.44771525 12.4477153,6 13,6 L19,6 C19.5522847,6 20,6.44771525 20,7 L20,10.2546893 C21.8134841,11.5196354 23,13.6212549 23,16 L17,16 Z" id="标记1"></path>
                </g>
            </g>
        </g>
    </g>
</svg>