<?xml version="1.0" encoding="UTF-8"?>
<svg width="14px" height="16px" viewBox="0 0 14 16" version="1.1" xmlns="http://www.w3.org/2000/svg" xmlns:xlink="http://www.w3.org/1999/xlink">
    <!-- Generator: Sketch 56.1 (81669) - https://sketch.com -->
    <title>标记3</title>
    <desc>Created with Sketch.</desc>
    <g id="页面1" stroke="none" stroke-width="1" fill="none" fill-rule="evenodd">
        <g id="b-gis-单独导航状态" transform="translate(-914.000000, -629.000000)" fill="#46C96F" fill-rule="nonzero">
            <g id="Group-35复制" transform="translate(896.000000, 485.000000)">
                <g id="编组-10复制">
                    <g id="编组-7" transform="translate(2.000000, 83.000000)">
                        <path d="M17,61 L29,61 C29.5522847,61 30,61.4477153 30,62 L30,76.1384102 C30,76.4145525 29.7761424,76.6384102 29.5,76.6384102 C29.4129865,76.6384102 29.3274794,76.6157025 29.2519305,76.5725317 L23,73 L16.7480695,76.5725317 C16.5083107,76.7095367 16.2028834,76.6262384 16.0658784,76.3864796 C16.0227077,76.3109308 16,76.2254236 16,76.1384102 L16,62 C16,61.4477153 16.4477153,61 17,61 Z M20,63 C19.4477153,63 19,63.4477153 19,64 C19,64.5522847 19.4477153,65 20,65 L26,65 C26.5522847,65 27,64.5522847 27,64 C27,63.4477153 26.5522847,63 26,63 L20,63 Z" id="标记3"></path>
                    </g>
                </g>
            </g>
        </g>
    </g>
</svg>