<?xml version="1.0" encoding="UTF-8"?>
<svg width="13px" height="11px" viewBox="0 0 13 11" version="1.1" xmlns="http://www.w3.org/2000/svg" xmlns:xlink="http://www.w3.org/1999/xlink">
    <!-- Generator: Sketch 56.1 (81669) - https://sketch.com -->
    <title>省控</title>
    <desc>Created with Sketch.</desc>
    <g id="页面1" stroke="none" stroke-width="1" fill="none" fill-rule="evenodd">
        <g id="b-gis-单独导航" transform="translate(-1119.000000, -856.000000)" fill="#666666" fill-rule="nonzero">
            <g id="Group-54复制-2" transform="translate(1108.000000, 746.000000)">
                <g id="编组-10" transform="translate(10.000000, 77.000000)">
                    <path d="M8.36041419,34.1147101 L13.3203459,42.490462 C13.601756,42.9656744 13.4446482,43.5790381 12.9694358,43.8604481 C12.8151705,43.9518006 12.6391827,44 12.4598978,44 L2.5400343,44 C1.98774955,44 1.5400343,43.5522847 1.5400343,43 C1.5400343,42.8207151 1.5882337,42.6447273 1.67958616,42.490462 L6.63951791,34.1147101 C6.92092799,33.6394977 7.53429168,33.4823899 8.00950407,33.7637999 C8.15410096,33.849427 8.27478717,33.9701132 8.36041419,34.1147101 Z M2.5400343,43 L12.4598978,43 L7.49996605,34.6242481 L2.5400343,43 Z" id="省控"></path>
                </g>
            </g>
        </g>
    </g>
</svg>