<?xml version="1.0" encoding="UTF-8"?>
<svg width="24px" height="20px" viewBox="0 0 24 20" version="1.1" xmlns="http://www.w3.org/2000/svg" xmlns:xlink="http://www.w3.org/1999/xlink">
    <!-- Generator: Sketch 53 (72520) - https://sketchapp.com -->
    <title>空气</title>
    <desc>Created with Sketch.</desc>
    <g id="Page-1" stroke="none" stroke-width="1" fill="none" fill-rule="evenodd">
        <g id="b-单独导航-综合看板01复制" transform="translate(-1455.000000, -158.000000)" fill="#999999" fill-rule="nonzero">
            <g id="空气" transform="translate(1455.000000, 158.000000)">
                <path d="M2.28975406,5.28537722 C4.59563174,3.34419849 6.41888387,1.80824082 11.3606396,4.5477293 C13.7349924,5.86368672 15.6506446,6.35787847 17.2453715,6.35787847 C20.0371747,6.35787847 21.8455768,4.83486199 23.4097786,3.51890458 C23.9683043,3.04897756 24.0409044,2.2142707 23.5706538,1.65699064 C23.1004033,1.09971058 22.2688023,1.02691638 21.7111017,1.4968434 C19.405224,3.43963978 17.5836219,4.9739798 12.6385661,2.23449132 C6.1070335,-1.38257172 3.04710494,1.19434305 0.589427082,3.26493369 C0.0325514342,3.73486071 -0.0400486502,4.56794991 0.428551895,5.1260388 C0.89715244,5.68412768 1.73122841,5.75773071 2.28975406,5.28618604 L2.28975406,5.28537722 Z M21.7102767,8.10574815 C19.404399,10.0469269 17.5827969,11.5828845 12.6377411,8.84339607 C6.1078585,5.22633303 3.04792994,7.8032478 0.590252083,9.87222079 C0.0317264333,10.3421478 -0.0408736512,11.1768547 0.429376896,11.7341347 C0.899627443,12.2914148 1.73122841,12.364209 2.28892906,11.894282 C4.59480674,9.95148559 6.41805886,8.41714557 11.3598146,11.1550164 C13.7341674,12.4709738 15.6498196,12.9667832 17.2445465,12.9667832 C20.0363497,12.9667832 21.8447518,11.4437667 23.4089536,10.1261917 C23.9674793,9.65626466 24.0400794,8.82317545 23.5698288,8.26508657 C23.1012283,7.70618886 22.2679773,7.63501231 21.7102767,8.10493932 L21.7102767,8.10574815 Z M21.7102767,14.7146529 C19.404399,16.6558316 17.5827969,18.1917893 12.6377411,15.4523008 C6.1078585,11.8352378 3.04627994,14.4105349 0.590252083,16.4811255 C0.0317264333,16.9510526 -0.0408736512,17.7857594 0.429376896,18.3430395 C0.899627443,18.9003195 1.73122841,18.9731137 2.28892906,18.5031867 C4.59645674,16.5603903 6.41805886,15.0268591 11.3614646,17.7639212 C13.7358174,19.0798786 15.6514696,19.575688 17.2461965,19.575688 C20.0379997,19.575688 21.8464018,18.0526715 23.4106036,16.7350964 C23.9691293,16.2667871 24.0417294,15.4320802 23.5714788,14.8739913 C23.1012283,14.3159024 22.2688023,14.2422994 21.7102767,14.7138441 L21.7102767,14.7146529 Z" id="Shape"></path>
            </g>
        </g>
    </g>
</svg>