<?xml version="1.0" encoding="UTF-8"?>
<svg width="16px" height="16px" viewBox="0 0 16 16" version="1.1" xmlns="http://www.w3.org/2000/svg" xmlns:xlink="http://www.w3.org/1999/xlink">
    <!-- Generator: Sketch 53 (72520) - https://sketchapp.com -->
    <title>形状</title>
    <desc>Created with Sketch.</desc>
    <g id="Page-1" stroke="none" stroke-width="1" fill="none" fill-rule="evenodd">
        <g id="实时监测-站点信息-基本信息" transform="translate(-21.000000, -654.000000)" fill="#333333">
            <g id="编组-23复制" transform="translate(0.000000, 137.000000)">
                <path d="M35.7368624,517 C36.4344867,517 37.0000217,517.565535 37.0000217,518.263159 L37.0000217,531.736863 C37.0000217,532.434487 36.4344867,533.000022 35.7368625,533.000022 L22.2631593,533.000022 C21.5655366,533.000022 21.0000001,532.434487 21,531.736862 L21,518.263159 C21,517.565535 21.565535,517 22.2631593,517 L35.7368625,517 Z M22.0000016,523 L22.0000016,527 L36.0000016,527 L36.0000016,523 L22.0000016,523 Z M22.4117666,518 C22.1843557,518 22.0000017,518.179087 22.0000016,518.400001 L22.0000016,522 L36.0000016,522 L36.0000016,518.400001 C36.0000016,518.179086 35.8156476,518 35.5882367,518 L22.4117697,518 Z M35.5882366,532 C35.8156491,532 36.0000016,531.820913 36.0000016,531.599999 L36.0000016,528 L22.0000016,528 L22.0000016,531.599999 C22.0000016,531.820914 22.1843557,532 22.4117666,532 L35.5882336,532 Z M33.0000016,520 C33.0000016,519.447715 33.4477171,519 34.0000016,519 C34.5522862,519 35.0000016,519.447715 35.0000016,520 C35.0000016,520.552285 34.5522862,521 34.0000016,521 C33.4477171,521 33.0000015,520.552285 33.0000016,520 Z M33.0000016,525 C33.0000016,524.447715 33.4477171,524 34.0000016,524 C34.5522862,524 35.0000016,524.447715 35.0000016,525 C35.0000016,525.552285 34.5522862,526 34.0000016,526 C33.4477171,526 33.0000015,525.552285 33.0000016,525 Z M33.0000016,530 C33.0000016,529.447715 33.4477171,529 34.0000016,529 C34.5522862,529 35.0000016,529.447715 35.0000016,530 C35.0000016,530.552285 34.5522862,531 34.0000016,531 C33.4477171,531 33.0000015,530.552285 33.0000016,530 Z" id="形状结合"></path>
            </g>
        </g>
    </g>
</svg>