<?xml version="1.0" encoding="UTF-8"?>
<svg width="16px" height="14px" viewBox="0 0 16 14" version="1.1" xmlns="http://www.w3.org/2000/svg" xmlns:xlink="http://www.w3.org/1999/xlink">
    <!-- Generator: Sketch 56.1 (81669) - https://sketch.com -->
    <title>标记4</title>
    <desc>Created with Sketch.</desc>
    <g id="页面1" stroke="none" stroke-width="1" fill="none" fill-rule="evenodd">
        <g id="b-gis-单独导航状态" transform="translate(-946.000000, -694.000000)" fill="#F8C900" fill-rule="nonzero">
            <g id="Group-35复制" transform="translate(896.000000, 485.000000)">
                <g id="Group-26" transform="translate(2.000000, 176.000000)">
                    <g id="标记4" transform="translate(48.000000, 33.000000)">
                        <path d="M3.42867774,6.4608942 C2.166544,6.46089415 1.14338733,5.49667898 1.14338733,4.30726443 C1.14338738,3.11784506 2.16654912,2.15363466 3.42867764,2.15363466 L9.24744882,2.15363466 C9.48745773,2.79769317 10.132268,3.2291843 10.8566174,3.23045262 C11.5808968,3.22897927 12.2255945,2.79756296 12.465786,2.15363452 L15.4279315,2.15363452 C15.7434658,2.15363454 15.9992549,1.91258032 15.9992549,1.61522628 C15.9992549,1.31787063 15.743464,1.07681803 15.4279315,1.07681803 L12.465786,1.07681803 C12.2257771,0.432759454 11.5809667,0.00126832568 10.8566174,6.05346884e-11 C10.132338,0.00147333784 9.48764029,0.432889663 9.24744882,1.0768181 L3.42867763,1.0768181 C1.53506935,1.07681818 0,2.52344877 0,4.30796202 C0,6.09247528 1.53506935,7.53910594 3.42867749,7.53910594 L12.5713228,7.53910594 C13.8334563,7.53910589 14.856613,8.50332116 14.856613,9.69273571 C14.856613,10.8821551 13.8334512,11.8463655 12.5713227,11.8463655 L6.75255149,11.8463655 C6.51254255,11.2023069 5.86773223,10.7708158 5.1433829,10.7695474 C4.41910353,10.7710208 3.77440579,11.2024371 3.53421431,11.8463655 L0.572068814,11.8463655 C0.256534527,11.8463656 0.000745357633,12.0874198 0.000745357633,12.3847738 C0.000745371425,12.6821294 0.256536233,12.923182 0.572068789,12.923182 L3.53421429,12.923182 C3.77422319,13.5672405 4.41903351,13.9987317 5.14338285,14 C5.86766227,13.9985266 6.51236001,13.5671103 6.75255148,12.9231819 L12.5713227,12.9231819 C14.4649307,12.923182 16,11.4765512 16,9.69203798 C16,7.90752472 14.4649307,6.46089406 12.5713225,6.46089406 L3.42867774,6.4608942 Z M11.4487072,1.59564694 C11.4599745,1.89319067 11.2131555,2.1430058 10.8974199,2.15362502 C10.8838237,2.15408226 10.8702145,2.15408227 10.8566184,2.15362505 C10.5408846,2.1430069 10.2940644,1.89319231 10.3053312,1.59564697 C10.3160342,1.31300326 10.5566955,1.08620767 10.8566184,1.07612054 C11.1723514,1.06550236 11.4374388,1.29810161 11.4487072,1.59564694 Z M4.57132628,12.3840826 C4.57132628,12.0867269 4.82711716,11.8456743 5.14264971,11.8456743 C5.45818395,11.8456743 5.71397312,12.0867285 5.71397312,12.3840826 C5.71397312,12.6814382 5.45818224,12.9224908 5.14264969,12.9224908 C4.82711545,12.9224908 4.57132628,12.6814366 4.57132628,12.3840826 Z" id="Shape"></path>
                    </g>
                </g>
            </g>
        </g>
    </g>
</svg>