<?xml version="1.0" encoding="UTF-8"?>
<svg width="16px" height="16px" viewBox="0 0 16 16" version="1.1" xmlns="http://www.w3.org/2000/svg" xmlns:xlink="http://www.w3.org/1999/xlink">
    <!-- Generator: Sketch 53 (72520) - https://sketchapp.com -->
    <title>stats</title>
    <desc>Created with Sketch.</desc>
    <g id="Page-1" stroke="none" stroke-width="1" fill="none" fill-rule="evenodd">
        <g id="实时监测-空气质量指数" transform="translate(-1143.000000, -57.000000)" fill="#FFFFFF">
            <g id="Group-2" transform="translate(433.000000, 40.000000)">
                <g id="Group-8" transform="translate(710.000000, 16.000000)">
                    <path d="M15.4349699,15.8699397 C15.751938,15.8699397 16,16.1180017 16,16.4349699 C16,16.751938 15.751938,17 15.4349699,17 L0.565030146,17 C0.248062016,17 0,16.751938 0,16.4349699 L0,1.56503015 C0,1.24806202 0.248062016,1 0.565030146,1 C0.881998277,1 1.13006029,1.24806202 1.13006029,1.56503015 L1.13006029,15.8699397 L15.4349699,15.8699397 Z M6.60120586,13.6925065 C6.60120586,14.0094746 6.35314384,14.2575366 6.03617571,14.2575366 C5.71920758,14.2575366 5.47114556,14.0094746 5.47114556,13.6925065 L5.47114556,5.56158484 C5.47114556,5.24461671 5.71920758,4.99655469 6.03617571,4.99655469 C6.35314384,4.99655469 6.60120586,5.24461671 6.60120586,5.56158484 L6.60120586,13.6925065 Z M3.87252369,13.6925065 C3.87252369,14.0094746 3.62446167,14.2575366 3.30749354,14.2575366 C2.99052541,14.2575366 2.74246339,14.0094746 2.74246339,13.6925065 L2.74246339,5.56158484 C2.74246339,5.24461671 2.99052541,4.99655469 3.30749354,4.99655469 C3.62446167,4.99655469 3.87252369,5.24461671 3.87252369,5.56158484 L3.87252369,13.6925065 Z M12.0585702,13.6925065 C12.0585702,14.0094746 11.8105082,14.2575366 11.4935401,14.2575366 C11.1765719,14.2575366 10.9285099,14.0094746 10.9285099,13.6925065 L10.9285099,5.56158484 C10.9285099,5.24461671 11.1765719,4.99655469 11.4935401,4.99655469 C11.8105082,4.99655469 12.0585702,5.24461671 12.0585702,5.56158484 L12.0585702,13.6925065 Z M14.7872524,13.6925065 C14.7872524,14.0094746 14.5391904,14.2575366 14.2222222,14.2575366 C13.9052541,14.2575366 13.6571921,14.0094746 13.6571921,13.6925065 L13.6571921,9.62704565 C13.6571921,9.31007752 13.9052541,9.0620155 14.2222222,9.0620155 C14.5391904,9.0620155 14.7872524,9.31007752 14.7872524,9.62704565 L14.7872524,13.6925065 Z M9.32988803,13.6925065 C9.32988803,14.0094746 9.08182601,14.2575366 8.76485788,14.2575366 C8.44788975,14.2575366 8.19982773,14.0094746 8.19982773,13.6925065 L8.19982773,9.62704565 C8.19982773,9.31007752 8.44788975,9.0620155 8.76485788,9.0620155 C9.08182601,9.0620155 9.32988803,9.31007752 9.32988803,9.62704565 L9.32988803,13.6925065 Z" id="stats"></path>
                </g>
            </g>
        </g>
    </g>
</svg>