<?xml version="1.0" encoding="UTF-8"?>
<svg width="16px" height="14px" viewBox="0 0 16 14" version="1.1" xmlns="http://www.w3.org/2000/svg" xmlns:xlink="http://www.w3.org/1999/xlink">
    <!-- Generator: Sketch 53 (72520) - https://sketchapp.com -->
    <title>monitor</title>
    <desc>Created with Sketch.</desc>
    <g id="Page-1" stroke="none" stroke-width="1" fill="none" fill-rule="evenodd">
        <g id="实时监测-空气质量指数" transform="translate(-433.000000, -60.000000)" fill="#FFFFFF">
            <g id="Group-2" transform="translate(433.000000, 40.000000)">
                <g id="Group-13" transform="translate(0.000000, 17.000000)">
                    <path d="M15.4354561,3 L0.56454389,3 C0.247848537,3 0,3.23333333 0,3.53148148 L0,10.2333333 L0,12.9685185 C0,13.2666667 0.247848537,13.5 0.56454389,13.5 L7.43545611,13.5 L7.43545611,15.937037 L4.28227194,15.937037 C3.96557659,15.937037 3.71772806,16.1703704 3.71772806,16.4685185 C3.71772806,16.7666667 3.96557659,17 4.28227194,17 L11.7177281,17 C12.0344234,17 12.2822719,16.7666667 12.2822719,16.4685185 C12.2822719,16.1703704 12.0344234,15.937037 11.7177281,15.937037 L8.56454389,15.937037 L8.56454389,13.5 L15.4354561,13.5 C15.7521515,13.5 16,13.2666667 16,12.9685185 L16,10.2333333 L16,3.53148148 C16,3.23333333 15.7521515,3 15.4354561,3 L15.4354561,3 Z M14.8709122,12.437037 L1.12908778,12.437037 L1.12908778,10.7518519 L14.8709122,10.7518519 L14.8709122,12.437037 L14.8709122,12.437037 Z M14.8709122,9.70185185 L1.12908778,9.70185185 L1.12908778,4.06296296 L14.8709122,4.06296296 L14.8709122,9.70185185 L14.8709122,9.70185185 Z" id="monitor"></path>
                </g>
            </g>
        </g>
    </g>
</svg>