<?xml version="1.0" encoding="UTF-8"?>
<svg width="24px" height="24px" viewBox="0 0 24 24" version="1.1" xmlns="http://www.w3.org/2000/svg" xmlns:xlink="http://www.w3.org/1999/xlink">
    <!-- Generator: Sketch 53 (72520) - https://sketchapp.com -->
    <title>联网</title>
    <desc>Created with Sketch.</desc>
    <g id="Page-1" stroke="none" stroke-width="1" fill="none" fill-rule="evenodd">
        <g id="b-单独导航-综合看板01复制" transform="translate(-60.000000, -155.000000)" fill="#999999" fill-rule="nonzero">
            <g id="联网" transform="translate(60.000000, 155.000000)">
                <path d="M23.4731523,20.5031989 L13.8179223,20.5031989 L13.8179224,20.5031989 C13.6451505,20.1877506 13.389925,19.9227374 13.0782621,19.7351734 L13.0782621,18.0600159 C17.6616581,17.5378705 21.2189591,13.7283483 21.2189591,9.10740337 C21.2189591,4.12934758 17.0914465,0.0936949626 11.9999718,0.0936949626 C6.90856745,0.0936949626 2.78105483,4.12934758 2.78105483,9.10740337 C2.78105483,13.7283712 6.33840272,17.5378819 10.9217518,18.0600159 L10.9217518,19.7351734 L10.9217518,19.7351735 C10.610103,19.9227544 10.35488,20.1877644 10.1820915,20.5031989 L0.526814666,20.5031989 L0.526814666,22.3305554 L10.1451305,22.3305554 C10.4789489,23.0031604 11.1840247,23.4669232 12.0000163,23.4669232 C12.8159844,23.4669232 13.5210603,23.0031581 13.8548786,22.3305554 L23.4731476,22.3305554 L23.4731476,20.5031989 L23.4731523,20.5031989 Z M11.3853882,9.70835921 L11.3853882,12.1119995 L8.04291561,12.1119995 C7.85747391,11.3426678 7.74700511,10.537531 7.71160272,9.70835921 L11.3853882,9.70835921 Z M7.71162616,8.50649094 C7.74702878,7.67726873 7.85869172,6.8721755 8.04291561,6.10285064 L11.3853882,6.10285064 L11.3853882,8.50649094 L7.71162616,8.50649094 Z M17.6496299,14.6307022 C17.002644,15.2633107 16.2625619,15.7750381 15.4469242,16.1576667 C16.0404773,15.3841458 16.5356911,14.4170545 16.8933923,13.3138426 L18.7347687,13.3138426 L18.7347687,13.3138426 C18.4230352,13.7900267 18.059177,14.2315856 17.6496296,14.6307096 L17.6496299,14.6307022 Z M19.3775405,12.1119972 L17.216863,12.1119972 C17.3813255,11.3525793 17.4857782,10.5457466 17.5193759,9.70835692 L19.9663709,9.70835692 C19.9027307,10.538725 19.7046909,11.3438159 19.3775475,12.1119972 L19.3775405,12.1119972 Z M19.9664107,8.50651386 L17.5193688,8.50651386 C17.4845751,7.66914017 17.3813412,6.86219528 17.2169028,6.10287356 L19.3775804,6.10287356 C19.7058487,6.87103654 19.9027169,7.67619852 19.9663803,8.50651386 L19.9664107,8.50651386 Z M17.6496299,3.58359563 C18.0625429,3.98673693 18.4250675,4.42751661 18.7347687,4.9010557 L16.8933923,4.9010557 C16.5356677,3.797814 16.0416937,2.83010621 15.4469242,2.05723156 C16.2643666,2.43983721 17.0038159,2.95154177 17.6496299,3.58360021 L17.6496299,3.58359563 Z M12.6146162,1.38352432 C12.8949103,1.46282937 13.1727669,1.59712578 13.4440938,1.78492624 C13.9542233,2.13701374 14.4434184,2.67870937 14.8569173,3.35179557 C15.1432278,3.8183084 15.3898749,4.3359415 15.5963431,4.90103508 L12.6146162,4.90103508 L12.6146162,1.38352432 L12.6146162,1.38352432 Z M12.6146162,6.10289648 L15.9571123,6.10289648 C16.1413364,6.87220529 16.2529994,7.67731914 16.2883783,8.50653677 L12.6146162,8.50653677 L12.6146162,6.10289648 Z M12.6146162,9.70837984 L16.2883783,9.70837984 C16.2529757,10.5375562 16.1413362,11.3426953 15.9571123,12.1120201 L12.6146162,12.1120201 L12.6146162,9.70837984 Z M15.5963619,13.3138403 C15.3898939,13.8784068 15.1432465,14.3971857 14.8581079,14.8630569 C14.4445879,15.5367366 13.9554139,16.0789593 13.4452844,16.429972 C13.1727645,16.6177718 12.8961244,16.7526414 12.6158303,16.831351 L12.6146128,13.3138403 L15.5963619,13.3138403 L15.5963619,13.3138403 Z M10.5559576,1.78493312 C10.8284306,1.59713334 11.1051645,1.46281379 11.3854117,1.38353119 L11.3854117,4.90106029 L8.40366603,4.90106029 C8.61013377,4.33596671 8.85685171,3.81835423 9.14309189,3.35182078 C9.55668221,2.67749937 10.0457625,2.1358954 10.5559388,1.78492854 L10.5559576,1.78493312 Z M6.35039801,3.58358188 C6.9974308,2.95152343 7.73746603,2.4398418 8.55315058,2.05723614 C7.95955067,2.83009246 7.46438369,3.79780254 7.10668249,4.90106029 L5.26525925,4.90106029 C5.57493696,4.42749599 5.9374616,3.98669568 6.35039801,3.58357729 L6.35039801,3.58358188 Z M4.6224171,6.10285981 L6.78311805,6.10285981 C6.61870239,6.86218611 6.51422633,7.6691333 6.48062863,8.50650011 L4.03368047,8.50650011 C4.09729719,7.67617789 4.29536047,6.8710182 4.62245694,6.10285981 L4.6224171,6.10285981 Z M4.03366407,9.70836609 L6.48063567,9.70836609 C6.51545282,10.5457398 6.61871012,11.352593 6.78312508,12.1120064 L4.62244757,12.1120064 C4.29415578,11.3437976 4.09726414,10.5386814 4.03366407,9.70836609 L4.03366407,9.70836609 Z M6.35039801,14.6307114 L6.35039814,14.6307115 C5.94086251,14.2315783 5.57700427,13.7900195 5.26525938,13.313845 L7.10668261,13.313845 C7.46438381,14.4170638 7.95833439,15.3841528 8.5531507,16.1576691 C7.73563803,15.7750406 6.99621217,15.2633131 6.35039814,14.6307046 L6.35039801,14.6307114 Z M9.14309658,14.8630638 C8.85683296,14.3972155 8.61011549,13.8784136 8.40367072,13.3138242 L11.3854164,13.3138242 L11.3854164,16.8313533 C11.1051457,16.7526666 10.8272188,16.6177519 10.5559388,16.4299743 C10.0457625,16.0778181 9.55668456,15.5356183 9.14311533,14.8630592 L9.14309658,14.8630638 Z" id="Shape"></path>
            </g>
        </g>
    </g>
</svg>