<?xml version="1.0" encoding="UTF-8"?>
<svg width="16px" height="16px" viewBox="0 0 16 16" version="1.1" xmlns="http://www.w3.org/2000/svg" xmlns:xlink="http://www.w3.org/1999/xlink">
    <!-- Generator: Sketch 53 (72520) - https://sketchapp.com -->
    <title>形状结合</title>
    <desc>Created with Sketch.</desc>
    <g id="Page-1" stroke="none" stroke-width="1" fill="none" fill-rule="evenodd">
        <g id="实时监测-站点信息-基本信息" transform="translate(-21.000000, -556.000000)" fill="#666666" fill-rule="nonzero">
            <g id="编组-23复制" transform="translate(0.000000, 137.000000)">
                <path d="M29,435 C24.581722,435 21,431.418278 21,427 C21,422.581722 24.581722,419 29,419 C33.418278,419 37,422.581722 37,427 C37,431.418278 33.418278,435 29,435 Z M29,434 C32.8659932,434 36,430.865993 36,427 C36,423.134007 32.8659932,420 29,420 C25.1340068,420 22,423.134007 22,427 C22,430.865993 25.1340068,434 29,434 Z M29,424 C28.4477153,424 28,423.552285 28,423 C28,422.447715 28.4477153,422 29,422 C29.5522847,422 30,422.447715 30,423 C30,423.552285 29.5522847,424 29,424 Z M29,433 C26.790861,433 25,431.209139 25,429 C25,426.790861 26.790861,425 29,425 C31.209139,425 33,426.790861 33,429 C33,431.209139 31.209139,433 29,433 Z M29,432 C30.6568542,432 32,430.656854 32,429 C32,427.343146 30.6568542,426 29,426 C27.3431458,426 26,427.343146 26,429 C26,430.656854 27.3431458,432 29,432 Z" id="形状结合"></path>
            </g>
        </g>
    </g>
</svg>