<?xml version="1.0" encoding="UTF-8"?>
<svg width="16px" height="16px" viewBox="0 0 16 16" version="1.1" xmlns="http://www.w3.org/2000/svg" xmlns:xlink="http://www.w3.org/1999/xlink">
    <!-- Generator: Sketch 53 (72520) - https://sketchapp.com -->
    <title>形状结合</title>
    <desc>Created with Sketch.</desc>
    <g id="Page-1" stroke="none" stroke-width="1" fill="none" fill-rule="evenodd">
        <g id="实时监测-站点信息-基本信息" transform="translate(-21.000000, -411.000000)" fill="#666666">
            <g id="编组-23复制" transform="translate(0.000000, 137.000000)">
                <path d="M22,289 L36.5,289 C36.7761424,289 37,289.223858 37,289.5 C37,289.776142 36.7761424,290 36.5,290 L21.5,290 C21.2238576,290 21,289.776142 21,289.5 L21,274.5 C21,274.223858 21.2238576,274 21.5,274 C21.7761424,274 22,274.223858 22,274.5 L22,289 Z M31.4244116,284.284758 L28.419232,281.266775 L23.8893707,286.889187 C23.7161223,287.104221 23.4013573,287.138095 23.1863233,286.964846 C22.9712894,286.791598 22.9374155,286.476833 23.1106639,286.261799 L28.3405482,279.770527 L31.3665145,282.809385 L36.0086578,277.176059 C36.1875712,276.965715 36.5031267,276.940235 36.7134707,277.119148 C36.9238147,277.298062 36.9492942,277.613617 36.7703808,277.823961 L31.4244116,284.284758 Z" id="形状结合"></path>
            </g>
        </g>
    </g>
</svg>