<?xml version="1.0" encoding="UTF-8"?>
<svg width="16px" height="16px" viewBox="0 0 16 16" version="1.1" xmlns="http://www.w3.org/2000/svg" xmlns:xlink="http://www.w3.org/1999/xlink">
    <!-- Generator: Sketch 53 (72520) - https://sketchapp.com -->
    <title>target</title>
    <desc>Created with Sketch.</desc>
    <g id="Page-1" stroke="none" stroke-width="1" fill="none" fill-rule="evenodd">
        <g id="实时监测-空气质量指数" transform="translate(-1285.000000, -59.000000)" fill="#FFFFFF">
            <g id="Group-2" transform="translate(433.000000, 40.000000)">
                <g id="Group-7" transform="translate(852.000000, 17.000000)">
                    <path d="M0.566493955,10.566494 L1.81001727,10.566494 C2.07253886,13.5509499 4.46286701,15.9274611 7.43350604,16.1899827 L7.43350604,17.433506 C7.43350604,17.7374784 7.68221071,18 8,18 C8.30397237,18 8.56649396,17.7512953 8.56649396,17.433506 L8.56649396,16.1899827 C11.5509499,15.9274611 13.9274611,13.537133 14.1899827,10.566494 L15.433506,10.566494 C15.7374784,10.566494 16,10.3177893 16,10 C16,9.69602763 15.7512953,9.43350604 15.433506,9.43350604 L14.1899827,9.43350604 C13.9274611,6.44905009 11.537133,4.07253886 8.56649396,3.81001727 L8.56649396,2.56649396 C8.56649396,2.26252159 8.31778929,2 8,2 C7.69602763,2 7.43350604,2.24870466 7.43350604,2.56649396 L7.43350604,3.81001727 C4.44905009,4.07253886 2.07253886,6.46286701 1.81001727,9.43350604 L0.566493955,9.43350604 C0.248704663,9.43350604 0,9.68221071 0,10 C4.90875811e-16,10.3177893 0.262521589,10.566494 0.566493955,10.566494 L0.566493955,10.566494 Z M5.22279793,9.43350604 L2.94300518,9.43350604 C3.20552677,7.07081174 5.08462867,5.19170984 7.43350604,4.94300518 L7.43350604,7.22279793 C7.43350604,7.52677029 7.68221071,7.78929188 8,7.78929188 C8.30397237,7.78929188 8.56649396,7.54058722 8.56649396,7.22279793 L8.56649396,4.94300518 C10.9291883,5.20552677 12.8082902,7.08462867 13.0569948,9.43350604 L10.7772021,9.43350604 C10.4732297,9.43350604 10.2107081,9.68221071 10.2107081,10 C10.2107081,10.3039724 10.4594128,10.566494 10.7772021,10.566494 L13.0569948,10.566494 C12.7944732,12.9291883 10.9153713,14.8082902 8.56649396,15.0569948 L8.56649396,12.7772021 C8.56649396,12.4732297 8.31778929,12.2107081 8,12.2107081 C7.69602763,12.2107081 7.43350604,12.4594128 7.43350604,12.7772021 L7.43350604,15.0569948 C5.07081174,14.7944732 3.19170984,12.9153713 2.94300518,10.566494 L5.22279793,10.566494 C5.52677029,10.566494 5.78929188,10.3177893 5.78929188,10 C5.78929188,9.69602763 5.52677029,9.43350604 5.22279793,9.43350604 L5.22279793,9.43350604 Z" id="target"></path>
                </g>
            </g>
        </g>
    </g>
</svg>