<?xml version="1.0" encoding="UTF-8"?>
<svg width="18px" height="16px" viewBox="0 0 18 16" version="1.1" xmlns="http://www.w3.org/2000/svg" xmlns:xlink="http://www.w3.org/1999/xlink">
    <!-- Generator: Sketch 53 (72520) - https://sketchapp.com -->
    <title>形状结合</title>
    <desc>Created with Sketch.</desc>
    <g id="Page-1" stroke="none" stroke-width="1" fill="none" fill-rule="evenodd">
        <g id="实时监测-站点信息-基本信息" transform="translate(-20.000000, -507.000000)" fill="#666666" fill-rule="nonzero">
            <g id="编组-23复制" transform="translate(0.000000, 137.000000)">
                <path d="M27,372 L34,372 C35.1045695,372 36,372.976833 36,374.181818 L36,379 C37.1045695,379 38,379.895431 38,381 L38,384 C38,385.104569 37.1045695,386 36,386 L33,386 C31.8954305,386 31,385.104569 31,384 L24,384 C22.8954305,384 22,383.023167 22,381.818182 L22,377 C20.8954305,377 20,376.104569 20,375 L20,372 C20,370.895431 20.8954305,370 22,370 L25,370 C26.1045695,370 27,370.895431 27,372 Z M27,373 L27,375 C27,376.104569 26.1045695,377 25,377 L23,377 L23,381.888889 C23,382.502539 23.4477153,383 24,383 L31,383 L31,381 C31,379.895431 31.8954305,379 33,379 L35,379 L35,374.111111 C35,373.497461 34.5522847,373 34,373 L27,373 Z M22,371 C21.4477153,371 21,371.447715 21,372 L21,375 C21,375.552285 21.4477153,376 22,376 L25,376 C25.5522847,376 26,375.552285 26,375 L26,372 C26,371.447715 25.5522847,371 25,371 L22,371 Z M33,380 C32.4477153,380 32,380.447715 32,381 L32,384 C32,384.552285 32.4477153,385 33,385 L36,385 C36.5522847,385 37,384.552285 37,384 L37,381 C37,380.447715 36.5522847,380 36,380 L33,380 Z" id="形状结合"></path>
            </g>
        </g>
    </g>
</svg>