<?xml version="1.0" encoding="UTF-8"?>
<svg width="9px" height="12px" viewBox="0 0 9 12" version="1.1" xmlns="http://www.w3.org/2000/svg" xmlns:xlink="http://www.w3.org/1999/xlink">
    <!-- Generator: Sketch 53 (72520) - https://sketchapp.com -->
    <title>形状结合</title>
    <desc>Created with Sketch.</desc>
    <g id="Page-1" stroke="none" stroke-width="1" fill="none" fill-rule="evenodd" opacity="0.5">
        <g id="实时监测-空气质量指数" transform="translate(-1434.000000, -971.000000)" fill="#999999" fill-rule="nonzero">
            <g id="编组-17" transform="translate(1422.000000, 961.000000)">
                <g id="编组-8">
                    <path d="M20.3333273,22 C20.1520216,22 19.9955493,21.9259949 19.8640066,21.7779847 L15.1973236,16.5279939 C15.065781,16.3799838 15,16.2040003 15,16.000005 C15,15.7959905 15.0657618,15.620007 15.1973236,15.4719968 L19.8640066,10.222006 C19.9955493,10.0750162 20.1520215,10.0010111 20.3333273,10.00001 C20.5146907,9.99900891 20.6711245,10.073014 20.8026864,10.222006 C20.9342291,10.370998 20.9999908,10.5470008 20.9999908,10.749995 L20.9999908,21.2499958 C21.0008935,21.4539911 20.9351318,21.6299938 20.8026864,21.778004 C20.6702218,21.9259949 20.513788,22 20.3333273,22 Z M12.5,10 C12.7761424,10 13,10.2238576 13,10.5 L13,21.5 C13,21.7761424 12.7761424,22 12.5,22 C12.2238576,22 12,21.7761424 12,21.5 L12,10.5 C12,10.2238576 12.2238576,10 12.5,10 Z" id="形状结合"></path>
                </g>
            </g>
        </g>
    </g>
</svg>